G04 #@! TF.GenerationSoftware,KiCad,Pcbnew,(5.1.4-0-10_14)*
G04 #@! TF.CreationDate,2020-02-21T17:32:28+01:00*
G04 #@! TF.ProjectId,mood_lamp,6d6f6f64-5f6c-4616-9d70-2e6b69636164,rev?*
G04 #@! TF.SameCoordinates,PX2436c08PY18772f0*
G04 #@! TF.FileFunction,Soldermask,Top*
G04 #@! TF.FilePolarity,Negative*
%FSLAX46Y46*%
G04 Gerber Fmt 4.6, Leading zero omitted, Abs format (unit mm)*
G04 Created by KiCad (PCBNEW (5.1.4-0-10_14)) date 2020-02-21 17:32:28*
%MOMM*%
%LPD*%
G04 APERTURE LIST*
%ADD10C,0.100000*%
G04 APERTURE END LIST*
D10*
G36*
X24482257Y-54102299D02*
G01*
X24588580Y-54123448D01*
X24889043Y-54247904D01*
X25159452Y-54428586D01*
X25389416Y-54658550D01*
X25570098Y-54928959D01*
X25694554Y-55229422D01*
X25758001Y-55548392D01*
X25758001Y-55873610D01*
X25694554Y-56192580D01*
X25570098Y-56493043D01*
X25389416Y-56763452D01*
X25159452Y-56993416D01*
X24889043Y-57174098D01*
X24588580Y-57298554D01*
X24482257Y-57319703D01*
X24269612Y-57362001D01*
X23944390Y-57362001D01*
X23731745Y-57319703D01*
X23625422Y-57298554D01*
X23324959Y-57174098D01*
X23054550Y-56993416D01*
X22824586Y-56763452D01*
X22643904Y-56493043D01*
X22519448Y-56192580D01*
X22456001Y-55873610D01*
X22456001Y-55548392D01*
X22519448Y-55229422D01*
X22643904Y-54928959D01*
X22824586Y-54658550D01*
X23054550Y-54428586D01*
X23324959Y-54247904D01*
X23625422Y-54123448D01*
X23731745Y-54102299D01*
X23944390Y-54060001D01*
X24269612Y-54060001D01*
X24482257Y-54102299D01*
X24482257Y-54102299D01*
G37*
G36*
X3282257Y-54102299D02*
G01*
X3388580Y-54123448D01*
X3689043Y-54247904D01*
X3959452Y-54428586D01*
X4189416Y-54658550D01*
X4370098Y-54928959D01*
X4494554Y-55229422D01*
X4558001Y-55548392D01*
X4558001Y-55873610D01*
X4494554Y-56192580D01*
X4370098Y-56493043D01*
X4189416Y-56763452D01*
X3959452Y-56993416D01*
X3689043Y-57174098D01*
X3388580Y-57298554D01*
X3282257Y-57319703D01*
X3069612Y-57362001D01*
X2744390Y-57362001D01*
X2531745Y-57319703D01*
X2425422Y-57298554D01*
X2124959Y-57174098D01*
X1854550Y-56993416D01*
X1624586Y-56763452D01*
X1443904Y-56493043D01*
X1319448Y-56192580D01*
X1256001Y-55873610D01*
X1256001Y-55548392D01*
X1319448Y-55229422D01*
X1443904Y-54928959D01*
X1624586Y-54658550D01*
X1854550Y-54428586D01*
X2124959Y-54247904D01*
X2425422Y-54123448D01*
X2531745Y-54102299D01*
X2744390Y-54060001D01*
X3069612Y-54060001D01*
X3282257Y-54102299D01*
X3282257Y-54102299D01*
G37*
G36*
X25298695Y-50989634D02*
G01*
X25471096Y-51041932D01*
X25629984Y-51126859D01*
X25769250Y-51241152D01*
X25883543Y-51380418D01*
X25968470Y-51539306D01*
X26020768Y-51711707D01*
X26038426Y-51891001D01*
X26020768Y-52070295D01*
X25968470Y-52242696D01*
X25883543Y-52401584D01*
X25769250Y-52540850D01*
X25629984Y-52655143D01*
X25471096Y-52740070D01*
X25298695Y-52792368D01*
X25164332Y-52805601D01*
X24769670Y-52805601D01*
X24635307Y-52792368D01*
X24462906Y-52740070D01*
X24304018Y-52655143D01*
X24164752Y-52540850D01*
X24050459Y-52401584D01*
X23965532Y-52242696D01*
X23913234Y-52070295D01*
X23895576Y-51891001D01*
X23913234Y-51711707D01*
X23965532Y-51539306D01*
X24050459Y-51380418D01*
X24164752Y-51241152D01*
X24304018Y-51126859D01*
X24462906Y-51041932D01*
X24635307Y-50989634D01*
X24769670Y-50976401D01*
X25164332Y-50976401D01*
X25298695Y-50989634D01*
X25298695Y-50989634D01*
G37*
G36*
X2438695Y-50989634D02*
G01*
X2611096Y-51041932D01*
X2769984Y-51126859D01*
X2909250Y-51241152D01*
X3023543Y-51380418D01*
X3108470Y-51539306D01*
X3160768Y-51711707D01*
X3178426Y-51891001D01*
X3160768Y-52070295D01*
X3108470Y-52242696D01*
X3023543Y-52401584D01*
X2909250Y-52540850D01*
X2769984Y-52655143D01*
X2611096Y-52740070D01*
X2438695Y-52792368D01*
X2304332Y-52805601D01*
X1909670Y-52805601D01*
X1775307Y-52792368D01*
X1602906Y-52740070D01*
X1444018Y-52655143D01*
X1304752Y-52540850D01*
X1190459Y-52401584D01*
X1105532Y-52242696D01*
X1053234Y-52070295D01*
X1035576Y-51891001D01*
X1053234Y-51711707D01*
X1105532Y-51539306D01*
X1190459Y-51380418D01*
X1304752Y-51241152D01*
X1444018Y-51126859D01*
X1602906Y-51041932D01*
X1775307Y-50989634D01*
X1909670Y-50976401D01*
X2304332Y-50976401D01*
X2438695Y-50989634D01*
X2438695Y-50989634D01*
G37*
G36*
X25298695Y-48449634D02*
G01*
X25471096Y-48501932D01*
X25629984Y-48586859D01*
X25769250Y-48701152D01*
X25883543Y-48840418D01*
X25968470Y-48999306D01*
X26020768Y-49171707D01*
X26038426Y-49351001D01*
X26020768Y-49530295D01*
X25968470Y-49702696D01*
X25883543Y-49861584D01*
X25769250Y-50000850D01*
X25629984Y-50115143D01*
X25471096Y-50200070D01*
X25298695Y-50252368D01*
X25164332Y-50265601D01*
X24769670Y-50265601D01*
X24635307Y-50252368D01*
X24462906Y-50200070D01*
X24304018Y-50115143D01*
X24164752Y-50000850D01*
X24050459Y-49861584D01*
X23965532Y-49702696D01*
X23913234Y-49530295D01*
X23895576Y-49351001D01*
X23913234Y-49171707D01*
X23965532Y-48999306D01*
X24050459Y-48840418D01*
X24164752Y-48701152D01*
X24304018Y-48586859D01*
X24462906Y-48501932D01*
X24635307Y-48449634D01*
X24769670Y-48436401D01*
X25164332Y-48436401D01*
X25298695Y-48449634D01*
X25298695Y-48449634D01*
G37*
G36*
X2438695Y-48449634D02*
G01*
X2611096Y-48501932D01*
X2769984Y-48586859D01*
X2909250Y-48701152D01*
X3023543Y-48840418D01*
X3108470Y-48999306D01*
X3160768Y-49171707D01*
X3178426Y-49351001D01*
X3160768Y-49530295D01*
X3108470Y-49702696D01*
X3023543Y-49861584D01*
X2909250Y-50000850D01*
X2769984Y-50115143D01*
X2611096Y-50200070D01*
X2438695Y-50252368D01*
X2304332Y-50265601D01*
X1909670Y-50265601D01*
X1775307Y-50252368D01*
X1602906Y-50200070D01*
X1444018Y-50115143D01*
X1304752Y-50000850D01*
X1190459Y-49861584D01*
X1105532Y-49702696D01*
X1053234Y-49530295D01*
X1035576Y-49351001D01*
X1053234Y-49171707D01*
X1105532Y-48999306D01*
X1190459Y-48840418D01*
X1304752Y-48701152D01*
X1444018Y-48586859D01*
X1602906Y-48501932D01*
X1775307Y-48449634D01*
X1909670Y-48436401D01*
X2304332Y-48436401D01*
X2438695Y-48449634D01*
X2438695Y-48449634D01*
G37*
G36*
X19343823Y-47167313D02*
G01*
X19504242Y-47215976D01*
X19636906Y-47286886D01*
X19652078Y-47294996D01*
X19781659Y-47401341D01*
X19888004Y-47530922D01*
X19888005Y-47530924D01*
X19967024Y-47678758D01*
X20015687Y-47839177D01*
X20032117Y-48006000D01*
X20015687Y-48172823D01*
X19967024Y-48333242D01*
X19911884Y-48436401D01*
X19888004Y-48481078D01*
X19781659Y-48610659D01*
X19652078Y-48717004D01*
X19652076Y-48717005D01*
X19504242Y-48796024D01*
X19343823Y-48844687D01*
X19218804Y-48857000D01*
X19135196Y-48857000D01*
X19010177Y-48844687D01*
X18849758Y-48796024D01*
X18701924Y-48717005D01*
X18701922Y-48717004D01*
X18572341Y-48610659D01*
X18465996Y-48481078D01*
X18442116Y-48436401D01*
X18386976Y-48333242D01*
X18338313Y-48172823D01*
X18321883Y-48006000D01*
X18338313Y-47839177D01*
X18386976Y-47678758D01*
X18465995Y-47530924D01*
X18465996Y-47530922D01*
X18572341Y-47401341D01*
X18701922Y-47294996D01*
X18717094Y-47286886D01*
X18849758Y-47215976D01*
X19010177Y-47167313D01*
X19135196Y-47155000D01*
X19218804Y-47155000D01*
X19343823Y-47167313D01*
X19343823Y-47167313D01*
G37*
G36*
X25298695Y-45909634D02*
G01*
X25471096Y-45961932D01*
X25629984Y-46046859D01*
X25769250Y-46161152D01*
X25883543Y-46300418D01*
X25968470Y-46459306D01*
X26020768Y-46631707D01*
X26038426Y-46811001D01*
X26020768Y-46990295D01*
X25968470Y-47162696D01*
X25883543Y-47321584D01*
X25769250Y-47460850D01*
X25629984Y-47575143D01*
X25471096Y-47660070D01*
X25298695Y-47712368D01*
X25164332Y-47725601D01*
X24769670Y-47725601D01*
X24635307Y-47712368D01*
X24462906Y-47660070D01*
X24304018Y-47575143D01*
X24164752Y-47460850D01*
X24050459Y-47321584D01*
X23965532Y-47162696D01*
X23913234Y-46990295D01*
X23895576Y-46811001D01*
X23913234Y-46631707D01*
X23965532Y-46459306D01*
X24050459Y-46300418D01*
X24164752Y-46161152D01*
X24304018Y-46046859D01*
X24462906Y-45961932D01*
X24635307Y-45909634D01*
X24769670Y-45896401D01*
X25164332Y-45896401D01*
X25298695Y-45909634D01*
X25298695Y-45909634D01*
G37*
G36*
X2438695Y-45909634D02*
G01*
X2611096Y-45961932D01*
X2769984Y-46046859D01*
X2909250Y-46161152D01*
X3023543Y-46300418D01*
X3108470Y-46459306D01*
X3160768Y-46631707D01*
X3178426Y-46811001D01*
X3160768Y-46990295D01*
X3108470Y-47162696D01*
X3023543Y-47321584D01*
X2909250Y-47460850D01*
X2769984Y-47575143D01*
X2611096Y-47660070D01*
X2438695Y-47712368D01*
X2304332Y-47725601D01*
X1909670Y-47725601D01*
X1775307Y-47712368D01*
X1602906Y-47660070D01*
X1444018Y-47575143D01*
X1304752Y-47460850D01*
X1190459Y-47321584D01*
X1105532Y-47162696D01*
X1053234Y-46990295D01*
X1035576Y-46811001D01*
X1053234Y-46631707D01*
X1105532Y-46459306D01*
X1190459Y-46300418D01*
X1304752Y-46161152D01*
X1444018Y-46046859D01*
X1602906Y-45961932D01*
X1775307Y-45909634D01*
X1909670Y-45896401D01*
X2304332Y-45896401D01*
X2438695Y-45909634D01*
X2438695Y-45909634D01*
G37*
G36*
X25298695Y-43369634D02*
G01*
X25471096Y-43421932D01*
X25629984Y-43506859D01*
X25769250Y-43621152D01*
X25883543Y-43760418D01*
X25968470Y-43919306D01*
X26020768Y-44091707D01*
X26038426Y-44271001D01*
X26020768Y-44450295D01*
X25968470Y-44622696D01*
X25883543Y-44781584D01*
X25769250Y-44920850D01*
X25629984Y-45035143D01*
X25471096Y-45120070D01*
X25298695Y-45172368D01*
X25164332Y-45185601D01*
X24769670Y-45185601D01*
X24635307Y-45172368D01*
X24462906Y-45120070D01*
X24304018Y-45035143D01*
X24164752Y-44920850D01*
X24050459Y-44781584D01*
X23965532Y-44622696D01*
X23913234Y-44450295D01*
X23895576Y-44271001D01*
X23913234Y-44091707D01*
X23965532Y-43919306D01*
X24050459Y-43760418D01*
X24164752Y-43621152D01*
X24304018Y-43506859D01*
X24462906Y-43421932D01*
X24635307Y-43369634D01*
X24769670Y-43356401D01*
X25164332Y-43356401D01*
X25298695Y-43369634D01*
X25298695Y-43369634D01*
G37*
G36*
X2438695Y-43369634D02*
G01*
X2611096Y-43421932D01*
X2769984Y-43506859D01*
X2909250Y-43621152D01*
X3023543Y-43760418D01*
X3108470Y-43919306D01*
X3160768Y-44091707D01*
X3178426Y-44271001D01*
X3160768Y-44450295D01*
X3108470Y-44622696D01*
X3023543Y-44781584D01*
X2909250Y-44920850D01*
X2769984Y-45035143D01*
X2611096Y-45120070D01*
X2438695Y-45172368D01*
X2304332Y-45185601D01*
X1909670Y-45185601D01*
X1775307Y-45172368D01*
X1602906Y-45120070D01*
X1444018Y-45035143D01*
X1304752Y-44920850D01*
X1190459Y-44781584D01*
X1105532Y-44622696D01*
X1053234Y-44450295D01*
X1035576Y-44271001D01*
X1053234Y-44091707D01*
X1105532Y-43919306D01*
X1190459Y-43760418D01*
X1304752Y-43621152D01*
X1444018Y-43506859D01*
X1602906Y-43421932D01*
X1775307Y-43369634D01*
X1909670Y-43356401D01*
X2304332Y-43356401D01*
X2438695Y-43369634D01*
X2438695Y-43369634D01*
G37*
G36*
X25298695Y-40829634D02*
G01*
X25471096Y-40881932D01*
X25629984Y-40966859D01*
X25769250Y-41081152D01*
X25883543Y-41220418D01*
X25968470Y-41379306D01*
X26020768Y-41551707D01*
X26038426Y-41731001D01*
X26020768Y-41910295D01*
X25968470Y-42082696D01*
X25883543Y-42241584D01*
X25769250Y-42380850D01*
X25629984Y-42495143D01*
X25471096Y-42580070D01*
X25298695Y-42632368D01*
X25164332Y-42645601D01*
X24769670Y-42645601D01*
X24635307Y-42632368D01*
X24462906Y-42580070D01*
X24304018Y-42495143D01*
X24164752Y-42380850D01*
X24050459Y-42241584D01*
X23965532Y-42082696D01*
X23913234Y-41910295D01*
X23895576Y-41731001D01*
X23913234Y-41551707D01*
X23965532Y-41379306D01*
X24050459Y-41220418D01*
X24164752Y-41081152D01*
X24304018Y-40966859D01*
X24462906Y-40881932D01*
X24635307Y-40829634D01*
X24769670Y-40816401D01*
X25164332Y-40816401D01*
X25298695Y-40829634D01*
X25298695Y-40829634D01*
G37*
G36*
X2438695Y-40829634D02*
G01*
X2611096Y-40881932D01*
X2769984Y-40966859D01*
X2909250Y-41081152D01*
X3023543Y-41220418D01*
X3108470Y-41379306D01*
X3160768Y-41551707D01*
X3178426Y-41731001D01*
X3160768Y-41910295D01*
X3108470Y-42082696D01*
X3023543Y-42241584D01*
X2909250Y-42380850D01*
X2769984Y-42495143D01*
X2611096Y-42580070D01*
X2438695Y-42632368D01*
X2304332Y-42645601D01*
X1909670Y-42645601D01*
X1775307Y-42632368D01*
X1602906Y-42580070D01*
X1444018Y-42495143D01*
X1304752Y-42380850D01*
X1190459Y-42241584D01*
X1105532Y-42082696D01*
X1053234Y-41910295D01*
X1035576Y-41731001D01*
X1053234Y-41551707D01*
X1105532Y-41379306D01*
X1190459Y-41220418D01*
X1304752Y-41081152D01*
X1444018Y-40966859D01*
X1602906Y-40881932D01*
X1775307Y-40829634D01*
X1909670Y-40816401D01*
X2304332Y-40816401D01*
X2438695Y-40829634D01*
X2438695Y-40829634D01*
G37*
G36*
X11669916Y-40863334D02*
G01*
X11778492Y-40896271D01*
X11778495Y-40896272D01*
X11814601Y-40915571D01*
X11878557Y-40949756D01*
X11966264Y-41021736D01*
X12029383Y-41098646D01*
X12046702Y-41115965D01*
X12067077Y-41129579D01*
X12089716Y-41138957D01*
X12113749Y-41143737D01*
X12138253Y-41143737D01*
X12162286Y-41138957D01*
X12184925Y-41129579D01*
X12205299Y-41115966D01*
X12222626Y-41098639D01*
X12236240Y-41078264D01*
X12245618Y-41055625D01*
X12250398Y-41031592D01*
X12251000Y-41019340D01*
X12251000Y-40855000D01*
X13403000Y-40855000D01*
X13403000Y-42457000D01*
X12251000Y-42457000D01*
X12251000Y-42292660D01*
X12248598Y-42268274D01*
X12241485Y-42244825D01*
X12229934Y-42223214D01*
X12214389Y-42204272D01*
X12195447Y-42188727D01*
X12173836Y-42177176D01*
X12150387Y-42170063D01*
X12126001Y-42167661D01*
X12101615Y-42170063D01*
X12078166Y-42177176D01*
X12056555Y-42188727D01*
X12029381Y-42213356D01*
X11966264Y-42290264D01*
X11878556Y-42362244D01*
X11814600Y-42396429D01*
X11778494Y-42415728D01*
X11778491Y-42415729D01*
X11669915Y-42448666D01*
X11557000Y-42459787D01*
X11444084Y-42448666D01*
X11335508Y-42415729D01*
X11335505Y-42415728D01*
X11299399Y-42396429D01*
X11235443Y-42362244D01*
X11147736Y-42290264D01*
X11075756Y-42202556D01*
X11032239Y-42121140D01*
X11018625Y-42100766D01*
X11001298Y-42083439D01*
X10980924Y-42069825D01*
X10958285Y-42060448D01*
X10934251Y-42055668D01*
X10909747Y-42055668D01*
X10885714Y-42060449D01*
X10863075Y-42069826D01*
X10842701Y-42083440D01*
X10825374Y-42100767D01*
X10811762Y-42121140D01*
X10768244Y-42202557D01*
X10696264Y-42290264D01*
X10608556Y-42362244D01*
X10544600Y-42396429D01*
X10508494Y-42415728D01*
X10508491Y-42415729D01*
X10399915Y-42448666D01*
X10287000Y-42459787D01*
X10174084Y-42448666D01*
X10065508Y-42415729D01*
X10065505Y-42415728D01*
X10029399Y-42396429D01*
X9965443Y-42362244D01*
X9877736Y-42290264D01*
X9805756Y-42202556D01*
X9762239Y-42121140D01*
X9752272Y-42102494D01*
X9746492Y-42083440D01*
X9719334Y-41993915D01*
X9711000Y-41909297D01*
X9711000Y-41402702D01*
X9719334Y-41318084D01*
X9752271Y-41209508D01*
X9752272Y-41209505D01*
X9805756Y-41109445D01*
X9805757Y-41109443D01*
X9877737Y-41021736D01*
X9965444Y-40949756D01*
X10029400Y-40915571D01*
X10065506Y-40896272D01*
X10065509Y-40896271D01*
X10174085Y-40863334D01*
X10287000Y-40852213D01*
X10399916Y-40863334D01*
X10508492Y-40896271D01*
X10508495Y-40896272D01*
X10544601Y-40915571D01*
X10608557Y-40949756D01*
X10696264Y-41021736D01*
X10768244Y-41109443D01*
X10786574Y-41143737D01*
X10811761Y-41190859D01*
X10825375Y-41211234D01*
X10842702Y-41228561D01*
X10863076Y-41242174D01*
X10885715Y-41251552D01*
X10909748Y-41256332D01*
X10934252Y-41256332D01*
X10958285Y-41251552D01*
X10980924Y-41242174D01*
X11001299Y-41228560D01*
X11018626Y-41211233D01*
X11032239Y-41190859D01*
X11075756Y-41109445D01*
X11075757Y-41109443D01*
X11147737Y-41021736D01*
X11235444Y-40949756D01*
X11299400Y-40915571D01*
X11335506Y-40896272D01*
X11335509Y-40896271D01*
X11444085Y-40863334D01*
X11557000Y-40852213D01*
X11669916Y-40863334D01*
X11669916Y-40863334D01*
G37*
G36*
X19425228Y-39567703D02*
G01*
X19580100Y-39631853D01*
X19719481Y-39724985D01*
X19838015Y-39843519D01*
X19931147Y-39982900D01*
X19995297Y-40137772D01*
X20028000Y-40302184D01*
X20028000Y-40469816D01*
X19995297Y-40634228D01*
X19931147Y-40789100D01*
X19838015Y-40928481D01*
X19719481Y-41047015D01*
X19580100Y-41140147D01*
X19425228Y-41204297D01*
X19260816Y-41237000D01*
X19093184Y-41237000D01*
X18928772Y-41204297D01*
X18773900Y-41140147D01*
X18634519Y-41047015D01*
X18515985Y-40928481D01*
X18422853Y-40789100D01*
X18358703Y-40634228D01*
X18326000Y-40469816D01*
X18326000Y-40302184D01*
X18358703Y-40137772D01*
X18422853Y-39982900D01*
X18515985Y-39843519D01*
X18634519Y-39724985D01*
X18773900Y-39631853D01*
X18928772Y-39567703D01*
X19093184Y-39535000D01*
X19260816Y-39535000D01*
X19425228Y-39567703D01*
X19425228Y-39567703D01*
G37*
G36*
X25298695Y-38289634D02*
G01*
X25471096Y-38341932D01*
X25629984Y-38426859D01*
X25769250Y-38541152D01*
X25883543Y-38680418D01*
X25968470Y-38839306D01*
X26020768Y-39011707D01*
X26038426Y-39191001D01*
X26020768Y-39370295D01*
X25968470Y-39542696D01*
X25883543Y-39701584D01*
X25769250Y-39840850D01*
X25629984Y-39955143D01*
X25471096Y-40040070D01*
X25298695Y-40092368D01*
X25164332Y-40105601D01*
X24769670Y-40105601D01*
X24635307Y-40092368D01*
X24462906Y-40040070D01*
X24304018Y-39955143D01*
X24164752Y-39840850D01*
X24050459Y-39701584D01*
X23965532Y-39542696D01*
X23913234Y-39370295D01*
X23895576Y-39191001D01*
X23913234Y-39011707D01*
X23965532Y-38839306D01*
X24050459Y-38680418D01*
X24164752Y-38541152D01*
X24304018Y-38426859D01*
X24462906Y-38341932D01*
X24635307Y-38289634D01*
X24769670Y-38276401D01*
X25164332Y-38276401D01*
X25298695Y-38289634D01*
X25298695Y-38289634D01*
G37*
G36*
X2438695Y-38289634D02*
G01*
X2611096Y-38341932D01*
X2769984Y-38426859D01*
X2909250Y-38541152D01*
X3023543Y-38680418D01*
X3108470Y-38839306D01*
X3160768Y-39011707D01*
X3178426Y-39191001D01*
X3160768Y-39370295D01*
X3108470Y-39542696D01*
X3023543Y-39701584D01*
X2909250Y-39840850D01*
X2769984Y-39955143D01*
X2611096Y-40040070D01*
X2438695Y-40092368D01*
X2304332Y-40105601D01*
X1909670Y-40105601D01*
X1775307Y-40092368D01*
X1602906Y-40040070D01*
X1444018Y-39955143D01*
X1304752Y-39840850D01*
X1190459Y-39701584D01*
X1105532Y-39542696D01*
X1053234Y-39370295D01*
X1035576Y-39191001D01*
X1053234Y-39011707D01*
X1105532Y-38839306D01*
X1190459Y-38680418D01*
X1304752Y-38541152D01*
X1444018Y-38426859D01*
X1602906Y-38341932D01*
X1775307Y-38289634D01*
X1909670Y-38276401D01*
X2304332Y-38276401D01*
X2438695Y-38289634D01*
X2438695Y-38289634D01*
G37*
G36*
X25298695Y-35749634D02*
G01*
X25471096Y-35801932D01*
X25629984Y-35886859D01*
X25769250Y-36001152D01*
X25883543Y-36140418D01*
X25968470Y-36299306D01*
X26020768Y-36471707D01*
X26038426Y-36651001D01*
X26020768Y-36830295D01*
X25968470Y-37002696D01*
X25883543Y-37161584D01*
X25769250Y-37300850D01*
X25629984Y-37415143D01*
X25471096Y-37500070D01*
X25298695Y-37552368D01*
X25164332Y-37565601D01*
X24769670Y-37565601D01*
X24635307Y-37552368D01*
X24462906Y-37500070D01*
X24304018Y-37415143D01*
X24164752Y-37300850D01*
X24050459Y-37161584D01*
X23965532Y-37002696D01*
X23913234Y-36830295D01*
X23895576Y-36651001D01*
X23913234Y-36471707D01*
X23965532Y-36299306D01*
X24050459Y-36140418D01*
X24164752Y-36001152D01*
X24304018Y-35886859D01*
X24462906Y-35801932D01*
X24635307Y-35749634D01*
X24769670Y-35736401D01*
X25164332Y-35736401D01*
X25298695Y-35749634D01*
X25298695Y-35749634D01*
G37*
G36*
X2438695Y-35749634D02*
G01*
X2611096Y-35801932D01*
X2769984Y-35886859D01*
X2909250Y-36001152D01*
X3023543Y-36140418D01*
X3108470Y-36299306D01*
X3160768Y-36471707D01*
X3178426Y-36651001D01*
X3160768Y-36830295D01*
X3108470Y-37002696D01*
X3023543Y-37161584D01*
X2909250Y-37300850D01*
X2769984Y-37415143D01*
X2611096Y-37500070D01*
X2438695Y-37552368D01*
X2304332Y-37565601D01*
X1909670Y-37565601D01*
X1775307Y-37552368D01*
X1602906Y-37500070D01*
X1444018Y-37415143D01*
X1304752Y-37300850D01*
X1190459Y-37161584D01*
X1105532Y-37002696D01*
X1053234Y-36830295D01*
X1035576Y-36651001D01*
X1053234Y-36471707D01*
X1105532Y-36299306D01*
X1190459Y-36140418D01*
X1304752Y-36001152D01*
X1444018Y-35886859D01*
X1602906Y-35801932D01*
X1775307Y-35749634D01*
X1909670Y-35736401D01*
X2304332Y-35736401D01*
X2438695Y-35749634D01*
X2438695Y-35749634D01*
G37*
G36*
X20613823Y-35737313D02*
G01*
X20774242Y-35785976D01*
X20804095Y-35801933D01*
X20922078Y-35864996D01*
X21051659Y-35971341D01*
X21158004Y-36100922D01*
X21158005Y-36100924D01*
X21237024Y-36248758D01*
X21285687Y-36409177D01*
X21302117Y-36576000D01*
X21285687Y-36742823D01*
X21237024Y-36903242D01*
X21196477Y-36979100D01*
X21158004Y-37051078D01*
X21051659Y-37180659D01*
X20922078Y-37287004D01*
X20922076Y-37287005D01*
X20774242Y-37366024D01*
X20613823Y-37414687D01*
X20488804Y-37427000D01*
X20405196Y-37427000D01*
X20280177Y-37414687D01*
X20119758Y-37366024D01*
X19971924Y-37287005D01*
X19971922Y-37287004D01*
X19842341Y-37180659D01*
X19735996Y-37051078D01*
X19697523Y-36979100D01*
X19656976Y-36903242D01*
X19608313Y-36742823D01*
X19591883Y-36576000D01*
X19608313Y-36409177D01*
X19656976Y-36248758D01*
X19735995Y-36100924D01*
X19735996Y-36100922D01*
X19842341Y-35971341D01*
X19971922Y-35864996D01*
X20089905Y-35801933D01*
X20119758Y-35785976D01*
X20280177Y-35737313D01*
X20405196Y-35725000D01*
X20488804Y-35725000D01*
X20613823Y-35737313D01*
X20613823Y-35737313D01*
G37*
G36*
X13075228Y-35757703D02*
G01*
X13230100Y-35821853D01*
X13369481Y-35914985D01*
X13488015Y-36033519D01*
X13581147Y-36172900D01*
X13645297Y-36327772D01*
X13678000Y-36492184D01*
X13678000Y-36659816D01*
X13645297Y-36824228D01*
X13581147Y-36979100D01*
X13488015Y-37118481D01*
X13369481Y-37237015D01*
X13230100Y-37330147D01*
X13075228Y-37394297D01*
X12910816Y-37427000D01*
X12743184Y-37427000D01*
X12578772Y-37394297D01*
X12423900Y-37330147D01*
X12284519Y-37237015D01*
X12165985Y-37118481D01*
X12072853Y-36979100D01*
X12008703Y-36824228D01*
X11976000Y-36659816D01*
X11976000Y-36492184D01*
X12008703Y-36327772D01*
X12072853Y-36172900D01*
X12165985Y-36033519D01*
X12284519Y-35914985D01*
X12423900Y-35821853D01*
X12578772Y-35757703D01*
X12743184Y-35725000D01*
X12910816Y-35725000D01*
X13075228Y-35757703D01*
X13075228Y-35757703D01*
G37*
G36*
X25298695Y-33209634D02*
G01*
X25471096Y-33261932D01*
X25629984Y-33346859D01*
X25769250Y-33461152D01*
X25883543Y-33600418D01*
X25968470Y-33759306D01*
X26020768Y-33931707D01*
X26038426Y-34111001D01*
X26020768Y-34290295D01*
X25968470Y-34462696D01*
X25883543Y-34621584D01*
X25769250Y-34760850D01*
X25629984Y-34875143D01*
X25471096Y-34960070D01*
X25298695Y-35012368D01*
X25164332Y-35025601D01*
X24769670Y-35025601D01*
X24635307Y-35012368D01*
X24462906Y-34960070D01*
X24304018Y-34875143D01*
X24164752Y-34760850D01*
X24050459Y-34621584D01*
X23965532Y-34462696D01*
X23913234Y-34290295D01*
X23895576Y-34111001D01*
X23913234Y-33931707D01*
X23965532Y-33759306D01*
X24050459Y-33600418D01*
X24164752Y-33461152D01*
X24304018Y-33346859D01*
X24462906Y-33261932D01*
X24635307Y-33209634D01*
X24769670Y-33196401D01*
X25164332Y-33196401D01*
X25298695Y-33209634D01*
X25298695Y-33209634D01*
G37*
G36*
X2438695Y-33209634D02*
G01*
X2611096Y-33261932D01*
X2769984Y-33346859D01*
X2909250Y-33461152D01*
X3023543Y-33600418D01*
X3108470Y-33759306D01*
X3160768Y-33931707D01*
X3178426Y-34111001D01*
X3160768Y-34290295D01*
X3108470Y-34462696D01*
X3023543Y-34621584D01*
X2909250Y-34760850D01*
X2769984Y-34875143D01*
X2611096Y-34960070D01*
X2438695Y-35012368D01*
X2304332Y-35025601D01*
X1909670Y-35025601D01*
X1775307Y-35012368D01*
X1602906Y-34960070D01*
X1444018Y-34875143D01*
X1304752Y-34760850D01*
X1190459Y-34621584D01*
X1105532Y-34462696D01*
X1053234Y-34290295D01*
X1035576Y-34111001D01*
X1053234Y-33931707D01*
X1105532Y-33759306D01*
X1190459Y-33600418D01*
X1304752Y-33461152D01*
X1444018Y-33346859D01*
X1602906Y-33261932D01*
X1775307Y-33209634D01*
X1909670Y-33196401D01*
X2304332Y-33196401D01*
X2438695Y-33209634D01*
X2438695Y-33209634D01*
G37*
G36*
X7995228Y-31947703D02*
G01*
X8150100Y-32011853D01*
X8289481Y-32104985D01*
X8408015Y-32223519D01*
X8501147Y-32362900D01*
X8565297Y-32517772D01*
X8598000Y-32682184D01*
X8598000Y-32849816D01*
X8565297Y-33014228D01*
X8501147Y-33169100D01*
X8408015Y-33308481D01*
X8289481Y-33427015D01*
X8150100Y-33520147D01*
X7995228Y-33584297D01*
X7830816Y-33617000D01*
X7663184Y-33617000D01*
X7498772Y-33584297D01*
X7343900Y-33520147D01*
X7204519Y-33427015D01*
X7085985Y-33308481D01*
X6992853Y-33169100D01*
X6928703Y-33014228D01*
X6896000Y-32849816D01*
X6896000Y-32682184D01*
X6928703Y-32517772D01*
X6992853Y-32362900D01*
X7085985Y-32223519D01*
X7204519Y-32104985D01*
X7343900Y-32011853D01*
X7498772Y-31947703D01*
X7663184Y-31915000D01*
X7830816Y-31915000D01*
X7995228Y-31947703D01*
X7995228Y-31947703D01*
G37*
G36*
X15533823Y-31927313D02*
G01*
X15694242Y-31975976D01*
X15761361Y-32011852D01*
X15842078Y-32054996D01*
X15971659Y-32161341D01*
X16078004Y-32290922D01*
X16078005Y-32290924D01*
X16157024Y-32438758D01*
X16205687Y-32599177D01*
X16222117Y-32766000D01*
X16205687Y-32932823D01*
X16157024Y-33093242D01*
X16116477Y-33169100D01*
X16078004Y-33241078D01*
X15971659Y-33370659D01*
X15842078Y-33477004D01*
X15842076Y-33477005D01*
X15694242Y-33556024D01*
X15533823Y-33604687D01*
X15408804Y-33617000D01*
X15325196Y-33617000D01*
X15200177Y-33604687D01*
X15039758Y-33556024D01*
X14891924Y-33477005D01*
X14891922Y-33477004D01*
X14762341Y-33370659D01*
X14655996Y-33241078D01*
X14617523Y-33169100D01*
X14576976Y-33093242D01*
X14528313Y-32932823D01*
X14511883Y-32766000D01*
X14528313Y-32599177D01*
X14576976Y-32438758D01*
X14655995Y-32290924D01*
X14655996Y-32290922D01*
X14762341Y-32161341D01*
X14891922Y-32054996D01*
X14972639Y-32011852D01*
X15039758Y-31975976D01*
X15200177Y-31927313D01*
X15325196Y-31915000D01*
X15408804Y-31915000D01*
X15533823Y-31927313D01*
X15533823Y-31927313D01*
G37*
G36*
X25298695Y-30669634D02*
G01*
X25471096Y-30721932D01*
X25629984Y-30806859D01*
X25769250Y-30921152D01*
X25883543Y-31060418D01*
X25968470Y-31219306D01*
X26020768Y-31391707D01*
X26038426Y-31571001D01*
X26020768Y-31750295D01*
X25968470Y-31922696D01*
X25883543Y-32081584D01*
X25769250Y-32220850D01*
X25629984Y-32335143D01*
X25471096Y-32420070D01*
X25298695Y-32472368D01*
X25164332Y-32485601D01*
X24769670Y-32485601D01*
X24635307Y-32472368D01*
X24462906Y-32420070D01*
X24304018Y-32335143D01*
X24164752Y-32220850D01*
X24050459Y-32081584D01*
X23965532Y-31922696D01*
X23913234Y-31750295D01*
X23895576Y-31571001D01*
X23913234Y-31391707D01*
X23965532Y-31219306D01*
X24050459Y-31060418D01*
X24164752Y-30921152D01*
X24304018Y-30806859D01*
X24462906Y-30721932D01*
X24635307Y-30669634D01*
X24769670Y-30656401D01*
X25164332Y-30656401D01*
X25298695Y-30669634D01*
X25298695Y-30669634D01*
G37*
G36*
X2438695Y-30669634D02*
G01*
X2611096Y-30721932D01*
X2769984Y-30806859D01*
X2909250Y-30921152D01*
X3023543Y-31060418D01*
X3108470Y-31219306D01*
X3160768Y-31391707D01*
X3178426Y-31571001D01*
X3160768Y-31750295D01*
X3108470Y-31922696D01*
X3023543Y-32081584D01*
X2909250Y-32220850D01*
X2769984Y-32335143D01*
X2611096Y-32420070D01*
X2438695Y-32472368D01*
X2304332Y-32485601D01*
X1909670Y-32485601D01*
X1775307Y-32472368D01*
X1602906Y-32420070D01*
X1444018Y-32335143D01*
X1304752Y-32220850D01*
X1190459Y-32081584D01*
X1105532Y-31922696D01*
X1053234Y-31750295D01*
X1035576Y-31571001D01*
X1053234Y-31391707D01*
X1105532Y-31219306D01*
X1190459Y-31060418D01*
X1304752Y-30921152D01*
X1444018Y-30806859D01*
X1602906Y-30721932D01*
X1775307Y-30669634D01*
X1909670Y-30656401D01*
X2304332Y-30656401D01*
X2438695Y-30669634D01*
X2438695Y-30669634D01*
G37*
G36*
X2438695Y-28129634D02*
G01*
X2611096Y-28181932D01*
X2769984Y-28266859D01*
X2909250Y-28381152D01*
X3023543Y-28520418D01*
X3108470Y-28679306D01*
X3160768Y-28851707D01*
X3178426Y-29031001D01*
X3160768Y-29210295D01*
X3108470Y-29382696D01*
X3023543Y-29541584D01*
X2909250Y-29680850D01*
X2769984Y-29795143D01*
X2611096Y-29880070D01*
X2438695Y-29932368D01*
X2304332Y-29945601D01*
X1909670Y-29945601D01*
X1775307Y-29932368D01*
X1602906Y-29880070D01*
X1444018Y-29795143D01*
X1304752Y-29680850D01*
X1190459Y-29541584D01*
X1105532Y-29382696D01*
X1053234Y-29210295D01*
X1035576Y-29031001D01*
X1053234Y-28851707D01*
X1105532Y-28679306D01*
X1190459Y-28520418D01*
X1304752Y-28381152D01*
X1444018Y-28266859D01*
X1602906Y-28181932D01*
X1775307Y-28129634D01*
X1909670Y-28116401D01*
X2304332Y-28116401D01*
X2438695Y-28129634D01*
X2438695Y-28129634D01*
G37*
G36*
X25298695Y-28129634D02*
G01*
X25471096Y-28181932D01*
X25629984Y-28266859D01*
X25769250Y-28381152D01*
X25883543Y-28520418D01*
X25968470Y-28679306D01*
X26020768Y-28851707D01*
X26038426Y-29031001D01*
X26020768Y-29210295D01*
X25968470Y-29382696D01*
X25883543Y-29541584D01*
X25769250Y-29680850D01*
X25629984Y-29795143D01*
X25471096Y-29880070D01*
X25298695Y-29932368D01*
X25164332Y-29945601D01*
X24769670Y-29945601D01*
X24635307Y-29932368D01*
X24462906Y-29880070D01*
X24304018Y-29795143D01*
X24164752Y-29680850D01*
X24050459Y-29541584D01*
X23965532Y-29382696D01*
X23913234Y-29210295D01*
X23895576Y-29031001D01*
X23913234Y-28851707D01*
X23965532Y-28679306D01*
X24050459Y-28520418D01*
X24164752Y-28381152D01*
X24304018Y-28266859D01*
X24462906Y-28181932D01*
X24635307Y-28129634D01*
X24769670Y-28116401D01*
X25164332Y-28116401D01*
X25298695Y-28129634D01*
X25298695Y-28129634D01*
G37*
G36*
X2438695Y-25589634D02*
G01*
X2611096Y-25641932D01*
X2769984Y-25726859D01*
X2909250Y-25841152D01*
X3023543Y-25980418D01*
X3108470Y-26139306D01*
X3160768Y-26311707D01*
X3178426Y-26491001D01*
X3160768Y-26670295D01*
X3108470Y-26842696D01*
X3023543Y-27001584D01*
X2909250Y-27140850D01*
X2769984Y-27255143D01*
X2611096Y-27340070D01*
X2438695Y-27392368D01*
X2304332Y-27405601D01*
X1909670Y-27405601D01*
X1775307Y-27392368D01*
X1602906Y-27340070D01*
X1444018Y-27255143D01*
X1304752Y-27140850D01*
X1190459Y-27001584D01*
X1105532Y-26842696D01*
X1053234Y-26670295D01*
X1035576Y-26491001D01*
X1053234Y-26311707D01*
X1105532Y-26139306D01*
X1190459Y-25980418D01*
X1304752Y-25841152D01*
X1444018Y-25726859D01*
X1602906Y-25641932D01*
X1775307Y-25589634D01*
X1909670Y-25576401D01*
X2304332Y-25576401D01*
X2438695Y-25589634D01*
X2438695Y-25589634D01*
G37*
G36*
X25298695Y-25589634D02*
G01*
X25471096Y-25641932D01*
X25629984Y-25726859D01*
X25769250Y-25841152D01*
X25883543Y-25980418D01*
X25968470Y-26139306D01*
X26020768Y-26311707D01*
X26038426Y-26491001D01*
X26020768Y-26670295D01*
X25968470Y-26842696D01*
X25883543Y-27001584D01*
X25769250Y-27140850D01*
X25629984Y-27255143D01*
X25471096Y-27340070D01*
X25298695Y-27392368D01*
X25164332Y-27405601D01*
X24769670Y-27405601D01*
X24635307Y-27392368D01*
X24462906Y-27340070D01*
X24304018Y-27255143D01*
X24164752Y-27140850D01*
X24050459Y-27001584D01*
X23965532Y-26842696D01*
X23913234Y-26670295D01*
X23895576Y-26491001D01*
X23913234Y-26311707D01*
X23965532Y-26139306D01*
X24050459Y-25980418D01*
X24164752Y-25841152D01*
X24304018Y-25726859D01*
X24462906Y-25641932D01*
X24635307Y-25589634D01*
X24769670Y-25576401D01*
X25164332Y-25576401D01*
X25298695Y-25589634D01*
X25298695Y-25589634D01*
G37*
G36*
X2438695Y-23049634D02*
G01*
X2611096Y-23101932D01*
X2769984Y-23186859D01*
X2909250Y-23301152D01*
X3023543Y-23440418D01*
X3108470Y-23599306D01*
X3160768Y-23771707D01*
X3178426Y-23951001D01*
X3160768Y-24130295D01*
X3108470Y-24302696D01*
X3023543Y-24461584D01*
X2909250Y-24600850D01*
X2769984Y-24715143D01*
X2611096Y-24800070D01*
X2438695Y-24852368D01*
X2304332Y-24865601D01*
X1909670Y-24865601D01*
X1775307Y-24852368D01*
X1602906Y-24800070D01*
X1444018Y-24715143D01*
X1304752Y-24600850D01*
X1190459Y-24461584D01*
X1105532Y-24302696D01*
X1053234Y-24130295D01*
X1035576Y-23951001D01*
X1053234Y-23771707D01*
X1105532Y-23599306D01*
X1190459Y-23440418D01*
X1304752Y-23301152D01*
X1444018Y-23186859D01*
X1602906Y-23101932D01*
X1775307Y-23049634D01*
X1909670Y-23036401D01*
X2304332Y-23036401D01*
X2438695Y-23049634D01*
X2438695Y-23049634D01*
G37*
G36*
X25298695Y-23049634D02*
G01*
X25471096Y-23101932D01*
X25629984Y-23186859D01*
X25769250Y-23301152D01*
X25883543Y-23440418D01*
X25968470Y-23599306D01*
X26020768Y-23771707D01*
X26038426Y-23951001D01*
X26020768Y-24130295D01*
X25968470Y-24302696D01*
X25883543Y-24461584D01*
X25769250Y-24600850D01*
X25629984Y-24715143D01*
X25471096Y-24800070D01*
X25298695Y-24852368D01*
X25164332Y-24865601D01*
X24769670Y-24865601D01*
X24635307Y-24852368D01*
X24462906Y-24800070D01*
X24304018Y-24715143D01*
X24164752Y-24600850D01*
X24050459Y-24461584D01*
X23965532Y-24302696D01*
X23913234Y-24130295D01*
X23895576Y-23951001D01*
X23913234Y-23771707D01*
X23965532Y-23599306D01*
X24050459Y-23440418D01*
X24164752Y-23301152D01*
X24304018Y-23186859D01*
X24462906Y-23101932D01*
X24635307Y-23049634D01*
X24769670Y-23036401D01*
X25164332Y-23036401D01*
X25298695Y-23049634D01*
X25298695Y-23049634D01*
G37*
G36*
X2438695Y-20509634D02*
G01*
X2611096Y-20561932D01*
X2769984Y-20646859D01*
X2909250Y-20761152D01*
X3023543Y-20900418D01*
X3108470Y-21059306D01*
X3160768Y-21231707D01*
X3178426Y-21411001D01*
X3160768Y-21590295D01*
X3108470Y-21762696D01*
X3023543Y-21921584D01*
X2909250Y-22060850D01*
X2769984Y-22175143D01*
X2611096Y-22260070D01*
X2438695Y-22312368D01*
X2304332Y-22325601D01*
X1909670Y-22325601D01*
X1775307Y-22312368D01*
X1602906Y-22260070D01*
X1444018Y-22175143D01*
X1304752Y-22060850D01*
X1190459Y-21921584D01*
X1105532Y-21762696D01*
X1053234Y-21590295D01*
X1035576Y-21411001D01*
X1053234Y-21231707D01*
X1105532Y-21059306D01*
X1190459Y-20900418D01*
X1304752Y-20761152D01*
X1444018Y-20646859D01*
X1602906Y-20561932D01*
X1775307Y-20509634D01*
X1909670Y-20496401D01*
X2304332Y-20496401D01*
X2438695Y-20509634D01*
X2438695Y-20509634D01*
G37*
G36*
X25298695Y-20509634D02*
G01*
X25471096Y-20561932D01*
X25629984Y-20646859D01*
X25769250Y-20761152D01*
X25883543Y-20900418D01*
X25968470Y-21059306D01*
X26020768Y-21231707D01*
X26038426Y-21411001D01*
X26020768Y-21590295D01*
X25968470Y-21762696D01*
X25883543Y-21921584D01*
X25769250Y-22060850D01*
X25629984Y-22175143D01*
X25471096Y-22260070D01*
X25298695Y-22312368D01*
X25164332Y-22325601D01*
X24769670Y-22325601D01*
X24635307Y-22312368D01*
X24462906Y-22260070D01*
X24304018Y-22175143D01*
X24164752Y-22060850D01*
X24050459Y-21921584D01*
X23965532Y-21762696D01*
X23913234Y-21590295D01*
X23895576Y-21411001D01*
X23913234Y-21231707D01*
X23965532Y-21059306D01*
X24050459Y-20900418D01*
X24164752Y-20761152D01*
X24304018Y-20646859D01*
X24462906Y-20561932D01*
X24635307Y-20509634D01*
X24769670Y-20496401D01*
X25164332Y-20496401D01*
X25298695Y-20509634D01*
X25298695Y-20509634D01*
G37*
G36*
X25298695Y-17969634D02*
G01*
X25471096Y-18021932D01*
X25629984Y-18106859D01*
X25769250Y-18221152D01*
X25883543Y-18360418D01*
X25968470Y-18519306D01*
X26020768Y-18691707D01*
X26038426Y-18871001D01*
X26020768Y-19050295D01*
X25968470Y-19222696D01*
X25883543Y-19381584D01*
X25769250Y-19520850D01*
X25629984Y-19635143D01*
X25471096Y-19720070D01*
X25298695Y-19772368D01*
X25164332Y-19785601D01*
X24769670Y-19785601D01*
X24635307Y-19772368D01*
X24462906Y-19720070D01*
X24304018Y-19635143D01*
X24164752Y-19520850D01*
X24050459Y-19381584D01*
X23965532Y-19222696D01*
X23913234Y-19050295D01*
X23895576Y-18871001D01*
X23913234Y-18691707D01*
X23965532Y-18519306D01*
X24050459Y-18360418D01*
X24164752Y-18221152D01*
X24304018Y-18106859D01*
X24462906Y-18021932D01*
X24635307Y-17969634D01*
X24769670Y-17956401D01*
X25164332Y-17956401D01*
X25298695Y-17969634D01*
X25298695Y-17969634D01*
G37*
G36*
X2438695Y-17969634D02*
G01*
X2611096Y-18021932D01*
X2769984Y-18106859D01*
X2909250Y-18221152D01*
X3023543Y-18360418D01*
X3108470Y-18519306D01*
X3160768Y-18691707D01*
X3178426Y-18871001D01*
X3160768Y-19050295D01*
X3108470Y-19222696D01*
X3023543Y-19381584D01*
X2909250Y-19520850D01*
X2769984Y-19635143D01*
X2611096Y-19720070D01*
X2438695Y-19772368D01*
X2304332Y-19785601D01*
X1909670Y-19785601D01*
X1775307Y-19772368D01*
X1602906Y-19720070D01*
X1444018Y-19635143D01*
X1304752Y-19520850D01*
X1190459Y-19381584D01*
X1105532Y-19222696D01*
X1053234Y-19050295D01*
X1035576Y-18871001D01*
X1053234Y-18691707D01*
X1105532Y-18519306D01*
X1190459Y-18360418D01*
X1304752Y-18221152D01*
X1444018Y-18106859D01*
X1602906Y-18021932D01*
X1775307Y-17969634D01*
X1909670Y-17956401D01*
X2304332Y-17956401D01*
X2438695Y-17969634D01*
X2438695Y-17969634D01*
G37*
G36*
X11338000Y-17307000D02*
G01*
X9236000Y-17307000D01*
X9236000Y-15205000D01*
X11338000Y-15205000D01*
X11338000Y-17307000D01*
X11338000Y-17307000D01*
G37*
G36*
X18093564Y-15245389D02*
G01*
X18284833Y-15324615D01*
X18284835Y-15324616D01*
X18456973Y-15439635D01*
X18603365Y-15586027D01*
X18666926Y-15681152D01*
X18718385Y-15758167D01*
X18797611Y-15949436D01*
X18838000Y-16152484D01*
X18838000Y-16359516D01*
X18797611Y-16562564D01*
X18747851Y-16682696D01*
X18718384Y-16753835D01*
X18603365Y-16925973D01*
X18456973Y-17072365D01*
X18284835Y-17187384D01*
X18284834Y-17187385D01*
X18284833Y-17187385D01*
X18093564Y-17266611D01*
X17890516Y-17307000D01*
X17683484Y-17307000D01*
X17480436Y-17266611D01*
X17289167Y-17187385D01*
X17289166Y-17187385D01*
X17289165Y-17187384D01*
X17117027Y-17072365D01*
X16970635Y-16925973D01*
X16855616Y-16753835D01*
X16826149Y-16682696D01*
X16776389Y-16562564D01*
X16736000Y-16359516D01*
X16736000Y-16152484D01*
X16776389Y-15949436D01*
X16855615Y-15758167D01*
X16907075Y-15681152D01*
X16970635Y-15586027D01*
X17117027Y-15439635D01*
X17289165Y-15324616D01*
X17289167Y-15324615D01*
X17480436Y-15245389D01*
X17683484Y-15205000D01*
X17890516Y-15205000D01*
X18093564Y-15245389D01*
X18093564Y-15245389D01*
G37*
G36*
X2438695Y-15429634D02*
G01*
X2611096Y-15481932D01*
X2769984Y-15566859D01*
X2909250Y-15681152D01*
X3023543Y-15820418D01*
X3108470Y-15979306D01*
X3160768Y-16151707D01*
X3178426Y-16331001D01*
X3160768Y-16510295D01*
X3108470Y-16682696D01*
X3023543Y-16841584D01*
X2909250Y-16980850D01*
X2769984Y-17095143D01*
X2611096Y-17180070D01*
X2438695Y-17232368D01*
X2304332Y-17245601D01*
X1909670Y-17245601D01*
X1775307Y-17232368D01*
X1602906Y-17180070D01*
X1444018Y-17095143D01*
X1304752Y-16980850D01*
X1190459Y-16841584D01*
X1105532Y-16682696D01*
X1053234Y-16510295D01*
X1035576Y-16331001D01*
X1053234Y-16151707D01*
X1105532Y-15979306D01*
X1190459Y-15820418D01*
X1304752Y-15681152D01*
X1444018Y-15566859D01*
X1602906Y-15481932D01*
X1775307Y-15429634D01*
X1909670Y-15416401D01*
X2304332Y-15416401D01*
X2438695Y-15429634D01*
X2438695Y-15429634D01*
G37*
G36*
X25298695Y-15429634D02*
G01*
X25471096Y-15481932D01*
X25629984Y-15566859D01*
X25769250Y-15681152D01*
X25883543Y-15820418D01*
X25968470Y-15979306D01*
X26020768Y-16151707D01*
X26038426Y-16331001D01*
X26020768Y-16510295D01*
X25968470Y-16682696D01*
X25883543Y-16841584D01*
X25769250Y-16980850D01*
X25629984Y-17095143D01*
X25471096Y-17180070D01*
X25298695Y-17232368D01*
X25164332Y-17245601D01*
X24769670Y-17245601D01*
X24635307Y-17232368D01*
X24462906Y-17180070D01*
X24304018Y-17095143D01*
X24164752Y-16980850D01*
X24050459Y-16841584D01*
X23965532Y-16682696D01*
X23913234Y-16510295D01*
X23895576Y-16331001D01*
X23913234Y-16151707D01*
X23965532Y-15979306D01*
X24050459Y-15820418D01*
X24164752Y-15681152D01*
X24304018Y-15566859D01*
X24462906Y-15481932D01*
X24635307Y-15429634D01*
X24769670Y-15416401D01*
X25164332Y-15416401D01*
X25298695Y-15429634D01*
X25298695Y-15429634D01*
G37*
G36*
X24482257Y-10472299D02*
G01*
X24588580Y-10493448D01*
X24889043Y-10617904D01*
X25159452Y-10798586D01*
X25389416Y-11028550D01*
X25570098Y-11298959D01*
X25694554Y-11599422D01*
X25758001Y-11918392D01*
X25758001Y-12243610D01*
X25694554Y-12562580D01*
X25570098Y-12863043D01*
X25389416Y-13133452D01*
X25159452Y-13363416D01*
X24889043Y-13544098D01*
X24588580Y-13668554D01*
X24482257Y-13689703D01*
X24269612Y-13732001D01*
X23944390Y-13732001D01*
X23731745Y-13689703D01*
X23625422Y-13668554D01*
X23324959Y-13544098D01*
X23054550Y-13363416D01*
X22824586Y-13133452D01*
X22643904Y-12863043D01*
X22519448Y-12562580D01*
X22456001Y-12243610D01*
X22456001Y-11918392D01*
X22519448Y-11599422D01*
X22643904Y-11298959D01*
X22824586Y-11028550D01*
X23054550Y-10798586D01*
X23324959Y-10617904D01*
X23625422Y-10493448D01*
X23731745Y-10472299D01*
X23944390Y-10430001D01*
X24269612Y-10430001D01*
X24482257Y-10472299D01*
X24482257Y-10472299D01*
G37*
G36*
X3232257Y-10472299D02*
G01*
X3338580Y-10493448D01*
X3639043Y-10617904D01*
X3909452Y-10798586D01*
X4139416Y-11028550D01*
X4320098Y-11298959D01*
X4444554Y-11599422D01*
X4508001Y-11918392D01*
X4508001Y-12243610D01*
X4444554Y-12562580D01*
X4320098Y-12863043D01*
X4139416Y-13133452D01*
X3909452Y-13363416D01*
X3639043Y-13544098D01*
X3338580Y-13668554D01*
X3232257Y-13689703D01*
X3019612Y-13732001D01*
X2694390Y-13732001D01*
X2481745Y-13689703D01*
X2375422Y-13668554D01*
X2074959Y-13544098D01*
X1804550Y-13363416D01*
X1574586Y-13133452D01*
X1393904Y-12863043D01*
X1269448Y-12562580D01*
X1206001Y-12243610D01*
X1206001Y-11918392D01*
X1269448Y-11599422D01*
X1393904Y-11298959D01*
X1574586Y-11028550D01*
X1804550Y-10798586D01*
X2074959Y-10617904D01*
X2375422Y-10493448D01*
X2481745Y-10472299D01*
X2694390Y-10430001D01*
X3019612Y-10430001D01*
X3232257Y-10472299D01*
X3232257Y-10472299D01*
G37*
G36*
X25284440Y-7158074D02*
G01*
X25475709Y-7237300D01*
X25475711Y-7237301D01*
X25647849Y-7352320D01*
X25794241Y-7498712D01*
X25909261Y-7670852D01*
X25988487Y-7862121D01*
X26028876Y-8065169D01*
X26028876Y-8272201D01*
X25988487Y-8475249D01*
X25909261Y-8666518D01*
X25909260Y-8666520D01*
X25794241Y-8838658D01*
X25647849Y-8985050D01*
X25475711Y-9100069D01*
X25475710Y-9100070D01*
X25475709Y-9100070D01*
X25284440Y-9179296D01*
X25081392Y-9219685D01*
X24874360Y-9219685D01*
X24671312Y-9179296D01*
X24480043Y-9100070D01*
X24480042Y-9100070D01*
X24480041Y-9100069D01*
X24307903Y-8985050D01*
X24161511Y-8838658D01*
X24046492Y-8666520D01*
X24046491Y-8666518D01*
X23967265Y-8475249D01*
X23926876Y-8272201D01*
X23926876Y-8065169D01*
X23967265Y-7862121D01*
X24046491Y-7670852D01*
X24161511Y-7498712D01*
X24307903Y-7352320D01*
X24480041Y-7237301D01*
X24480043Y-7237300D01*
X24671312Y-7158074D01*
X24874360Y-7117685D01*
X25081392Y-7117685D01*
X25284440Y-7158074D01*
X25284440Y-7158074D01*
G37*
G36*
X20784440Y-7158074D02*
G01*
X20975709Y-7237300D01*
X20975711Y-7237301D01*
X21147849Y-7352320D01*
X21294241Y-7498712D01*
X21409261Y-7670852D01*
X21488487Y-7862121D01*
X21528876Y-8065169D01*
X21528876Y-8272201D01*
X21488487Y-8475249D01*
X21409261Y-8666518D01*
X21409260Y-8666520D01*
X21294241Y-8838658D01*
X21147849Y-8985050D01*
X20975711Y-9100069D01*
X20975710Y-9100070D01*
X20975709Y-9100070D01*
X20784440Y-9179296D01*
X20581392Y-9219685D01*
X20374360Y-9219685D01*
X20171312Y-9179296D01*
X19980043Y-9100070D01*
X19980042Y-9100070D01*
X19980041Y-9100069D01*
X19807903Y-8985050D01*
X19661511Y-8838658D01*
X19546492Y-8666520D01*
X19546491Y-8666518D01*
X19467265Y-8475249D01*
X19426876Y-8272201D01*
X19426876Y-8065169D01*
X19467265Y-7862121D01*
X19546491Y-7670852D01*
X19661511Y-7498712D01*
X19807903Y-7352320D01*
X19980041Y-7237301D01*
X19980043Y-7237300D01*
X20171312Y-7158074D01*
X20374360Y-7117685D01*
X20581392Y-7117685D01*
X20784440Y-7158074D01*
X20784440Y-7158074D01*
G37*
G36*
X4906922Y-5951701D02*
G01*
X1804922Y-5951701D01*
X1804922Y-2849701D01*
X4906922Y-2849701D01*
X4906922Y-5951701D01*
X4906922Y-5951701D01*
G37*
G36*
X8738507Y-2879503D02*
G01*
X8888332Y-2909305D01*
X9170596Y-3026222D01*
X9424627Y-3195960D01*
X9640663Y-3411996D01*
X9810401Y-3666027D01*
X9927318Y-3948291D01*
X9986922Y-4247941D01*
X9986922Y-4553461D01*
X9927318Y-4853111D01*
X9810401Y-5135375D01*
X9640663Y-5389406D01*
X9424627Y-5605442D01*
X9170596Y-5775180D01*
X8888332Y-5892097D01*
X8738507Y-5921899D01*
X8588683Y-5951701D01*
X8283161Y-5951701D01*
X8133337Y-5921899D01*
X7983512Y-5892097D01*
X7701248Y-5775180D01*
X7447217Y-5605442D01*
X7231181Y-5389406D01*
X7061443Y-5135375D01*
X6944526Y-4853111D01*
X6884922Y-4553461D01*
X6884922Y-4247941D01*
X6944526Y-3948291D01*
X7061443Y-3666027D01*
X7231181Y-3411996D01*
X7447217Y-3195960D01*
X7701248Y-3026222D01*
X7983512Y-2909305D01*
X8133337Y-2879503D01*
X8283161Y-2849701D01*
X8588683Y-2849701D01*
X8738507Y-2879503D01*
X8738507Y-2879503D01*
G37*
G36*
X13818507Y-2879503D02*
G01*
X13968332Y-2909305D01*
X14250596Y-3026222D01*
X14504627Y-3195960D01*
X14720663Y-3411996D01*
X14890401Y-3666027D01*
X15007318Y-3948291D01*
X15066922Y-4247941D01*
X15066922Y-4553461D01*
X15007318Y-4853111D01*
X14890401Y-5135375D01*
X14720663Y-5389406D01*
X14504627Y-5605442D01*
X14250596Y-5775180D01*
X13968332Y-5892097D01*
X13818507Y-5921899D01*
X13668683Y-5951701D01*
X13363161Y-5951701D01*
X13213337Y-5921899D01*
X13063512Y-5892097D01*
X12781248Y-5775180D01*
X12527217Y-5605442D01*
X12311181Y-5389406D01*
X12141443Y-5135375D01*
X12024526Y-4853111D01*
X11964922Y-4553461D01*
X11964922Y-4247941D01*
X12024526Y-3948291D01*
X12141443Y-3666027D01*
X12311181Y-3411996D01*
X12527217Y-3195960D01*
X12781248Y-3026222D01*
X13063512Y-2909305D01*
X13213337Y-2879503D01*
X13363161Y-2849701D01*
X13668683Y-2849701D01*
X13818507Y-2879503D01*
X13818507Y-2879503D01*
G37*
G36*
X25284440Y-658074D02*
G01*
X25475709Y-737300D01*
X25475711Y-737301D01*
X25647849Y-852320D01*
X25794241Y-998712D01*
X25909261Y-1170852D01*
X25988487Y-1362121D01*
X26028876Y-1565169D01*
X26028876Y-1772201D01*
X25988487Y-1975249D01*
X25909261Y-2166518D01*
X25909260Y-2166520D01*
X25794241Y-2338658D01*
X25647849Y-2485050D01*
X25475711Y-2600069D01*
X25475710Y-2600070D01*
X25475709Y-2600070D01*
X25284440Y-2679296D01*
X25081392Y-2719685D01*
X24874360Y-2719685D01*
X24671312Y-2679296D01*
X24480043Y-2600070D01*
X24480042Y-2600070D01*
X24480041Y-2600069D01*
X24307903Y-2485050D01*
X24161511Y-2338658D01*
X24046492Y-2166520D01*
X24046491Y-2166518D01*
X23967265Y-1975249D01*
X23926876Y-1772201D01*
X23926876Y-1565169D01*
X23967265Y-1362121D01*
X24046491Y-1170852D01*
X24161511Y-998712D01*
X24307903Y-852320D01*
X24480041Y-737301D01*
X24480043Y-737300D01*
X24671312Y-658074D01*
X24874360Y-617685D01*
X25081392Y-617685D01*
X25284440Y-658074D01*
X25284440Y-658074D01*
G37*
G36*
X20784440Y-658074D02*
G01*
X20975709Y-737300D01*
X20975711Y-737301D01*
X21147849Y-852320D01*
X21294241Y-998712D01*
X21409261Y-1170852D01*
X21488487Y-1362121D01*
X21528876Y-1565169D01*
X21528876Y-1772201D01*
X21488487Y-1975249D01*
X21409261Y-2166518D01*
X21409260Y-2166520D01*
X21294241Y-2338658D01*
X21147849Y-2485050D01*
X20975711Y-2600069D01*
X20975710Y-2600070D01*
X20975709Y-2600070D01*
X20784440Y-2679296D01*
X20581392Y-2719685D01*
X20374360Y-2719685D01*
X20171312Y-2679296D01*
X19980043Y-2600070D01*
X19980042Y-2600070D01*
X19980041Y-2600069D01*
X19807903Y-2485050D01*
X19661511Y-2338658D01*
X19546492Y-2166520D01*
X19546491Y-2166518D01*
X19467265Y-1975249D01*
X19426876Y-1772201D01*
X19426876Y-1565169D01*
X19467265Y-1362121D01*
X19546491Y-1170852D01*
X19661511Y-998712D01*
X19807903Y-852320D01*
X19980041Y-737301D01*
X19980043Y-737300D01*
X20171312Y-658074D01*
X20374360Y-617685D01*
X20581392Y-617685D01*
X20784440Y-658074D01*
X20784440Y-658074D01*
G37*
M02*
