G04 #@! TF.GenerationSoftware,KiCad,Pcbnew,(5.1.4-0-10_14)*
G04 #@! TF.CreationDate,2020-02-21T17:32:28+01:00*
G04 #@! TF.ProjectId,mood_lamp,6d6f6f64-5f6c-4616-9d70-2e6b69636164,rev?*
G04 #@! TF.SameCoordinates,PX2436c08PY18772f0*
G04 #@! TF.FileFunction,Copper,L2,Bot*
G04 #@! TF.FilePolarity,Positive*
%FSLAX46Y46*%
G04 Gerber Fmt 4.6, Leading zero omitted, Abs format (unit mm)*
G04 Created by KiCad (PCBNEW (5.1.4-0-10_14)) date 2020-02-21 17:32:28*
%MOMM*%
%LPD*%
G04 APERTURE LIST*
%ADD10O,2.032000X1.727200*%
%ADD11R,2.000000X2.000000*%
%ADD12C,2.000000*%
%ADD13R,3.000000X3.000000*%
%ADD14C,3.000000*%
%ADD15C,1.600000*%
%ADD16O,1.600000X1.600000*%
%ADD17O,1.050000X1.500000*%
%ADD18R,1.050000X1.500000*%
%ADD19C,2.000000*%
%ADD20C,0.450000*%
%ADD21C,0.254000*%
G04 APERTURE END LIST*
D10*
X2107001Y-16331001D03*
X2107001Y-18871001D03*
X2107001Y-21411001D03*
X2107001Y-23951001D03*
X2107001Y-26491001D03*
X2107001Y-29031001D03*
X2107001Y-31571001D03*
X2107001Y-34111001D03*
X2107001Y-36651001D03*
X2107001Y-39191001D03*
X2107001Y-41731001D03*
X2107001Y-44271001D03*
X2107001Y-46811001D03*
X2107001Y-49351001D03*
X2107001Y-51891001D03*
X24967001Y-16331001D03*
X24967001Y-46811001D03*
X24967001Y-49351001D03*
X24967001Y-44271001D03*
X24967001Y-29031001D03*
X24967001Y-26491001D03*
X24967001Y-31571001D03*
X24967001Y-51891001D03*
X24967001Y-36651001D03*
X24967001Y-34111001D03*
X24967001Y-39191001D03*
X24967001Y-41731001D03*
X24967001Y-21411001D03*
X24967001Y-23951001D03*
X24967001Y-18871001D03*
D11*
X10287000Y-16256000D03*
D12*
X17787000Y-16256000D03*
D13*
X3355922Y-4400701D03*
D14*
X8435922Y-4400701D03*
X13515922Y-4400701D03*
D15*
X12827000Y-36576000D03*
D16*
X20447000Y-36576000D03*
X15367000Y-32766000D03*
D15*
X7747000Y-32766000D03*
X19177000Y-40386000D03*
D16*
X19177000Y-48006000D03*
D12*
X20477876Y-1668685D03*
X24977876Y-1668685D03*
X20477876Y-8168685D03*
X24977876Y-8168685D03*
D17*
X11557000Y-41656000D03*
X10287000Y-41656000D03*
D18*
X12827000Y-41656000D03*
D19*
X2107001Y-51891001D02*
X6401999Y-51891001D01*
X7747000Y-50546000D02*
X7747000Y-32766000D01*
X6401999Y-51891001D02*
X7747000Y-50546000D01*
X7747000Y-18796000D02*
X10287000Y-16256000D01*
X7747000Y-32766000D02*
X7747000Y-18796000D01*
X3355922Y-7900701D02*
X3355922Y-4400701D01*
X6631221Y-11176000D02*
X3355922Y-7900701D01*
X7747000Y-11176000D02*
X6631221Y-11176000D01*
X9017000Y-16256000D02*
X7747000Y-14986000D01*
X10287000Y-16256000D02*
X9017000Y-16256000D01*
X7747000Y-14986000D02*
X7747000Y-11176000D01*
X7747000Y-18796000D02*
X7747000Y-14986000D01*
D20*
X20477876Y-1668685D02*
X20477876Y-8168685D01*
X17787000Y-16256000D02*
X17787000Y-13836000D01*
X20477876Y-11145124D02*
X20477876Y-8168685D01*
X17787000Y-13836000D02*
X20477876Y-11145124D01*
X13515922Y-4400701D02*
X13515922Y-6784922D01*
X14899685Y-8168685D02*
X20477876Y-8168685D01*
X13515922Y-6784922D02*
X14899685Y-8168685D01*
X24967001Y-31571001D02*
X21792001Y-31571001D01*
X17787000Y-27566000D02*
X17787000Y-16256000D01*
X21792001Y-31571001D02*
X17787000Y-27566000D01*
X8435922Y-4400701D02*
X8435922Y-6784922D01*
X8435922Y-6784922D02*
X12827000Y-11176000D01*
X12827000Y-11176000D02*
X14097000Y-11176000D01*
X14097000Y-11176000D02*
X14097000Y-27686000D01*
X14097000Y-27686000D02*
X17207747Y-30796747D01*
X17207747Y-38416747D02*
X19177000Y-40386000D01*
X17207747Y-30796747D02*
X17207747Y-38416747D01*
X12827000Y-36576000D02*
X11557000Y-37846000D01*
X11557000Y-37846000D02*
X11557000Y-41656000D01*
X24814601Y-44271001D02*
X24739600Y-44196000D01*
X24967001Y-44271001D02*
X24814601Y-44271001D01*
X24739600Y-44196000D02*
X24257000Y-44196000D01*
X24257000Y-44196000D02*
X22987000Y-42926000D01*
X22987000Y-42926000D02*
X22987000Y-37846000D01*
X22987000Y-37846000D02*
X21717000Y-36576000D01*
X21717000Y-36576000D02*
X20447000Y-36576000D01*
X12827000Y-41656000D02*
X14097000Y-41656000D01*
X14097000Y-41656000D02*
X15367000Y-42926000D01*
X15367000Y-42926000D02*
X15367000Y-46736000D01*
X15367000Y-46736000D02*
X16637000Y-48006000D01*
X16637000Y-48006000D02*
X19177000Y-48006000D01*
X14097000Y-41656000D02*
X14097000Y-40386000D01*
X14097000Y-40386000D02*
X15367000Y-39116000D01*
X15367000Y-39116000D02*
X15367000Y-32766000D01*
X24977876Y-8168685D02*
X23454315Y-8168685D01*
X22082000Y-9541000D02*
X22082000Y-22971000D01*
X23454315Y-8168685D02*
X22082000Y-9541000D01*
X23062001Y-23951001D02*
X24967001Y-23951001D01*
X22082000Y-22971000D02*
X23062001Y-23951001D01*
X24977876Y-3082898D02*
X24977876Y-8168685D01*
X24977876Y-1668685D02*
X24977876Y-3082898D01*
X23501001Y-51891001D02*
X22156000Y-50546000D01*
X24967001Y-51891001D02*
X23501001Y-51891001D01*
X22156000Y-50546000D02*
X11557000Y-50546000D01*
X10287000Y-49276000D02*
X10287000Y-41656000D01*
X11557000Y-50546000D02*
X10287000Y-49276000D01*
D21*
G36*
X19342461Y-712878D02*
G01*
X19078062Y-808641D01*
X18937172Y-1098256D01*
X18855492Y-1409793D01*
X18836158Y-1731280D01*
X18879915Y-2050360D01*
X18985081Y-2354773D01*
X19078062Y-2528729D01*
X19342463Y-2624493D01*
X20298271Y-1668685D01*
X20284129Y-1654543D01*
X20463734Y-1474938D01*
X20477876Y-1489080D01*
X20492019Y-1474938D01*
X20671624Y-1654543D01*
X20657481Y-1668685D01*
X21613289Y-2624493D01*
X21877690Y-2528729D01*
X22018580Y-2239114D01*
X22100260Y-1927577D01*
X22119594Y-1606090D01*
X22075837Y-1287010D01*
X21970671Y-982597D01*
X21877690Y-808641D01*
X21613291Y-712878D01*
X21666169Y-660000D01*
X23685460Y-660000D01*
X23528958Y-894222D01*
X23405708Y-1191773D01*
X23342876Y-1507652D01*
X23342876Y-1829718D01*
X23405708Y-2145597D01*
X23528958Y-2443148D01*
X23707889Y-2710937D01*
X23935624Y-2938672D01*
X24117876Y-3060449D01*
X24117877Y-6776921D01*
X23935624Y-6898698D01*
X23707889Y-7126433D01*
X23586112Y-7308685D01*
X23496553Y-7308685D01*
X23454314Y-7304525D01*
X23412075Y-7308685D01*
X23412069Y-7308685D01*
X23316853Y-7318063D01*
X23285724Y-7321129D01*
X23210265Y-7344020D01*
X23123615Y-7370304D01*
X22974213Y-7450161D01*
X22843261Y-7557631D01*
X22816327Y-7590450D01*
X22108006Y-8298771D01*
X22119594Y-8106090D01*
X22075837Y-7787010D01*
X21970671Y-7482597D01*
X21877690Y-7308641D01*
X21613289Y-7212877D01*
X20657481Y-8168685D01*
X20671624Y-8182828D01*
X20492019Y-8362433D01*
X20477876Y-8348290D01*
X19522068Y-9304098D01*
X19617832Y-9568499D01*
X19907447Y-9709389D01*
X20218984Y-9791069D01*
X20540471Y-9810403D01*
X20859551Y-9766646D01*
X21163964Y-9661480D01*
X21222000Y-9630459D01*
X21222001Y-22928751D01*
X21217840Y-22971000D01*
X21234444Y-23139589D01*
X21283620Y-23301700D01*
X21363477Y-23451102D01*
X21470947Y-23582054D01*
X21503760Y-23608983D01*
X22424017Y-24529241D01*
X22450947Y-24562055D01*
X22581899Y-24669525D01*
X22679260Y-24721565D01*
X22731300Y-24749382D01*
X22893411Y-24798557D01*
X23062001Y-24815162D01*
X23104247Y-24811001D01*
X23581731Y-24811001D01*
X23749804Y-25015798D01*
X23977995Y-25203070D01*
X24011541Y-25221001D01*
X23977995Y-25238932D01*
X23749804Y-25426204D01*
X23562532Y-25654395D01*
X23423376Y-25914737D01*
X23337685Y-26197224D01*
X23308750Y-26491001D01*
X23337685Y-26784778D01*
X23423376Y-27067265D01*
X23562532Y-27327607D01*
X23749804Y-27555798D01*
X23977995Y-27743070D01*
X24011541Y-27761001D01*
X23977995Y-27778932D01*
X23749804Y-27966204D01*
X23562532Y-28194395D01*
X23423376Y-28454737D01*
X23337685Y-28737224D01*
X23308750Y-29031001D01*
X23337685Y-29324778D01*
X23423376Y-29607265D01*
X23562532Y-29867607D01*
X23749804Y-30095798D01*
X23977995Y-30283070D01*
X24017948Y-30304425D01*
X23815272Y-30452515D01*
X23616268Y-30668966D01*
X23463315Y-30920082D01*
X23362292Y-31196212D01*
X23359643Y-31211975D01*
X23480784Y-31444001D01*
X24840001Y-31444001D01*
X24840001Y-31424001D01*
X25094001Y-31424001D01*
X25094001Y-31444001D01*
X25114001Y-31444001D01*
X25114001Y-31698001D01*
X25094001Y-31698001D01*
X25094001Y-31718001D01*
X24840001Y-31718001D01*
X24840001Y-31698001D01*
X23480784Y-31698001D01*
X23359643Y-31930027D01*
X23362292Y-31945790D01*
X23463315Y-32221920D01*
X23616268Y-32473036D01*
X23815272Y-32689487D01*
X24017948Y-32837577D01*
X23977995Y-32858932D01*
X23749804Y-33046204D01*
X23562532Y-33274395D01*
X23423376Y-33534737D01*
X23337685Y-33817224D01*
X23308750Y-34111001D01*
X23337685Y-34404778D01*
X23423376Y-34687265D01*
X23562532Y-34947607D01*
X23749804Y-35175798D01*
X23977995Y-35363070D01*
X24011541Y-35381001D01*
X23977995Y-35398932D01*
X23749804Y-35586204D01*
X23562532Y-35814395D01*
X23423376Y-36074737D01*
X23337685Y-36357224D01*
X23308750Y-36651001D01*
X23337685Y-36944778D01*
X23353223Y-36995999D01*
X22354988Y-35997765D01*
X22328054Y-35964946D01*
X22197102Y-35857476D01*
X22047700Y-35777619D01*
X21885589Y-35728444D01*
X21759246Y-35716000D01*
X21759239Y-35716000D01*
X21717000Y-35711840D01*
X21674761Y-35716000D01*
X21597595Y-35716000D01*
X21466608Y-35556392D01*
X21248101Y-35377068D01*
X20998808Y-35243818D01*
X20728309Y-35161764D01*
X20517492Y-35141000D01*
X20376508Y-35141000D01*
X20165691Y-35161764D01*
X19895192Y-35243818D01*
X19645899Y-35377068D01*
X19427392Y-35556392D01*
X19248068Y-35774899D01*
X19114818Y-36024192D01*
X19032764Y-36294691D01*
X19005057Y-36576000D01*
X19032764Y-36857309D01*
X19114818Y-37127808D01*
X19248068Y-37377101D01*
X19427392Y-37595608D01*
X19645899Y-37774932D01*
X19895192Y-37908182D01*
X20165691Y-37990236D01*
X20376508Y-38011000D01*
X20517492Y-38011000D01*
X20728309Y-37990236D01*
X20998808Y-37908182D01*
X21248101Y-37774932D01*
X21466608Y-37595608D01*
X21490848Y-37566071D01*
X22127001Y-38202225D01*
X22127000Y-42883761D01*
X22122840Y-42926000D01*
X22127000Y-42968239D01*
X22127000Y-42968245D01*
X22139444Y-43094588D01*
X22188619Y-43256699D01*
X22268476Y-43406101D01*
X22375946Y-43537054D01*
X22408765Y-43563988D01*
X23329833Y-44485057D01*
X23337685Y-44564778D01*
X23423376Y-44847265D01*
X23562532Y-45107607D01*
X23749804Y-45335798D01*
X23977995Y-45523070D01*
X24011541Y-45541001D01*
X23977995Y-45558932D01*
X23749804Y-45746204D01*
X23562532Y-45974395D01*
X23423376Y-46234737D01*
X23337685Y-46517224D01*
X23308750Y-46811001D01*
X23337685Y-47104778D01*
X23423376Y-47387265D01*
X23562532Y-47647607D01*
X23749804Y-47875798D01*
X23977995Y-48063070D01*
X24011541Y-48081001D01*
X23977995Y-48098932D01*
X23749804Y-48286204D01*
X23562532Y-48514395D01*
X23423376Y-48774737D01*
X23337685Y-49057224D01*
X23308750Y-49351001D01*
X23337685Y-49644778D01*
X23423376Y-49927265D01*
X23562532Y-50187607D01*
X23749804Y-50415798D01*
X23977995Y-50603070D01*
X24011541Y-50621001D01*
X23977995Y-50638932D01*
X23749804Y-50826204D01*
X23705911Y-50879687D01*
X22793988Y-49967765D01*
X22767054Y-49934946D01*
X22636102Y-49827476D01*
X22486700Y-49747619D01*
X22324589Y-49698444D01*
X22198246Y-49686000D01*
X22198239Y-49686000D01*
X22156000Y-49681840D01*
X22113761Y-49686000D01*
X11913224Y-49686000D01*
X11147000Y-48919777D01*
X11147000Y-42968824D01*
X11329600Y-43024215D01*
X11557000Y-43046612D01*
X11784399Y-43024215D01*
X11993098Y-42960907D01*
X12057820Y-42995502D01*
X12177518Y-43031812D01*
X12302000Y-43044072D01*
X13352000Y-43044072D01*
X13476482Y-43031812D01*
X13596180Y-42995502D01*
X13706494Y-42936537D01*
X13803185Y-42857185D01*
X13882537Y-42760494D01*
X13918322Y-42693546D01*
X14507000Y-43282224D01*
X14507001Y-46693751D01*
X14502840Y-46736000D01*
X14519444Y-46904589D01*
X14544259Y-46986392D01*
X14568620Y-47066700D01*
X14648477Y-47216102D01*
X14755947Y-47347054D01*
X14788760Y-47373983D01*
X15999017Y-48584240D01*
X16025946Y-48617054D01*
X16156898Y-48724524D01*
X16306300Y-48804381D01*
X16419235Y-48838639D01*
X16468410Y-48853556D01*
X16485558Y-48855245D01*
X16594754Y-48866000D01*
X16594760Y-48866000D01*
X16636999Y-48870160D01*
X16679238Y-48866000D01*
X18026405Y-48866000D01*
X18157392Y-49025608D01*
X18375899Y-49204932D01*
X18625192Y-49338182D01*
X18895691Y-49420236D01*
X19106508Y-49441000D01*
X19247492Y-49441000D01*
X19458309Y-49420236D01*
X19728808Y-49338182D01*
X19978101Y-49204932D01*
X20196608Y-49025608D01*
X20375932Y-48807101D01*
X20509182Y-48557808D01*
X20591236Y-48287309D01*
X20618943Y-48006000D01*
X20591236Y-47724691D01*
X20509182Y-47454192D01*
X20375932Y-47204899D01*
X20196608Y-46986392D01*
X19978101Y-46807068D01*
X19728808Y-46673818D01*
X19458309Y-46591764D01*
X19247492Y-46571000D01*
X19106508Y-46571000D01*
X18895691Y-46591764D01*
X18625192Y-46673818D01*
X18375899Y-46807068D01*
X18157392Y-46986392D01*
X18026405Y-47146000D01*
X16993224Y-47146000D01*
X16227000Y-46379777D01*
X16227000Y-42968238D01*
X16231160Y-42925999D01*
X16227000Y-42883760D01*
X16227000Y-42883754D01*
X16214556Y-42757411D01*
X16165381Y-42595300D01*
X16085524Y-42445898D01*
X15978054Y-42314946D01*
X15945240Y-42288016D01*
X14957000Y-41299777D01*
X14957000Y-40742223D01*
X15945242Y-39753982D01*
X15978054Y-39727054D01*
X16085524Y-39596102D01*
X16165381Y-39446700D01*
X16214556Y-39284589D01*
X16227000Y-39158246D01*
X16227000Y-39158240D01*
X16231160Y-39116001D01*
X16227000Y-39073762D01*
X16227000Y-33916595D01*
X16347747Y-33817500D01*
X16347748Y-38374498D01*
X16343587Y-38416747D01*
X16360191Y-38585336D01*
X16398056Y-38710160D01*
X16409367Y-38747447D01*
X16489224Y-38896849D01*
X16596694Y-39027801D01*
X16629507Y-39054730D01*
X17754849Y-40180072D01*
X17742000Y-40244665D01*
X17742000Y-40527335D01*
X17797147Y-40804574D01*
X17905320Y-41065727D01*
X18062363Y-41300759D01*
X18262241Y-41500637D01*
X18497273Y-41657680D01*
X18758426Y-41765853D01*
X19035665Y-41821000D01*
X19318335Y-41821000D01*
X19595574Y-41765853D01*
X19856727Y-41657680D01*
X20091759Y-41500637D01*
X20291637Y-41300759D01*
X20448680Y-41065727D01*
X20556853Y-40804574D01*
X20612000Y-40527335D01*
X20612000Y-40244665D01*
X20556853Y-39967426D01*
X20448680Y-39706273D01*
X20291637Y-39471241D01*
X20091759Y-39271363D01*
X19856727Y-39114320D01*
X19595574Y-39006147D01*
X19318335Y-38951000D01*
X19035665Y-38951000D01*
X18971072Y-38963849D01*
X18067747Y-38060524D01*
X18067747Y-30838993D01*
X18071908Y-30796747D01*
X18055303Y-30628157D01*
X18006128Y-30466046D01*
X17978311Y-30414006D01*
X17926271Y-30316645D01*
X17818801Y-30185693D01*
X17785989Y-30158765D01*
X14957000Y-27329777D01*
X14957000Y-17391413D01*
X16831192Y-17391413D01*
X16926956Y-17655814D01*
X17216571Y-17796704D01*
X17528108Y-17878384D01*
X17849595Y-17897718D01*
X18168675Y-17853961D01*
X18473088Y-17748795D01*
X18647044Y-17655814D01*
X18742808Y-17391413D01*
X17787000Y-16435605D01*
X16831192Y-17391413D01*
X14957000Y-17391413D01*
X14957000Y-16318595D01*
X16145282Y-16318595D01*
X16189039Y-16637675D01*
X16294205Y-16942088D01*
X16387186Y-17116044D01*
X16651587Y-17211808D01*
X17607395Y-16256000D01*
X17966605Y-16256000D01*
X18922413Y-17211808D01*
X19186814Y-17116044D01*
X19327704Y-16826429D01*
X19409384Y-16514892D01*
X19428718Y-16193405D01*
X19384961Y-15874325D01*
X19279795Y-15569912D01*
X19186814Y-15395956D01*
X18922413Y-15300192D01*
X17966605Y-16256000D01*
X17607395Y-16256000D01*
X16651587Y-15300192D01*
X16387186Y-15395956D01*
X16246296Y-15685571D01*
X16164616Y-15997108D01*
X16145282Y-16318595D01*
X14957000Y-16318595D01*
X14957000Y-15120587D01*
X16831192Y-15120587D01*
X17787000Y-16076395D01*
X18742808Y-15120587D01*
X18647044Y-14856186D01*
X18357429Y-14715296D01*
X18045892Y-14633616D01*
X17724405Y-14614282D01*
X17405325Y-14658039D01*
X17100912Y-14763205D01*
X16926956Y-14856186D01*
X16831192Y-15120587D01*
X14957000Y-15120587D01*
X14957000Y-11218246D01*
X14961161Y-11176000D01*
X14944556Y-11007411D01*
X14895381Y-10845300D01*
X14815524Y-10695898D01*
X14708054Y-10564946D01*
X14577102Y-10457476D01*
X14427700Y-10377619D01*
X14265589Y-10328444D01*
X14139246Y-10316000D01*
X14097000Y-10311839D01*
X14054754Y-10316000D01*
X13183224Y-10316000D01*
X11098504Y-8231280D01*
X18836158Y-8231280D01*
X18879915Y-8550360D01*
X18985081Y-8854773D01*
X19078062Y-9028729D01*
X19342463Y-9124493D01*
X20298271Y-8168685D01*
X19342463Y-7212877D01*
X19078062Y-7308641D01*
X18937172Y-7598256D01*
X18855492Y-7909793D01*
X18836158Y-8231280D01*
X11098504Y-8231280D01*
X9900496Y-7033272D01*
X19522068Y-7033272D01*
X20477876Y-7989080D01*
X21433684Y-7033272D01*
X21337920Y-6768871D01*
X21048305Y-6627981D01*
X20736768Y-6546301D01*
X20415281Y-6526967D01*
X20096201Y-6570724D01*
X19791788Y-6675890D01*
X19617832Y-6768871D01*
X19522068Y-7033272D01*
X9900496Y-7033272D01*
X9295922Y-6428699D01*
X9295922Y-6355384D01*
X9447224Y-6292713D01*
X9796905Y-6059064D01*
X9963615Y-5892354D01*
X12203874Y-5892354D01*
X12359884Y-6207915D01*
X12734667Y-6398721D01*
X13139473Y-6512745D01*
X13558746Y-6545603D01*
X13976373Y-6496035D01*
X14376305Y-6365944D01*
X14671960Y-6207915D01*
X14827970Y-5892354D01*
X13515922Y-4580306D01*
X12203874Y-5892354D01*
X9963615Y-5892354D01*
X10094285Y-5761684D01*
X10327934Y-5412003D01*
X10488875Y-5023457D01*
X10570922Y-4610980D01*
X10570922Y-4443525D01*
X11371020Y-4443525D01*
X11420588Y-4861152D01*
X11550679Y-5261084D01*
X11708708Y-5556739D01*
X12024269Y-5712749D01*
X13336317Y-4400701D01*
X13695527Y-4400701D01*
X15007575Y-5712749D01*
X15323136Y-5556739D01*
X15513942Y-5181956D01*
X15627966Y-4777150D01*
X15660824Y-4357877D01*
X15611256Y-3940250D01*
X15481165Y-3540318D01*
X15323136Y-3244663D01*
X15007575Y-3088653D01*
X13695527Y-4400701D01*
X13336317Y-4400701D01*
X12024269Y-3088653D01*
X11708708Y-3244663D01*
X11517902Y-3619446D01*
X11403878Y-4024252D01*
X11371020Y-4443525D01*
X10570922Y-4443525D01*
X10570922Y-4190422D01*
X10488875Y-3777945D01*
X10327934Y-3389399D01*
X10094285Y-3039718D01*
X9963615Y-2909048D01*
X12203874Y-2909048D01*
X13515922Y-4221096D01*
X14827970Y-2909048D01*
X14776084Y-2804098D01*
X19522068Y-2804098D01*
X19617832Y-3068499D01*
X19907447Y-3209389D01*
X20218984Y-3291069D01*
X20540471Y-3310403D01*
X20859551Y-3266646D01*
X21163964Y-3161480D01*
X21337920Y-3068499D01*
X21433684Y-2804098D01*
X20477876Y-1848290D01*
X19522068Y-2804098D01*
X14776084Y-2804098D01*
X14671960Y-2593487D01*
X14297177Y-2402681D01*
X13892371Y-2288657D01*
X13473098Y-2255799D01*
X13055471Y-2305367D01*
X12655539Y-2435458D01*
X12359884Y-2593487D01*
X12203874Y-2909048D01*
X9963615Y-2909048D01*
X9796905Y-2742338D01*
X9447224Y-2508689D01*
X9058678Y-2347748D01*
X8646201Y-2265701D01*
X8225643Y-2265701D01*
X7813166Y-2347748D01*
X7424620Y-2508689D01*
X7074939Y-2742338D01*
X6777559Y-3039718D01*
X6543910Y-3389399D01*
X6382969Y-3777945D01*
X6300922Y-4190422D01*
X6300922Y-4610980D01*
X6382969Y-5023457D01*
X6543910Y-5412003D01*
X6777559Y-5761684D01*
X7074939Y-6059064D01*
X7424620Y-6292713D01*
X7575923Y-6355385D01*
X7575923Y-6742674D01*
X7571762Y-6784922D01*
X7588366Y-6953511D01*
X7637542Y-7115622D01*
X7717399Y-7265024D01*
X7824869Y-7395976D01*
X7857682Y-7422905D01*
X12189017Y-11754241D01*
X12215946Y-11787054D01*
X12346898Y-11894524D01*
X12496300Y-11974381D01*
X12609235Y-12008639D01*
X12658410Y-12023556D01*
X12675558Y-12025245D01*
X12784754Y-12036000D01*
X12784760Y-12036000D01*
X12826999Y-12040160D01*
X12869238Y-12036000D01*
X13237000Y-12036000D01*
X13237001Y-27643751D01*
X13232840Y-27686000D01*
X13249444Y-27854589D01*
X13298620Y-28016700D01*
X13378477Y-28166102D01*
X13401697Y-28194395D01*
X13485947Y-28297054D01*
X13518760Y-28323983D01*
X16347747Y-31152971D01*
X16347747Y-31714500D01*
X16168101Y-31567068D01*
X15918808Y-31433818D01*
X15648309Y-31351764D01*
X15437492Y-31331000D01*
X15296508Y-31331000D01*
X15085691Y-31351764D01*
X14815192Y-31433818D01*
X14565899Y-31567068D01*
X14347392Y-31746392D01*
X14168068Y-31964899D01*
X14034818Y-32214192D01*
X13952764Y-32484691D01*
X13925057Y-32766000D01*
X13952764Y-33047309D01*
X14034818Y-33317808D01*
X14168068Y-33567101D01*
X14347392Y-33785608D01*
X14507001Y-33916596D01*
X14507000Y-38759776D01*
X13518760Y-39748017D01*
X13485947Y-39774946D01*
X13459018Y-39807759D01*
X13459016Y-39807761D01*
X13378477Y-39905898D01*
X13298620Y-40055300D01*
X13249444Y-40217411D01*
X13244469Y-40267928D01*
X12417000Y-40267928D01*
X12417000Y-38202223D01*
X12621072Y-37998151D01*
X12685665Y-38011000D01*
X12968335Y-38011000D01*
X13245574Y-37955853D01*
X13506727Y-37847680D01*
X13741759Y-37690637D01*
X13941637Y-37490759D01*
X14098680Y-37255727D01*
X14206853Y-36994574D01*
X14262000Y-36717335D01*
X14262000Y-36434665D01*
X14206853Y-36157426D01*
X14098680Y-35896273D01*
X13941637Y-35661241D01*
X13741759Y-35461363D01*
X13506727Y-35304320D01*
X13245574Y-35196147D01*
X12968335Y-35141000D01*
X12685665Y-35141000D01*
X12408426Y-35196147D01*
X12147273Y-35304320D01*
X11912241Y-35461363D01*
X11712363Y-35661241D01*
X11555320Y-35896273D01*
X11447147Y-36157426D01*
X11392000Y-36434665D01*
X11392000Y-36717335D01*
X11404849Y-36781928D01*
X10978765Y-37208012D01*
X10945946Y-37234946D01*
X10838476Y-37365899D01*
X10758619Y-37515301D01*
X10747309Y-37552587D01*
X10709445Y-37677410D01*
X10709444Y-37677412D01*
X10697000Y-37803755D01*
X10697000Y-37803761D01*
X10692840Y-37846000D01*
X10697000Y-37888239D01*
X10697001Y-40343176D01*
X10514400Y-40287785D01*
X10287000Y-40265388D01*
X10059601Y-40287785D01*
X9840941Y-40354115D01*
X9639422Y-40461829D01*
X9462789Y-40606788D01*
X9382000Y-40705230D01*
X9382000Y-19473238D01*
X10961167Y-17894072D01*
X11287000Y-17894072D01*
X11411482Y-17881812D01*
X11531180Y-17845502D01*
X11641494Y-17786537D01*
X11738185Y-17707185D01*
X11817537Y-17610494D01*
X11876502Y-17500180D01*
X11912812Y-17380482D01*
X11925072Y-17256000D01*
X11925072Y-16305131D01*
X11929911Y-16256000D01*
X11925072Y-16206869D01*
X11925072Y-15256000D01*
X11912812Y-15131518D01*
X11876502Y-15011820D01*
X11817537Y-14901506D01*
X11738185Y-14804815D01*
X11641494Y-14725463D01*
X11531180Y-14666498D01*
X11411482Y-14630188D01*
X11287000Y-14617928D01*
X10336129Y-14617928D01*
X10286999Y-14613089D01*
X10237869Y-14617928D01*
X9691167Y-14617928D01*
X9382000Y-14308762D01*
X9382000Y-11256322D01*
X9389911Y-11176000D01*
X9358343Y-10855484D01*
X9264852Y-10547285D01*
X9113031Y-10263248D01*
X8908714Y-10014286D01*
X8659752Y-9809969D01*
X8375715Y-9658148D01*
X8067516Y-9564657D01*
X7827322Y-9541000D01*
X7747000Y-9533089D01*
X7666678Y-9541000D01*
X7308460Y-9541000D01*
X4990922Y-7223463D01*
X4990922Y-6523322D01*
X5100102Y-6490203D01*
X5210416Y-6431238D01*
X5307107Y-6351886D01*
X5386459Y-6255195D01*
X5445424Y-6144881D01*
X5481734Y-6025183D01*
X5493994Y-5900701D01*
X5493994Y-2900701D01*
X5481734Y-2776219D01*
X5445424Y-2656521D01*
X5386459Y-2546207D01*
X5307107Y-2449516D01*
X5210416Y-2370164D01*
X5100102Y-2311199D01*
X4980404Y-2274889D01*
X4855922Y-2262629D01*
X1855922Y-2262629D01*
X1731440Y-2274889D01*
X1611742Y-2311199D01*
X1501428Y-2370164D01*
X1404737Y-2449516D01*
X1325385Y-2546207D01*
X1266420Y-2656521D01*
X1230110Y-2776219D01*
X1217850Y-2900701D01*
X1217850Y-5900701D01*
X1230110Y-6025183D01*
X1266420Y-6144881D01*
X1325385Y-6255195D01*
X1404737Y-6351886D01*
X1501428Y-6431238D01*
X1611742Y-6490203D01*
X1720922Y-6523323D01*
X1720922Y-7820381D01*
X1713011Y-7900701D01*
X1720922Y-7981020D01*
X1720922Y-7981022D01*
X1744579Y-8221216D01*
X1838070Y-8529415D01*
X1989891Y-8813452D01*
X2194208Y-9062415D01*
X2256609Y-9113626D01*
X2988984Y-9846001D01*
X2636873Y-9846001D01*
X2205076Y-9931891D01*
X1798332Y-10100370D01*
X1432272Y-10344963D01*
X1120963Y-10656272D01*
X876370Y-11022332D01*
X707891Y-11429076D01*
X660000Y-11669840D01*
X660000Y-660000D01*
X19289583Y-660000D01*
X19342461Y-712878D01*
X19342461Y-712878D01*
G37*
X19342461Y-712878D02*
X19078062Y-808641D01*
X18937172Y-1098256D01*
X18855492Y-1409793D01*
X18836158Y-1731280D01*
X18879915Y-2050360D01*
X18985081Y-2354773D01*
X19078062Y-2528729D01*
X19342463Y-2624493D01*
X20298271Y-1668685D01*
X20284129Y-1654543D01*
X20463734Y-1474938D01*
X20477876Y-1489080D01*
X20492019Y-1474938D01*
X20671624Y-1654543D01*
X20657481Y-1668685D01*
X21613289Y-2624493D01*
X21877690Y-2528729D01*
X22018580Y-2239114D01*
X22100260Y-1927577D01*
X22119594Y-1606090D01*
X22075837Y-1287010D01*
X21970671Y-982597D01*
X21877690Y-808641D01*
X21613291Y-712878D01*
X21666169Y-660000D01*
X23685460Y-660000D01*
X23528958Y-894222D01*
X23405708Y-1191773D01*
X23342876Y-1507652D01*
X23342876Y-1829718D01*
X23405708Y-2145597D01*
X23528958Y-2443148D01*
X23707889Y-2710937D01*
X23935624Y-2938672D01*
X24117876Y-3060449D01*
X24117877Y-6776921D01*
X23935624Y-6898698D01*
X23707889Y-7126433D01*
X23586112Y-7308685D01*
X23496553Y-7308685D01*
X23454314Y-7304525D01*
X23412075Y-7308685D01*
X23412069Y-7308685D01*
X23316853Y-7318063D01*
X23285724Y-7321129D01*
X23210265Y-7344020D01*
X23123615Y-7370304D01*
X22974213Y-7450161D01*
X22843261Y-7557631D01*
X22816327Y-7590450D01*
X22108006Y-8298771D01*
X22119594Y-8106090D01*
X22075837Y-7787010D01*
X21970671Y-7482597D01*
X21877690Y-7308641D01*
X21613289Y-7212877D01*
X20657481Y-8168685D01*
X20671624Y-8182828D01*
X20492019Y-8362433D01*
X20477876Y-8348290D01*
X19522068Y-9304098D01*
X19617832Y-9568499D01*
X19907447Y-9709389D01*
X20218984Y-9791069D01*
X20540471Y-9810403D01*
X20859551Y-9766646D01*
X21163964Y-9661480D01*
X21222000Y-9630459D01*
X21222001Y-22928751D01*
X21217840Y-22971000D01*
X21234444Y-23139589D01*
X21283620Y-23301700D01*
X21363477Y-23451102D01*
X21470947Y-23582054D01*
X21503760Y-23608983D01*
X22424017Y-24529241D01*
X22450947Y-24562055D01*
X22581899Y-24669525D01*
X22679260Y-24721565D01*
X22731300Y-24749382D01*
X22893411Y-24798557D01*
X23062001Y-24815162D01*
X23104247Y-24811001D01*
X23581731Y-24811001D01*
X23749804Y-25015798D01*
X23977995Y-25203070D01*
X24011541Y-25221001D01*
X23977995Y-25238932D01*
X23749804Y-25426204D01*
X23562532Y-25654395D01*
X23423376Y-25914737D01*
X23337685Y-26197224D01*
X23308750Y-26491001D01*
X23337685Y-26784778D01*
X23423376Y-27067265D01*
X23562532Y-27327607D01*
X23749804Y-27555798D01*
X23977995Y-27743070D01*
X24011541Y-27761001D01*
X23977995Y-27778932D01*
X23749804Y-27966204D01*
X23562532Y-28194395D01*
X23423376Y-28454737D01*
X23337685Y-28737224D01*
X23308750Y-29031001D01*
X23337685Y-29324778D01*
X23423376Y-29607265D01*
X23562532Y-29867607D01*
X23749804Y-30095798D01*
X23977995Y-30283070D01*
X24017948Y-30304425D01*
X23815272Y-30452515D01*
X23616268Y-30668966D01*
X23463315Y-30920082D01*
X23362292Y-31196212D01*
X23359643Y-31211975D01*
X23480784Y-31444001D01*
X24840001Y-31444001D01*
X24840001Y-31424001D01*
X25094001Y-31424001D01*
X25094001Y-31444001D01*
X25114001Y-31444001D01*
X25114001Y-31698001D01*
X25094001Y-31698001D01*
X25094001Y-31718001D01*
X24840001Y-31718001D01*
X24840001Y-31698001D01*
X23480784Y-31698001D01*
X23359643Y-31930027D01*
X23362292Y-31945790D01*
X23463315Y-32221920D01*
X23616268Y-32473036D01*
X23815272Y-32689487D01*
X24017948Y-32837577D01*
X23977995Y-32858932D01*
X23749804Y-33046204D01*
X23562532Y-33274395D01*
X23423376Y-33534737D01*
X23337685Y-33817224D01*
X23308750Y-34111001D01*
X23337685Y-34404778D01*
X23423376Y-34687265D01*
X23562532Y-34947607D01*
X23749804Y-35175798D01*
X23977995Y-35363070D01*
X24011541Y-35381001D01*
X23977995Y-35398932D01*
X23749804Y-35586204D01*
X23562532Y-35814395D01*
X23423376Y-36074737D01*
X23337685Y-36357224D01*
X23308750Y-36651001D01*
X23337685Y-36944778D01*
X23353223Y-36995999D01*
X22354988Y-35997765D01*
X22328054Y-35964946D01*
X22197102Y-35857476D01*
X22047700Y-35777619D01*
X21885589Y-35728444D01*
X21759246Y-35716000D01*
X21759239Y-35716000D01*
X21717000Y-35711840D01*
X21674761Y-35716000D01*
X21597595Y-35716000D01*
X21466608Y-35556392D01*
X21248101Y-35377068D01*
X20998808Y-35243818D01*
X20728309Y-35161764D01*
X20517492Y-35141000D01*
X20376508Y-35141000D01*
X20165691Y-35161764D01*
X19895192Y-35243818D01*
X19645899Y-35377068D01*
X19427392Y-35556392D01*
X19248068Y-35774899D01*
X19114818Y-36024192D01*
X19032764Y-36294691D01*
X19005057Y-36576000D01*
X19032764Y-36857309D01*
X19114818Y-37127808D01*
X19248068Y-37377101D01*
X19427392Y-37595608D01*
X19645899Y-37774932D01*
X19895192Y-37908182D01*
X20165691Y-37990236D01*
X20376508Y-38011000D01*
X20517492Y-38011000D01*
X20728309Y-37990236D01*
X20998808Y-37908182D01*
X21248101Y-37774932D01*
X21466608Y-37595608D01*
X21490848Y-37566071D01*
X22127001Y-38202225D01*
X22127000Y-42883761D01*
X22122840Y-42926000D01*
X22127000Y-42968239D01*
X22127000Y-42968245D01*
X22139444Y-43094588D01*
X22188619Y-43256699D01*
X22268476Y-43406101D01*
X22375946Y-43537054D01*
X22408765Y-43563988D01*
X23329833Y-44485057D01*
X23337685Y-44564778D01*
X23423376Y-44847265D01*
X23562532Y-45107607D01*
X23749804Y-45335798D01*
X23977995Y-45523070D01*
X24011541Y-45541001D01*
X23977995Y-45558932D01*
X23749804Y-45746204D01*
X23562532Y-45974395D01*
X23423376Y-46234737D01*
X23337685Y-46517224D01*
X23308750Y-46811001D01*
X23337685Y-47104778D01*
X23423376Y-47387265D01*
X23562532Y-47647607D01*
X23749804Y-47875798D01*
X23977995Y-48063070D01*
X24011541Y-48081001D01*
X23977995Y-48098932D01*
X23749804Y-48286204D01*
X23562532Y-48514395D01*
X23423376Y-48774737D01*
X23337685Y-49057224D01*
X23308750Y-49351001D01*
X23337685Y-49644778D01*
X23423376Y-49927265D01*
X23562532Y-50187607D01*
X23749804Y-50415798D01*
X23977995Y-50603070D01*
X24011541Y-50621001D01*
X23977995Y-50638932D01*
X23749804Y-50826204D01*
X23705911Y-50879687D01*
X22793988Y-49967765D01*
X22767054Y-49934946D01*
X22636102Y-49827476D01*
X22486700Y-49747619D01*
X22324589Y-49698444D01*
X22198246Y-49686000D01*
X22198239Y-49686000D01*
X22156000Y-49681840D01*
X22113761Y-49686000D01*
X11913224Y-49686000D01*
X11147000Y-48919777D01*
X11147000Y-42968824D01*
X11329600Y-43024215D01*
X11557000Y-43046612D01*
X11784399Y-43024215D01*
X11993098Y-42960907D01*
X12057820Y-42995502D01*
X12177518Y-43031812D01*
X12302000Y-43044072D01*
X13352000Y-43044072D01*
X13476482Y-43031812D01*
X13596180Y-42995502D01*
X13706494Y-42936537D01*
X13803185Y-42857185D01*
X13882537Y-42760494D01*
X13918322Y-42693546D01*
X14507000Y-43282224D01*
X14507001Y-46693751D01*
X14502840Y-46736000D01*
X14519444Y-46904589D01*
X14544259Y-46986392D01*
X14568620Y-47066700D01*
X14648477Y-47216102D01*
X14755947Y-47347054D01*
X14788760Y-47373983D01*
X15999017Y-48584240D01*
X16025946Y-48617054D01*
X16156898Y-48724524D01*
X16306300Y-48804381D01*
X16419235Y-48838639D01*
X16468410Y-48853556D01*
X16485558Y-48855245D01*
X16594754Y-48866000D01*
X16594760Y-48866000D01*
X16636999Y-48870160D01*
X16679238Y-48866000D01*
X18026405Y-48866000D01*
X18157392Y-49025608D01*
X18375899Y-49204932D01*
X18625192Y-49338182D01*
X18895691Y-49420236D01*
X19106508Y-49441000D01*
X19247492Y-49441000D01*
X19458309Y-49420236D01*
X19728808Y-49338182D01*
X19978101Y-49204932D01*
X20196608Y-49025608D01*
X20375932Y-48807101D01*
X20509182Y-48557808D01*
X20591236Y-48287309D01*
X20618943Y-48006000D01*
X20591236Y-47724691D01*
X20509182Y-47454192D01*
X20375932Y-47204899D01*
X20196608Y-46986392D01*
X19978101Y-46807068D01*
X19728808Y-46673818D01*
X19458309Y-46591764D01*
X19247492Y-46571000D01*
X19106508Y-46571000D01*
X18895691Y-46591764D01*
X18625192Y-46673818D01*
X18375899Y-46807068D01*
X18157392Y-46986392D01*
X18026405Y-47146000D01*
X16993224Y-47146000D01*
X16227000Y-46379777D01*
X16227000Y-42968238D01*
X16231160Y-42925999D01*
X16227000Y-42883760D01*
X16227000Y-42883754D01*
X16214556Y-42757411D01*
X16165381Y-42595300D01*
X16085524Y-42445898D01*
X15978054Y-42314946D01*
X15945240Y-42288016D01*
X14957000Y-41299777D01*
X14957000Y-40742223D01*
X15945242Y-39753982D01*
X15978054Y-39727054D01*
X16085524Y-39596102D01*
X16165381Y-39446700D01*
X16214556Y-39284589D01*
X16227000Y-39158246D01*
X16227000Y-39158240D01*
X16231160Y-39116001D01*
X16227000Y-39073762D01*
X16227000Y-33916595D01*
X16347747Y-33817500D01*
X16347748Y-38374498D01*
X16343587Y-38416747D01*
X16360191Y-38585336D01*
X16398056Y-38710160D01*
X16409367Y-38747447D01*
X16489224Y-38896849D01*
X16596694Y-39027801D01*
X16629507Y-39054730D01*
X17754849Y-40180072D01*
X17742000Y-40244665D01*
X17742000Y-40527335D01*
X17797147Y-40804574D01*
X17905320Y-41065727D01*
X18062363Y-41300759D01*
X18262241Y-41500637D01*
X18497273Y-41657680D01*
X18758426Y-41765853D01*
X19035665Y-41821000D01*
X19318335Y-41821000D01*
X19595574Y-41765853D01*
X19856727Y-41657680D01*
X20091759Y-41500637D01*
X20291637Y-41300759D01*
X20448680Y-41065727D01*
X20556853Y-40804574D01*
X20612000Y-40527335D01*
X20612000Y-40244665D01*
X20556853Y-39967426D01*
X20448680Y-39706273D01*
X20291637Y-39471241D01*
X20091759Y-39271363D01*
X19856727Y-39114320D01*
X19595574Y-39006147D01*
X19318335Y-38951000D01*
X19035665Y-38951000D01*
X18971072Y-38963849D01*
X18067747Y-38060524D01*
X18067747Y-30838993D01*
X18071908Y-30796747D01*
X18055303Y-30628157D01*
X18006128Y-30466046D01*
X17978311Y-30414006D01*
X17926271Y-30316645D01*
X17818801Y-30185693D01*
X17785989Y-30158765D01*
X14957000Y-27329777D01*
X14957000Y-17391413D01*
X16831192Y-17391413D01*
X16926956Y-17655814D01*
X17216571Y-17796704D01*
X17528108Y-17878384D01*
X17849595Y-17897718D01*
X18168675Y-17853961D01*
X18473088Y-17748795D01*
X18647044Y-17655814D01*
X18742808Y-17391413D01*
X17787000Y-16435605D01*
X16831192Y-17391413D01*
X14957000Y-17391413D01*
X14957000Y-16318595D01*
X16145282Y-16318595D01*
X16189039Y-16637675D01*
X16294205Y-16942088D01*
X16387186Y-17116044D01*
X16651587Y-17211808D01*
X17607395Y-16256000D01*
X17966605Y-16256000D01*
X18922413Y-17211808D01*
X19186814Y-17116044D01*
X19327704Y-16826429D01*
X19409384Y-16514892D01*
X19428718Y-16193405D01*
X19384961Y-15874325D01*
X19279795Y-15569912D01*
X19186814Y-15395956D01*
X18922413Y-15300192D01*
X17966605Y-16256000D01*
X17607395Y-16256000D01*
X16651587Y-15300192D01*
X16387186Y-15395956D01*
X16246296Y-15685571D01*
X16164616Y-15997108D01*
X16145282Y-16318595D01*
X14957000Y-16318595D01*
X14957000Y-15120587D01*
X16831192Y-15120587D01*
X17787000Y-16076395D01*
X18742808Y-15120587D01*
X18647044Y-14856186D01*
X18357429Y-14715296D01*
X18045892Y-14633616D01*
X17724405Y-14614282D01*
X17405325Y-14658039D01*
X17100912Y-14763205D01*
X16926956Y-14856186D01*
X16831192Y-15120587D01*
X14957000Y-15120587D01*
X14957000Y-11218246D01*
X14961161Y-11176000D01*
X14944556Y-11007411D01*
X14895381Y-10845300D01*
X14815524Y-10695898D01*
X14708054Y-10564946D01*
X14577102Y-10457476D01*
X14427700Y-10377619D01*
X14265589Y-10328444D01*
X14139246Y-10316000D01*
X14097000Y-10311839D01*
X14054754Y-10316000D01*
X13183224Y-10316000D01*
X11098504Y-8231280D01*
X18836158Y-8231280D01*
X18879915Y-8550360D01*
X18985081Y-8854773D01*
X19078062Y-9028729D01*
X19342463Y-9124493D01*
X20298271Y-8168685D01*
X19342463Y-7212877D01*
X19078062Y-7308641D01*
X18937172Y-7598256D01*
X18855492Y-7909793D01*
X18836158Y-8231280D01*
X11098504Y-8231280D01*
X9900496Y-7033272D01*
X19522068Y-7033272D01*
X20477876Y-7989080D01*
X21433684Y-7033272D01*
X21337920Y-6768871D01*
X21048305Y-6627981D01*
X20736768Y-6546301D01*
X20415281Y-6526967D01*
X20096201Y-6570724D01*
X19791788Y-6675890D01*
X19617832Y-6768871D01*
X19522068Y-7033272D01*
X9900496Y-7033272D01*
X9295922Y-6428699D01*
X9295922Y-6355384D01*
X9447224Y-6292713D01*
X9796905Y-6059064D01*
X9963615Y-5892354D01*
X12203874Y-5892354D01*
X12359884Y-6207915D01*
X12734667Y-6398721D01*
X13139473Y-6512745D01*
X13558746Y-6545603D01*
X13976373Y-6496035D01*
X14376305Y-6365944D01*
X14671960Y-6207915D01*
X14827970Y-5892354D01*
X13515922Y-4580306D01*
X12203874Y-5892354D01*
X9963615Y-5892354D01*
X10094285Y-5761684D01*
X10327934Y-5412003D01*
X10488875Y-5023457D01*
X10570922Y-4610980D01*
X10570922Y-4443525D01*
X11371020Y-4443525D01*
X11420588Y-4861152D01*
X11550679Y-5261084D01*
X11708708Y-5556739D01*
X12024269Y-5712749D01*
X13336317Y-4400701D01*
X13695527Y-4400701D01*
X15007575Y-5712749D01*
X15323136Y-5556739D01*
X15513942Y-5181956D01*
X15627966Y-4777150D01*
X15660824Y-4357877D01*
X15611256Y-3940250D01*
X15481165Y-3540318D01*
X15323136Y-3244663D01*
X15007575Y-3088653D01*
X13695527Y-4400701D01*
X13336317Y-4400701D01*
X12024269Y-3088653D01*
X11708708Y-3244663D01*
X11517902Y-3619446D01*
X11403878Y-4024252D01*
X11371020Y-4443525D01*
X10570922Y-4443525D01*
X10570922Y-4190422D01*
X10488875Y-3777945D01*
X10327934Y-3389399D01*
X10094285Y-3039718D01*
X9963615Y-2909048D01*
X12203874Y-2909048D01*
X13515922Y-4221096D01*
X14827970Y-2909048D01*
X14776084Y-2804098D01*
X19522068Y-2804098D01*
X19617832Y-3068499D01*
X19907447Y-3209389D01*
X20218984Y-3291069D01*
X20540471Y-3310403D01*
X20859551Y-3266646D01*
X21163964Y-3161480D01*
X21337920Y-3068499D01*
X21433684Y-2804098D01*
X20477876Y-1848290D01*
X19522068Y-2804098D01*
X14776084Y-2804098D01*
X14671960Y-2593487D01*
X14297177Y-2402681D01*
X13892371Y-2288657D01*
X13473098Y-2255799D01*
X13055471Y-2305367D01*
X12655539Y-2435458D01*
X12359884Y-2593487D01*
X12203874Y-2909048D01*
X9963615Y-2909048D01*
X9796905Y-2742338D01*
X9447224Y-2508689D01*
X9058678Y-2347748D01*
X8646201Y-2265701D01*
X8225643Y-2265701D01*
X7813166Y-2347748D01*
X7424620Y-2508689D01*
X7074939Y-2742338D01*
X6777559Y-3039718D01*
X6543910Y-3389399D01*
X6382969Y-3777945D01*
X6300922Y-4190422D01*
X6300922Y-4610980D01*
X6382969Y-5023457D01*
X6543910Y-5412003D01*
X6777559Y-5761684D01*
X7074939Y-6059064D01*
X7424620Y-6292713D01*
X7575923Y-6355385D01*
X7575923Y-6742674D01*
X7571762Y-6784922D01*
X7588366Y-6953511D01*
X7637542Y-7115622D01*
X7717399Y-7265024D01*
X7824869Y-7395976D01*
X7857682Y-7422905D01*
X12189017Y-11754241D01*
X12215946Y-11787054D01*
X12346898Y-11894524D01*
X12496300Y-11974381D01*
X12609235Y-12008639D01*
X12658410Y-12023556D01*
X12675558Y-12025245D01*
X12784754Y-12036000D01*
X12784760Y-12036000D01*
X12826999Y-12040160D01*
X12869238Y-12036000D01*
X13237000Y-12036000D01*
X13237001Y-27643751D01*
X13232840Y-27686000D01*
X13249444Y-27854589D01*
X13298620Y-28016700D01*
X13378477Y-28166102D01*
X13401697Y-28194395D01*
X13485947Y-28297054D01*
X13518760Y-28323983D01*
X16347747Y-31152971D01*
X16347747Y-31714500D01*
X16168101Y-31567068D01*
X15918808Y-31433818D01*
X15648309Y-31351764D01*
X15437492Y-31331000D01*
X15296508Y-31331000D01*
X15085691Y-31351764D01*
X14815192Y-31433818D01*
X14565899Y-31567068D01*
X14347392Y-31746392D01*
X14168068Y-31964899D01*
X14034818Y-32214192D01*
X13952764Y-32484691D01*
X13925057Y-32766000D01*
X13952764Y-33047309D01*
X14034818Y-33317808D01*
X14168068Y-33567101D01*
X14347392Y-33785608D01*
X14507001Y-33916596D01*
X14507000Y-38759776D01*
X13518760Y-39748017D01*
X13485947Y-39774946D01*
X13459018Y-39807759D01*
X13459016Y-39807761D01*
X13378477Y-39905898D01*
X13298620Y-40055300D01*
X13249444Y-40217411D01*
X13244469Y-40267928D01*
X12417000Y-40267928D01*
X12417000Y-38202223D01*
X12621072Y-37998151D01*
X12685665Y-38011000D01*
X12968335Y-38011000D01*
X13245574Y-37955853D01*
X13506727Y-37847680D01*
X13741759Y-37690637D01*
X13941637Y-37490759D01*
X14098680Y-37255727D01*
X14206853Y-36994574D01*
X14262000Y-36717335D01*
X14262000Y-36434665D01*
X14206853Y-36157426D01*
X14098680Y-35896273D01*
X13941637Y-35661241D01*
X13741759Y-35461363D01*
X13506727Y-35304320D01*
X13245574Y-35196147D01*
X12968335Y-35141000D01*
X12685665Y-35141000D01*
X12408426Y-35196147D01*
X12147273Y-35304320D01*
X11912241Y-35461363D01*
X11712363Y-35661241D01*
X11555320Y-35896273D01*
X11447147Y-36157426D01*
X11392000Y-36434665D01*
X11392000Y-36717335D01*
X11404849Y-36781928D01*
X10978765Y-37208012D01*
X10945946Y-37234946D01*
X10838476Y-37365899D01*
X10758619Y-37515301D01*
X10747309Y-37552587D01*
X10709445Y-37677410D01*
X10709444Y-37677412D01*
X10697000Y-37803755D01*
X10697000Y-37803761D01*
X10692840Y-37846000D01*
X10697000Y-37888239D01*
X10697001Y-40343176D01*
X10514400Y-40287785D01*
X10287000Y-40265388D01*
X10059601Y-40287785D01*
X9840941Y-40354115D01*
X9639422Y-40461829D01*
X9462789Y-40606788D01*
X9382000Y-40705230D01*
X9382000Y-19473238D01*
X10961167Y-17894072D01*
X11287000Y-17894072D01*
X11411482Y-17881812D01*
X11531180Y-17845502D01*
X11641494Y-17786537D01*
X11738185Y-17707185D01*
X11817537Y-17610494D01*
X11876502Y-17500180D01*
X11912812Y-17380482D01*
X11925072Y-17256000D01*
X11925072Y-16305131D01*
X11929911Y-16256000D01*
X11925072Y-16206869D01*
X11925072Y-15256000D01*
X11912812Y-15131518D01*
X11876502Y-15011820D01*
X11817537Y-14901506D01*
X11738185Y-14804815D01*
X11641494Y-14725463D01*
X11531180Y-14666498D01*
X11411482Y-14630188D01*
X11287000Y-14617928D01*
X10336129Y-14617928D01*
X10286999Y-14613089D01*
X10237869Y-14617928D01*
X9691167Y-14617928D01*
X9382000Y-14308762D01*
X9382000Y-11256322D01*
X9389911Y-11176000D01*
X9358343Y-10855484D01*
X9264852Y-10547285D01*
X9113031Y-10263248D01*
X8908714Y-10014286D01*
X8659752Y-9809969D01*
X8375715Y-9658148D01*
X8067516Y-9564657D01*
X7827322Y-9541000D01*
X7747000Y-9533089D01*
X7666678Y-9541000D01*
X7308460Y-9541000D01*
X4990922Y-7223463D01*
X4990922Y-6523322D01*
X5100102Y-6490203D01*
X5210416Y-6431238D01*
X5307107Y-6351886D01*
X5386459Y-6255195D01*
X5445424Y-6144881D01*
X5481734Y-6025183D01*
X5493994Y-5900701D01*
X5493994Y-2900701D01*
X5481734Y-2776219D01*
X5445424Y-2656521D01*
X5386459Y-2546207D01*
X5307107Y-2449516D01*
X5210416Y-2370164D01*
X5100102Y-2311199D01*
X4980404Y-2274889D01*
X4855922Y-2262629D01*
X1855922Y-2262629D01*
X1731440Y-2274889D01*
X1611742Y-2311199D01*
X1501428Y-2370164D01*
X1404737Y-2449516D01*
X1325385Y-2546207D01*
X1266420Y-2656521D01*
X1230110Y-2776219D01*
X1217850Y-2900701D01*
X1217850Y-5900701D01*
X1230110Y-6025183D01*
X1266420Y-6144881D01*
X1325385Y-6255195D01*
X1404737Y-6351886D01*
X1501428Y-6431238D01*
X1611742Y-6490203D01*
X1720922Y-6523323D01*
X1720922Y-7820381D01*
X1713011Y-7900701D01*
X1720922Y-7981020D01*
X1720922Y-7981022D01*
X1744579Y-8221216D01*
X1838070Y-8529415D01*
X1989891Y-8813452D01*
X2194208Y-9062415D01*
X2256609Y-9113626D01*
X2988984Y-9846001D01*
X2636873Y-9846001D01*
X2205076Y-9931891D01*
X1798332Y-10100370D01*
X1432272Y-10344963D01*
X1120963Y-10656272D01*
X876370Y-11022332D01*
X707891Y-11429076D01*
X660000Y-11669840D01*
X660000Y-660000D01*
X19289583Y-660000D01*
X19342461Y-712878D01*
G36*
X9427001Y-42661605D02*
G01*
X9427000Y-49233761D01*
X9422840Y-49276000D01*
X9427000Y-49318239D01*
X9427000Y-49318245D01*
X9439444Y-49444588D01*
X9488619Y-49606699D01*
X9568476Y-49756101D01*
X9675946Y-49887054D01*
X9708765Y-49913988D01*
X10919015Y-51124239D01*
X10945946Y-51157054D01*
X11076898Y-51264524D01*
X11226300Y-51344381D01*
X11339235Y-51378639D01*
X11388410Y-51393556D01*
X11405558Y-51395245D01*
X11514754Y-51406000D01*
X11514760Y-51406000D01*
X11556999Y-51410160D01*
X11599238Y-51406000D01*
X21799777Y-51406000D01*
X22863018Y-52469241D01*
X22889947Y-52502055D01*
X23020899Y-52609525D01*
X23118260Y-52661565D01*
X23170300Y-52689382D01*
X23332411Y-52738557D01*
X23501001Y-52755162D01*
X23543247Y-52751001D01*
X23581731Y-52751001D01*
X23749804Y-52955798D01*
X23977995Y-53143070D01*
X24238337Y-53282226D01*
X24520824Y-53367917D01*
X24740982Y-53389601D01*
X25193020Y-53389601D01*
X25413178Y-53367917D01*
X25695665Y-53282226D01*
X25956007Y-53143070D01*
X26184198Y-52955798D01*
X26371470Y-52727607D01*
X26391000Y-52691069D01*
X26391000Y-58395000D01*
X660000Y-58395000D01*
X660000Y-52652269D01*
X740970Y-52803753D01*
X945287Y-53052715D01*
X1194249Y-53257032D01*
X1478286Y-53408853D01*
X1786485Y-53502344D01*
X2026679Y-53526001D01*
X2435507Y-53526001D01*
X2255076Y-53561891D01*
X1848332Y-53730370D01*
X1482272Y-53974963D01*
X1170963Y-54286272D01*
X926370Y-54652332D01*
X757891Y-55059076D01*
X672001Y-55490873D01*
X672001Y-55931129D01*
X757891Y-56362926D01*
X926370Y-56769670D01*
X1170963Y-57135730D01*
X1482272Y-57447039D01*
X1848332Y-57691632D01*
X2255076Y-57860111D01*
X2686873Y-57946001D01*
X3127129Y-57946001D01*
X3558926Y-57860111D01*
X3965670Y-57691632D01*
X4331730Y-57447039D01*
X4643039Y-57135730D01*
X4887632Y-56769670D01*
X5056111Y-56362926D01*
X5142001Y-55931129D01*
X5142001Y-55490873D01*
X21872001Y-55490873D01*
X21872001Y-55931129D01*
X21957891Y-56362926D01*
X22126370Y-56769670D01*
X22370963Y-57135730D01*
X22682272Y-57447039D01*
X23048332Y-57691632D01*
X23455076Y-57860111D01*
X23886873Y-57946001D01*
X24327129Y-57946001D01*
X24758926Y-57860111D01*
X25165670Y-57691632D01*
X25531730Y-57447039D01*
X25843039Y-57135730D01*
X26087632Y-56769670D01*
X26256111Y-56362926D01*
X26342001Y-55931129D01*
X26342001Y-55490873D01*
X26256111Y-55059076D01*
X26087632Y-54652332D01*
X25843039Y-54286272D01*
X25531730Y-53974963D01*
X25165670Y-53730370D01*
X24758926Y-53561891D01*
X24327129Y-53476001D01*
X23886873Y-53476001D01*
X23455076Y-53561891D01*
X23048332Y-53730370D01*
X22682272Y-53974963D01*
X22370963Y-54286272D01*
X22126370Y-54652332D01*
X21957891Y-55059076D01*
X21872001Y-55490873D01*
X5142001Y-55490873D01*
X5056111Y-55059076D01*
X4887632Y-54652332D01*
X4643039Y-54286272D01*
X4331730Y-53974963D01*
X3965670Y-53730370D01*
X3558926Y-53561891D01*
X3378495Y-53526001D01*
X6321680Y-53526001D01*
X6401999Y-53533912D01*
X6482318Y-53526001D01*
X6482321Y-53526001D01*
X6722515Y-53502344D01*
X7030714Y-53408853D01*
X7314751Y-53257032D01*
X7563713Y-53052715D01*
X7614923Y-52990315D01*
X8846325Y-51758915D01*
X8908714Y-51707714D01*
X9113031Y-51458752D01*
X9264852Y-51174715D01*
X9358343Y-50866516D01*
X9370585Y-50742226D01*
X9389911Y-50546000D01*
X9382000Y-50465678D01*
X9382000Y-42606771D01*
X9427001Y-42661605D01*
X9427001Y-42661605D01*
G37*
X9427001Y-42661605D02*
X9427000Y-49233761D01*
X9422840Y-49276000D01*
X9427000Y-49318239D01*
X9427000Y-49318245D01*
X9439444Y-49444588D01*
X9488619Y-49606699D01*
X9568476Y-49756101D01*
X9675946Y-49887054D01*
X9708765Y-49913988D01*
X10919015Y-51124239D01*
X10945946Y-51157054D01*
X11076898Y-51264524D01*
X11226300Y-51344381D01*
X11339235Y-51378639D01*
X11388410Y-51393556D01*
X11405558Y-51395245D01*
X11514754Y-51406000D01*
X11514760Y-51406000D01*
X11556999Y-51410160D01*
X11599238Y-51406000D01*
X21799777Y-51406000D01*
X22863018Y-52469241D01*
X22889947Y-52502055D01*
X23020899Y-52609525D01*
X23118260Y-52661565D01*
X23170300Y-52689382D01*
X23332411Y-52738557D01*
X23501001Y-52755162D01*
X23543247Y-52751001D01*
X23581731Y-52751001D01*
X23749804Y-52955798D01*
X23977995Y-53143070D01*
X24238337Y-53282226D01*
X24520824Y-53367917D01*
X24740982Y-53389601D01*
X25193020Y-53389601D01*
X25413178Y-53367917D01*
X25695665Y-53282226D01*
X25956007Y-53143070D01*
X26184198Y-52955798D01*
X26371470Y-52727607D01*
X26391000Y-52691069D01*
X26391000Y-58395000D01*
X660000Y-58395000D01*
X660000Y-52652269D01*
X740970Y-52803753D01*
X945287Y-53052715D01*
X1194249Y-53257032D01*
X1478286Y-53408853D01*
X1786485Y-53502344D01*
X2026679Y-53526001D01*
X2435507Y-53526001D01*
X2255076Y-53561891D01*
X1848332Y-53730370D01*
X1482272Y-53974963D01*
X1170963Y-54286272D01*
X926370Y-54652332D01*
X757891Y-55059076D01*
X672001Y-55490873D01*
X672001Y-55931129D01*
X757891Y-56362926D01*
X926370Y-56769670D01*
X1170963Y-57135730D01*
X1482272Y-57447039D01*
X1848332Y-57691632D01*
X2255076Y-57860111D01*
X2686873Y-57946001D01*
X3127129Y-57946001D01*
X3558926Y-57860111D01*
X3965670Y-57691632D01*
X4331730Y-57447039D01*
X4643039Y-57135730D01*
X4887632Y-56769670D01*
X5056111Y-56362926D01*
X5142001Y-55931129D01*
X5142001Y-55490873D01*
X21872001Y-55490873D01*
X21872001Y-55931129D01*
X21957891Y-56362926D01*
X22126370Y-56769670D01*
X22370963Y-57135730D01*
X22682272Y-57447039D01*
X23048332Y-57691632D01*
X23455076Y-57860111D01*
X23886873Y-57946001D01*
X24327129Y-57946001D01*
X24758926Y-57860111D01*
X25165670Y-57691632D01*
X25531730Y-57447039D01*
X25843039Y-57135730D01*
X26087632Y-56769670D01*
X26256111Y-56362926D01*
X26342001Y-55931129D01*
X26342001Y-55490873D01*
X26256111Y-55059076D01*
X26087632Y-54652332D01*
X25843039Y-54286272D01*
X25531730Y-53974963D01*
X25165670Y-53730370D01*
X24758926Y-53561891D01*
X24327129Y-53476001D01*
X23886873Y-53476001D01*
X23455076Y-53561891D01*
X23048332Y-53730370D01*
X22682272Y-53974963D01*
X22370963Y-54286272D01*
X22126370Y-54652332D01*
X21957891Y-55059076D01*
X21872001Y-55490873D01*
X5142001Y-55490873D01*
X5056111Y-55059076D01*
X4887632Y-54652332D01*
X4643039Y-54286272D01*
X4331730Y-53974963D01*
X3965670Y-53730370D01*
X3558926Y-53561891D01*
X3378495Y-53526001D01*
X6321680Y-53526001D01*
X6401999Y-53533912D01*
X6482318Y-53526001D01*
X6482321Y-53526001D01*
X6722515Y-53502344D01*
X7030714Y-53408853D01*
X7314751Y-53257032D01*
X7563713Y-53052715D01*
X7614923Y-52990315D01*
X8846325Y-51758915D01*
X8908714Y-51707714D01*
X9113031Y-51458752D01*
X9264852Y-51174715D01*
X9358343Y-50866516D01*
X9370585Y-50742226D01*
X9389911Y-50546000D01*
X9382000Y-50465678D01*
X9382000Y-42606771D01*
X9427001Y-42661605D01*
G36*
X702532Y-50187607D02*
G01*
X889804Y-50415798D01*
X1108539Y-50595310D01*
X945287Y-50729287D01*
X740970Y-50978249D01*
X660000Y-51129733D01*
X660000Y-50108035D01*
X702532Y-50187607D01*
X702532Y-50187607D01*
G37*
X702532Y-50187607D02*
X889804Y-50415798D01*
X1108539Y-50595310D01*
X945287Y-50729287D01*
X740970Y-50978249D01*
X660000Y-51129733D01*
X660000Y-50108035D01*
X702532Y-50187607D01*
G36*
X26391000Y-51090933D02*
G01*
X26371470Y-51054395D01*
X26184198Y-50826204D01*
X25956007Y-50638932D01*
X25922461Y-50621001D01*
X25956007Y-50603070D01*
X26184198Y-50415798D01*
X26371470Y-50187607D01*
X26391000Y-50151069D01*
X26391000Y-51090933D01*
X26391000Y-51090933D01*
G37*
X26391000Y-51090933D02*
X26371470Y-51054395D01*
X26184198Y-50826204D01*
X25956007Y-50638932D01*
X25922461Y-50621001D01*
X25956007Y-50603070D01*
X26184198Y-50415798D01*
X26371470Y-50187607D01*
X26391000Y-50151069D01*
X26391000Y-51090933D01*
G36*
X19028958Y-894222D02*
G01*
X18905708Y-1191773D01*
X18842876Y-1507652D01*
X18842876Y-1829718D01*
X18905708Y-2145597D01*
X19028958Y-2443148D01*
X19207889Y-2710937D01*
X19435624Y-2938672D01*
X19617876Y-3060449D01*
X19617877Y-6776921D01*
X19435624Y-6898698D01*
X19207889Y-7126433D01*
X19086112Y-7308685D01*
X15255908Y-7308685D01*
X14375922Y-6428699D01*
X14375922Y-6355384D01*
X14527224Y-6292713D01*
X14876905Y-6059064D01*
X15174285Y-5761684D01*
X15407934Y-5412003D01*
X15568875Y-5023457D01*
X15650922Y-4610980D01*
X15650922Y-4190422D01*
X15568875Y-3777945D01*
X15407934Y-3389399D01*
X15174285Y-3039718D01*
X14876905Y-2742338D01*
X14527224Y-2508689D01*
X14138678Y-2347748D01*
X13726201Y-2265701D01*
X13305643Y-2265701D01*
X12893166Y-2347748D01*
X12504620Y-2508689D01*
X12154939Y-2742338D01*
X11857559Y-3039718D01*
X11623910Y-3389399D01*
X11462969Y-3777945D01*
X11380922Y-4190422D01*
X11380922Y-4610980D01*
X11462969Y-5023457D01*
X11623910Y-5412003D01*
X11857559Y-5761684D01*
X12154939Y-6059064D01*
X12504620Y-6292713D01*
X12655923Y-6355385D01*
X12655923Y-6742674D01*
X12651762Y-6784922D01*
X12668366Y-6953511D01*
X12678813Y-6987949D01*
X12717542Y-7115622D01*
X12797399Y-7265024D01*
X12904869Y-7395976D01*
X12937682Y-7422905D01*
X14261697Y-8746920D01*
X14288631Y-8779739D01*
X14419583Y-8887209D01*
X14568985Y-8967066D01*
X14655635Y-8993350D01*
X14731094Y-9016241D01*
X14762223Y-9019307D01*
X14857439Y-9028685D01*
X14857445Y-9028685D01*
X14899684Y-9032845D01*
X14941923Y-9028685D01*
X19086112Y-9028685D01*
X19207889Y-9210937D01*
X19435624Y-9438672D01*
X19617877Y-9560449D01*
X19617876Y-10788900D01*
X17208760Y-13198017D01*
X17175947Y-13224946D01*
X17149018Y-13257759D01*
X17149016Y-13257761D01*
X17068477Y-13355898D01*
X16988620Y-13505300D01*
X16939444Y-13667411D01*
X16922840Y-13836000D01*
X16927001Y-13878248D01*
X16927001Y-14864236D01*
X16744748Y-14986013D01*
X16517013Y-15213748D01*
X16338082Y-15481537D01*
X16214832Y-15779088D01*
X16152000Y-16094967D01*
X16152000Y-16417033D01*
X16214832Y-16732912D01*
X16338082Y-17030463D01*
X16517013Y-17298252D01*
X16744748Y-17525987D01*
X16927001Y-17647765D01*
X16927000Y-27523761D01*
X16922840Y-27566000D01*
X16927000Y-27608239D01*
X16927000Y-27608245D01*
X16939444Y-27734588D01*
X16988619Y-27896699D01*
X17068476Y-28046101D01*
X17175946Y-28177054D01*
X17208765Y-28203988D01*
X21154018Y-32149242D01*
X21180947Y-32182055D01*
X21311899Y-32289525D01*
X21409260Y-32341565D01*
X21461300Y-32369382D01*
X21623411Y-32418557D01*
X21792001Y-32435162D01*
X21834247Y-32431001D01*
X23581731Y-32431001D01*
X23749804Y-32635798D01*
X23977995Y-32823070D01*
X24011541Y-32841001D01*
X23977995Y-32858932D01*
X23749804Y-33046204D01*
X23562532Y-33274395D01*
X23423376Y-33534737D01*
X23337685Y-33817224D01*
X23308750Y-34111001D01*
X23337685Y-34404778D01*
X23423376Y-34687265D01*
X23562532Y-34947607D01*
X23749804Y-35175798D01*
X23977995Y-35363070D01*
X24011541Y-35381001D01*
X23977995Y-35398932D01*
X23749804Y-35586204D01*
X23562532Y-35814395D01*
X23423376Y-36074737D01*
X23337685Y-36357224D01*
X23308750Y-36651001D01*
X23337685Y-36944778D01*
X23353223Y-36995999D01*
X22354988Y-35997765D01*
X22328054Y-35964946D01*
X22197102Y-35857476D01*
X22047700Y-35777619D01*
X21885589Y-35728444D01*
X21759246Y-35716000D01*
X21759239Y-35716000D01*
X21717000Y-35711840D01*
X21674761Y-35716000D01*
X21597595Y-35716000D01*
X21466608Y-35556392D01*
X21248101Y-35377068D01*
X20998808Y-35243818D01*
X20728309Y-35161764D01*
X20517492Y-35141000D01*
X20376508Y-35141000D01*
X20165691Y-35161764D01*
X19895192Y-35243818D01*
X19645899Y-35377068D01*
X19427392Y-35556392D01*
X19248068Y-35774899D01*
X19114818Y-36024192D01*
X19032764Y-36294691D01*
X19005057Y-36576000D01*
X19032764Y-36857309D01*
X19114818Y-37127808D01*
X19248068Y-37377101D01*
X19427392Y-37595608D01*
X19645899Y-37774932D01*
X19895192Y-37908182D01*
X20165691Y-37990236D01*
X20376508Y-38011000D01*
X20517492Y-38011000D01*
X20728309Y-37990236D01*
X20998808Y-37908182D01*
X21248101Y-37774932D01*
X21466608Y-37595608D01*
X21490848Y-37566071D01*
X22127001Y-38202225D01*
X22127000Y-42883761D01*
X22122840Y-42926000D01*
X22127000Y-42968239D01*
X22127000Y-42968245D01*
X22139444Y-43094588D01*
X22188619Y-43256699D01*
X22268476Y-43406101D01*
X22375946Y-43537054D01*
X22408765Y-43563988D01*
X23329833Y-44485057D01*
X23337685Y-44564778D01*
X23423376Y-44847265D01*
X23562532Y-45107607D01*
X23749804Y-45335798D01*
X23977995Y-45523070D01*
X24011541Y-45541001D01*
X23977995Y-45558932D01*
X23749804Y-45746204D01*
X23562532Y-45974395D01*
X23423376Y-46234737D01*
X23337685Y-46517224D01*
X23308750Y-46811001D01*
X23337685Y-47104778D01*
X23423376Y-47387265D01*
X23562532Y-47647607D01*
X23749804Y-47875798D01*
X23977995Y-48063070D01*
X24011541Y-48081001D01*
X23977995Y-48098932D01*
X23749804Y-48286204D01*
X23562532Y-48514395D01*
X23423376Y-48774737D01*
X23337685Y-49057224D01*
X23308750Y-49351001D01*
X23337685Y-49644778D01*
X23423376Y-49927265D01*
X23562532Y-50187607D01*
X23749804Y-50415798D01*
X23977995Y-50603070D01*
X24011541Y-50621001D01*
X23977995Y-50638932D01*
X23749804Y-50826204D01*
X23705911Y-50879687D01*
X22793988Y-49967765D01*
X22767054Y-49934946D01*
X22636102Y-49827476D01*
X22486700Y-49747619D01*
X22324589Y-49698444D01*
X22198246Y-49686000D01*
X22198239Y-49686000D01*
X22156000Y-49681840D01*
X22113761Y-49686000D01*
X11913224Y-49686000D01*
X11147000Y-48919777D01*
X11147000Y-42968824D01*
X11329600Y-43024215D01*
X11557000Y-43046612D01*
X11784399Y-43024215D01*
X11993098Y-42960907D01*
X12057820Y-42995502D01*
X12177518Y-43031812D01*
X12302000Y-43044072D01*
X13352000Y-43044072D01*
X13476482Y-43031812D01*
X13596180Y-42995502D01*
X13706494Y-42936537D01*
X13803185Y-42857185D01*
X13882537Y-42760494D01*
X13918322Y-42693546D01*
X14507000Y-43282224D01*
X14507001Y-46693751D01*
X14502840Y-46736000D01*
X14519444Y-46904589D01*
X14544259Y-46986392D01*
X14568620Y-47066700D01*
X14648477Y-47216102D01*
X14755947Y-47347054D01*
X14788760Y-47373983D01*
X15999017Y-48584240D01*
X16025946Y-48617054D01*
X16156898Y-48724524D01*
X16306300Y-48804381D01*
X16419235Y-48838639D01*
X16468410Y-48853556D01*
X16485558Y-48855245D01*
X16594754Y-48866000D01*
X16594760Y-48866000D01*
X16636999Y-48870160D01*
X16679238Y-48866000D01*
X18026405Y-48866000D01*
X18157392Y-49025608D01*
X18375899Y-49204932D01*
X18625192Y-49338182D01*
X18895691Y-49420236D01*
X19106508Y-49441000D01*
X19247492Y-49441000D01*
X19458309Y-49420236D01*
X19728808Y-49338182D01*
X19978101Y-49204932D01*
X20196608Y-49025608D01*
X20375932Y-48807101D01*
X20509182Y-48557808D01*
X20591236Y-48287309D01*
X20618943Y-48006000D01*
X20591236Y-47724691D01*
X20509182Y-47454192D01*
X20375932Y-47204899D01*
X20196608Y-46986392D01*
X19978101Y-46807068D01*
X19728808Y-46673818D01*
X19458309Y-46591764D01*
X19247492Y-46571000D01*
X19106508Y-46571000D01*
X18895691Y-46591764D01*
X18625192Y-46673818D01*
X18375899Y-46807068D01*
X18157392Y-46986392D01*
X18026405Y-47146000D01*
X16993224Y-47146000D01*
X16227000Y-46379777D01*
X16227000Y-42968238D01*
X16231160Y-42925999D01*
X16227000Y-42883760D01*
X16227000Y-42883754D01*
X16214556Y-42757411D01*
X16165381Y-42595300D01*
X16085524Y-42445898D01*
X15978054Y-42314946D01*
X15945240Y-42288016D01*
X14957000Y-41299777D01*
X14957000Y-40742223D01*
X15945242Y-39753982D01*
X15978054Y-39727054D01*
X16085524Y-39596102D01*
X16165381Y-39446700D01*
X16214556Y-39284589D01*
X16227000Y-39158246D01*
X16227000Y-39158240D01*
X16231160Y-39116001D01*
X16227000Y-39073762D01*
X16227000Y-33916595D01*
X16347747Y-33817500D01*
X16347748Y-38374498D01*
X16343587Y-38416747D01*
X16360191Y-38585336D01*
X16398056Y-38710160D01*
X16409367Y-38747447D01*
X16489224Y-38896849D01*
X16596694Y-39027801D01*
X16629507Y-39054730D01*
X17754849Y-40180072D01*
X17742000Y-40244665D01*
X17742000Y-40527335D01*
X17797147Y-40804574D01*
X17905320Y-41065727D01*
X18062363Y-41300759D01*
X18262241Y-41500637D01*
X18497273Y-41657680D01*
X18758426Y-41765853D01*
X19035665Y-41821000D01*
X19318335Y-41821000D01*
X19595574Y-41765853D01*
X19856727Y-41657680D01*
X20091759Y-41500637D01*
X20291637Y-41300759D01*
X20448680Y-41065727D01*
X20556853Y-40804574D01*
X20612000Y-40527335D01*
X20612000Y-40244665D01*
X20556853Y-39967426D01*
X20448680Y-39706273D01*
X20291637Y-39471241D01*
X20091759Y-39271363D01*
X19856727Y-39114320D01*
X19595574Y-39006147D01*
X19318335Y-38951000D01*
X19035665Y-38951000D01*
X18971072Y-38963849D01*
X18067747Y-38060524D01*
X18067747Y-30838993D01*
X18071908Y-30796747D01*
X18055303Y-30628157D01*
X18006128Y-30466046D01*
X17978311Y-30414006D01*
X17926271Y-30316645D01*
X17818801Y-30185693D01*
X17785989Y-30158765D01*
X14957000Y-27329777D01*
X14957000Y-11218246D01*
X14961161Y-11176000D01*
X14944556Y-11007411D01*
X14895381Y-10845300D01*
X14815524Y-10695898D01*
X14708054Y-10564946D01*
X14577102Y-10457476D01*
X14427700Y-10377619D01*
X14265589Y-10328444D01*
X14139246Y-10316000D01*
X14097000Y-10311839D01*
X14054754Y-10316000D01*
X13183224Y-10316000D01*
X9295922Y-6428699D01*
X9295922Y-6355384D01*
X9447224Y-6292713D01*
X9796905Y-6059064D01*
X10094285Y-5761684D01*
X10327934Y-5412003D01*
X10488875Y-5023457D01*
X10570922Y-4610980D01*
X10570922Y-4190422D01*
X10488875Y-3777945D01*
X10327934Y-3389399D01*
X10094285Y-3039718D01*
X9796905Y-2742338D01*
X9447224Y-2508689D01*
X9058678Y-2347748D01*
X8646201Y-2265701D01*
X8225643Y-2265701D01*
X7813166Y-2347748D01*
X7424620Y-2508689D01*
X7074939Y-2742338D01*
X6777559Y-3039718D01*
X6543910Y-3389399D01*
X6382969Y-3777945D01*
X6300922Y-4190422D01*
X6300922Y-4610980D01*
X6382969Y-5023457D01*
X6543910Y-5412003D01*
X6777559Y-5761684D01*
X7074939Y-6059064D01*
X7424620Y-6292713D01*
X7575923Y-6355385D01*
X7575923Y-6742674D01*
X7571762Y-6784922D01*
X7588366Y-6953511D01*
X7598813Y-6987949D01*
X7637542Y-7115622D01*
X7717399Y-7265024D01*
X7824869Y-7395976D01*
X7857682Y-7422905D01*
X12189017Y-11754241D01*
X12215946Y-11787054D01*
X12346898Y-11894524D01*
X12496300Y-11974381D01*
X12609235Y-12008639D01*
X12658410Y-12023556D01*
X12675558Y-12025245D01*
X12784754Y-12036000D01*
X12784760Y-12036000D01*
X12826999Y-12040160D01*
X12869238Y-12036000D01*
X13237000Y-12036000D01*
X13237001Y-27643751D01*
X13232840Y-27686000D01*
X13249444Y-27854589D01*
X13298620Y-28016700D01*
X13378477Y-28166102D01*
X13401697Y-28194395D01*
X13485947Y-28297054D01*
X13518760Y-28323983D01*
X16347747Y-31152971D01*
X16347747Y-31714500D01*
X16168101Y-31567068D01*
X15918808Y-31433818D01*
X15648309Y-31351764D01*
X15437492Y-31331000D01*
X15296508Y-31331000D01*
X15085691Y-31351764D01*
X14815192Y-31433818D01*
X14565899Y-31567068D01*
X14347392Y-31746392D01*
X14168068Y-31964899D01*
X14034818Y-32214192D01*
X13952764Y-32484691D01*
X13925057Y-32766000D01*
X13952764Y-33047309D01*
X14034818Y-33317808D01*
X14168068Y-33567101D01*
X14347392Y-33785608D01*
X14507001Y-33916596D01*
X14507000Y-38759776D01*
X13518760Y-39748017D01*
X13485947Y-39774946D01*
X13459018Y-39807759D01*
X13459016Y-39807761D01*
X13378477Y-39905898D01*
X13298620Y-40055300D01*
X13249444Y-40217411D01*
X13244469Y-40267928D01*
X12417000Y-40267928D01*
X12417000Y-38202223D01*
X12621072Y-37998151D01*
X12685665Y-38011000D01*
X12968335Y-38011000D01*
X13245574Y-37955853D01*
X13506727Y-37847680D01*
X13741759Y-37690637D01*
X13941637Y-37490759D01*
X14098680Y-37255727D01*
X14206853Y-36994574D01*
X14262000Y-36717335D01*
X14262000Y-36434665D01*
X14206853Y-36157426D01*
X14098680Y-35896273D01*
X13941637Y-35661241D01*
X13741759Y-35461363D01*
X13506727Y-35304320D01*
X13245574Y-35196147D01*
X12968335Y-35141000D01*
X12685665Y-35141000D01*
X12408426Y-35196147D01*
X12147273Y-35304320D01*
X11912241Y-35461363D01*
X11712363Y-35661241D01*
X11555320Y-35896273D01*
X11447147Y-36157426D01*
X11392000Y-36434665D01*
X11392000Y-36717335D01*
X11404849Y-36781928D01*
X10978765Y-37208012D01*
X10945946Y-37234946D01*
X10838476Y-37365899D01*
X10758619Y-37515301D01*
X10747309Y-37552587D01*
X10709445Y-37677410D01*
X10709444Y-37677412D01*
X10697000Y-37803755D01*
X10697000Y-37803761D01*
X10692840Y-37846000D01*
X10697000Y-37888239D01*
X10697001Y-40343176D01*
X10514400Y-40287785D01*
X10287000Y-40265388D01*
X10059601Y-40287785D01*
X9840941Y-40354115D01*
X9639422Y-40461829D01*
X9462789Y-40606788D01*
X9382000Y-40705230D01*
X9382000Y-19473238D01*
X10961167Y-17894072D01*
X11287000Y-17894072D01*
X11411482Y-17881812D01*
X11531180Y-17845502D01*
X11641494Y-17786537D01*
X11738185Y-17707185D01*
X11817537Y-17610494D01*
X11876502Y-17500180D01*
X11912812Y-17380482D01*
X11925072Y-17256000D01*
X11925072Y-16305131D01*
X11929911Y-16256000D01*
X11925072Y-16206869D01*
X11925072Y-15256000D01*
X11912812Y-15131518D01*
X11876502Y-15011820D01*
X11817537Y-14901506D01*
X11738185Y-14804815D01*
X11641494Y-14725463D01*
X11531180Y-14666498D01*
X11411482Y-14630188D01*
X11287000Y-14617928D01*
X10336129Y-14617928D01*
X10286999Y-14613089D01*
X10237869Y-14617928D01*
X9691167Y-14617928D01*
X9382000Y-14308762D01*
X9382000Y-11256322D01*
X9389911Y-11176000D01*
X9358343Y-10855484D01*
X9264852Y-10547285D01*
X9113031Y-10263248D01*
X8908714Y-10014286D01*
X8659752Y-9809969D01*
X8375715Y-9658148D01*
X8067516Y-9564657D01*
X7827322Y-9541000D01*
X7747000Y-9533089D01*
X7666678Y-9541000D01*
X7308460Y-9541000D01*
X4990922Y-7223463D01*
X4990922Y-6523322D01*
X5100102Y-6490203D01*
X5210416Y-6431238D01*
X5307107Y-6351886D01*
X5386459Y-6255195D01*
X5445424Y-6144881D01*
X5481734Y-6025183D01*
X5493994Y-5900701D01*
X5493994Y-2900701D01*
X5481734Y-2776219D01*
X5445424Y-2656521D01*
X5386459Y-2546207D01*
X5307107Y-2449516D01*
X5210416Y-2370164D01*
X5100102Y-2311199D01*
X4980404Y-2274889D01*
X4855922Y-2262629D01*
X1855922Y-2262629D01*
X1731440Y-2274889D01*
X1611742Y-2311199D01*
X1501428Y-2370164D01*
X1404737Y-2449516D01*
X1325385Y-2546207D01*
X1266420Y-2656521D01*
X1230110Y-2776219D01*
X1217850Y-2900701D01*
X1217850Y-5900701D01*
X1230110Y-6025183D01*
X1266420Y-6144881D01*
X1325385Y-6255195D01*
X1404737Y-6351886D01*
X1501428Y-6431238D01*
X1611742Y-6490203D01*
X1720922Y-6523323D01*
X1720922Y-7820381D01*
X1713011Y-7900701D01*
X1720922Y-7981020D01*
X1720922Y-7981022D01*
X1744579Y-8221216D01*
X1838070Y-8529415D01*
X1989891Y-8813452D01*
X2194208Y-9062415D01*
X2256609Y-9113626D01*
X2988984Y-9846001D01*
X2636873Y-9846001D01*
X2205076Y-9931891D01*
X1798332Y-10100370D01*
X1432272Y-10344963D01*
X1120963Y-10656272D01*
X876370Y-11022332D01*
X707891Y-11429076D01*
X660000Y-11669840D01*
X660000Y-660000D01*
X19185460Y-660000D01*
X19028958Y-894222D01*
X19028958Y-894222D01*
G37*
X19028958Y-894222D02*
X18905708Y-1191773D01*
X18842876Y-1507652D01*
X18842876Y-1829718D01*
X18905708Y-2145597D01*
X19028958Y-2443148D01*
X19207889Y-2710937D01*
X19435624Y-2938672D01*
X19617876Y-3060449D01*
X19617877Y-6776921D01*
X19435624Y-6898698D01*
X19207889Y-7126433D01*
X19086112Y-7308685D01*
X15255908Y-7308685D01*
X14375922Y-6428699D01*
X14375922Y-6355384D01*
X14527224Y-6292713D01*
X14876905Y-6059064D01*
X15174285Y-5761684D01*
X15407934Y-5412003D01*
X15568875Y-5023457D01*
X15650922Y-4610980D01*
X15650922Y-4190422D01*
X15568875Y-3777945D01*
X15407934Y-3389399D01*
X15174285Y-3039718D01*
X14876905Y-2742338D01*
X14527224Y-2508689D01*
X14138678Y-2347748D01*
X13726201Y-2265701D01*
X13305643Y-2265701D01*
X12893166Y-2347748D01*
X12504620Y-2508689D01*
X12154939Y-2742338D01*
X11857559Y-3039718D01*
X11623910Y-3389399D01*
X11462969Y-3777945D01*
X11380922Y-4190422D01*
X11380922Y-4610980D01*
X11462969Y-5023457D01*
X11623910Y-5412003D01*
X11857559Y-5761684D01*
X12154939Y-6059064D01*
X12504620Y-6292713D01*
X12655923Y-6355385D01*
X12655923Y-6742674D01*
X12651762Y-6784922D01*
X12668366Y-6953511D01*
X12678813Y-6987949D01*
X12717542Y-7115622D01*
X12797399Y-7265024D01*
X12904869Y-7395976D01*
X12937682Y-7422905D01*
X14261697Y-8746920D01*
X14288631Y-8779739D01*
X14419583Y-8887209D01*
X14568985Y-8967066D01*
X14655635Y-8993350D01*
X14731094Y-9016241D01*
X14762223Y-9019307D01*
X14857439Y-9028685D01*
X14857445Y-9028685D01*
X14899684Y-9032845D01*
X14941923Y-9028685D01*
X19086112Y-9028685D01*
X19207889Y-9210937D01*
X19435624Y-9438672D01*
X19617877Y-9560449D01*
X19617876Y-10788900D01*
X17208760Y-13198017D01*
X17175947Y-13224946D01*
X17149018Y-13257759D01*
X17149016Y-13257761D01*
X17068477Y-13355898D01*
X16988620Y-13505300D01*
X16939444Y-13667411D01*
X16922840Y-13836000D01*
X16927001Y-13878248D01*
X16927001Y-14864236D01*
X16744748Y-14986013D01*
X16517013Y-15213748D01*
X16338082Y-15481537D01*
X16214832Y-15779088D01*
X16152000Y-16094967D01*
X16152000Y-16417033D01*
X16214832Y-16732912D01*
X16338082Y-17030463D01*
X16517013Y-17298252D01*
X16744748Y-17525987D01*
X16927001Y-17647765D01*
X16927000Y-27523761D01*
X16922840Y-27566000D01*
X16927000Y-27608239D01*
X16927000Y-27608245D01*
X16939444Y-27734588D01*
X16988619Y-27896699D01*
X17068476Y-28046101D01*
X17175946Y-28177054D01*
X17208765Y-28203988D01*
X21154018Y-32149242D01*
X21180947Y-32182055D01*
X21311899Y-32289525D01*
X21409260Y-32341565D01*
X21461300Y-32369382D01*
X21623411Y-32418557D01*
X21792001Y-32435162D01*
X21834247Y-32431001D01*
X23581731Y-32431001D01*
X23749804Y-32635798D01*
X23977995Y-32823070D01*
X24011541Y-32841001D01*
X23977995Y-32858932D01*
X23749804Y-33046204D01*
X23562532Y-33274395D01*
X23423376Y-33534737D01*
X23337685Y-33817224D01*
X23308750Y-34111001D01*
X23337685Y-34404778D01*
X23423376Y-34687265D01*
X23562532Y-34947607D01*
X23749804Y-35175798D01*
X23977995Y-35363070D01*
X24011541Y-35381001D01*
X23977995Y-35398932D01*
X23749804Y-35586204D01*
X23562532Y-35814395D01*
X23423376Y-36074737D01*
X23337685Y-36357224D01*
X23308750Y-36651001D01*
X23337685Y-36944778D01*
X23353223Y-36995999D01*
X22354988Y-35997765D01*
X22328054Y-35964946D01*
X22197102Y-35857476D01*
X22047700Y-35777619D01*
X21885589Y-35728444D01*
X21759246Y-35716000D01*
X21759239Y-35716000D01*
X21717000Y-35711840D01*
X21674761Y-35716000D01*
X21597595Y-35716000D01*
X21466608Y-35556392D01*
X21248101Y-35377068D01*
X20998808Y-35243818D01*
X20728309Y-35161764D01*
X20517492Y-35141000D01*
X20376508Y-35141000D01*
X20165691Y-35161764D01*
X19895192Y-35243818D01*
X19645899Y-35377068D01*
X19427392Y-35556392D01*
X19248068Y-35774899D01*
X19114818Y-36024192D01*
X19032764Y-36294691D01*
X19005057Y-36576000D01*
X19032764Y-36857309D01*
X19114818Y-37127808D01*
X19248068Y-37377101D01*
X19427392Y-37595608D01*
X19645899Y-37774932D01*
X19895192Y-37908182D01*
X20165691Y-37990236D01*
X20376508Y-38011000D01*
X20517492Y-38011000D01*
X20728309Y-37990236D01*
X20998808Y-37908182D01*
X21248101Y-37774932D01*
X21466608Y-37595608D01*
X21490848Y-37566071D01*
X22127001Y-38202225D01*
X22127000Y-42883761D01*
X22122840Y-42926000D01*
X22127000Y-42968239D01*
X22127000Y-42968245D01*
X22139444Y-43094588D01*
X22188619Y-43256699D01*
X22268476Y-43406101D01*
X22375946Y-43537054D01*
X22408765Y-43563988D01*
X23329833Y-44485057D01*
X23337685Y-44564778D01*
X23423376Y-44847265D01*
X23562532Y-45107607D01*
X23749804Y-45335798D01*
X23977995Y-45523070D01*
X24011541Y-45541001D01*
X23977995Y-45558932D01*
X23749804Y-45746204D01*
X23562532Y-45974395D01*
X23423376Y-46234737D01*
X23337685Y-46517224D01*
X23308750Y-46811001D01*
X23337685Y-47104778D01*
X23423376Y-47387265D01*
X23562532Y-47647607D01*
X23749804Y-47875798D01*
X23977995Y-48063070D01*
X24011541Y-48081001D01*
X23977995Y-48098932D01*
X23749804Y-48286204D01*
X23562532Y-48514395D01*
X23423376Y-48774737D01*
X23337685Y-49057224D01*
X23308750Y-49351001D01*
X23337685Y-49644778D01*
X23423376Y-49927265D01*
X23562532Y-50187607D01*
X23749804Y-50415798D01*
X23977995Y-50603070D01*
X24011541Y-50621001D01*
X23977995Y-50638932D01*
X23749804Y-50826204D01*
X23705911Y-50879687D01*
X22793988Y-49967765D01*
X22767054Y-49934946D01*
X22636102Y-49827476D01*
X22486700Y-49747619D01*
X22324589Y-49698444D01*
X22198246Y-49686000D01*
X22198239Y-49686000D01*
X22156000Y-49681840D01*
X22113761Y-49686000D01*
X11913224Y-49686000D01*
X11147000Y-48919777D01*
X11147000Y-42968824D01*
X11329600Y-43024215D01*
X11557000Y-43046612D01*
X11784399Y-43024215D01*
X11993098Y-42960907D01*
X12057820Y-42995502D01*
X12177518Y-43031812D01*
X12302000Y-43044072D01*
X13352000Y-43044072D01*
X13476482Y-43031812D01*
X13596180Y-42995502D01*
X13706494Y-42936537D01*
X13803185Y-42857185D01*
X13882537Y-42760494D01*
X13918322Y-42693546D01*
X14507000Y-43282224D01*
X14507001Y-46693751D01*
X14502840Y-46736000D01*
X14519444Y-46904589D01*
X14544259Y-46986392D01*
X14568620Y-47066700D01*
X14648477Y-47216102D01*
X14755947Y-47347054D01*
X14788760Y-47373983D01*
X15999017Y-48584240D01*
X16025946Y-48617054D01*
X16156898Y-48724524D01*
X16306300Y-48804381D01*
X16419235Y-48838639D01*
X16468410Y-48853556D01*
X16485558Y-48855245D01*
X16594754Y-48866000D01*
X16594760Y-48866000D01*
X16636999Y-48870160D01*
X16679238Y-48866000D01*
X18026405Y-48866000D01*
X18157392Y-49025608D01*
X18375899Y-49204932D01*
X18625192Y-49338182D01*
X18895691Y-49420236D01*
X19106508Y-49441000D01*
X19247492Y-49441000D01*
X19458309Y-49420236D01*
X19728808Y-49338182D01*
X19978101Y-49204932D01*
X20196608Y-49025608D01*
X20375932Y-48807101D01*
X20509182Y-48557808D01*
X20591236Y-48287309D01*
X20618943Y-48006000D01*
X20591236Y-47724691D01*
X20509182Y-47454192D01*
X20375932Y-47204899D01*
X20196608Y-46986392D01*
X19978101Y-46807068D01*
X19728808Y-46673818D01*
X19458309Y-46591764D01*
X19247492Y-46571000D01*
X19106508Y-46571000D01*
X18895691Y-46591764D01*
X18625192Y-46673818D01*
X18375899Y-46807068D01*
X18157392Y-46986392D01*
X18026405Y-47146000D01*
X16993224Y-47146000D01*
X16227000Y-46379777D01*
X16227000Y-42968238D01*
X16231160Y-42925999D01*
X16227000Y-42883760D01*
X16227000Y-42883754D01*
X16214556Y-42757411D01*
X16165381Y-42595300D01*
X16085524Y-42445898D01*
X15978054Y-42314946D01*
X15945240Y-42288016D01*
X14957000Y-41299777D01*
X14957000Y-40742223D01*
X15945242Y-39753982D01*
X15978054Y-39727054D01*
X16085524Y-39596102D01*
X16165381Y-39446700D01*
X16214556Y-39284589D01*
X16227000Y-39158246D01*
X16227000Y-39158240D01*
X16231160Y-39116001D01*
X16227000Y-39073762D01*
X16227000Y-33916595D01*
X16347747Y-33817500D01*
X16347748Y-38374498D01*
X16343587Y-38416747D01*
X16360191Y-38585336D01*
X16398056Y-38710160D01*
X16409367Y-38747447D01*
X16489224Y-38896849D01*
X16596694Y-39027801D01*
X16629507Y-39054730D01*
X17754849Y-40180072D01*
X17742000Y-40244665D01*
X17742000Y-40527335D01*
X17797147Y-40804574D01*
X17905320Y-41065727D01*
X18062363Y-41300759D01*
X18262241Y-41500637D01*
X18497273Y-41657680D01*
X18758426Y-41765853D01*
X19035665Y-41821000D01*
X19318335Y-41821000D01*
X19595574Y-41765853D01*
X19856727Y-41657680D01*
X20091759Y-41500637D01*
X20291637Y-41300759D01*
X20448680Y-41065727D01*
X20556853Y-40804574D01*
X20612000Y-40527335D01*
X20612000Y-40244665D01*
X20556853Y-39967426D01*
X20448680Y-39706273D01*
X20291637Y-39471241D01*
X20091759Y-39271363D01*
X19856727Y-39114320D01*
X19595574Y-39006147D01*
X19318335Y-38951000D01*
X19035665Y-38951000D01*
X18971072Y-38963849D01*
X18067747Y-38060524D01*
X18067747Y-30838993D01*
X18071908Y-30796747D01*
X18055303Y-30628157D01*
X18006128Y-30466046D01*
X17978311Y-30414006D01*
X17926271Y-30316645D01*
X17818801Y-30185693D01*
X17785989Y-30158765D01*
X14957000Y-27329777D01*
X14957000Y-11218246D01*
X14961161Y-11176000D01*
X14944556Y-11007411D01*
X14895381Y-10845300D01*
X14815524Y-10695898D01*
X14708054Y-10564946D01*
X14577102Y-10457476D01*
X14427700Y-10377619D01*
X14265589Y-10328444D01*
X14139246Y-10316000D01*
X14097000Y-10311839D01*
X14054754Y-10316000D01*
X13183224Y-10316000D01*
X9295922Y-6428699D01*
X9295922Y-6355384D01*
X9447224Y-6292713D01*
X9796905Y-6059064D01*
X10094285Y-5761684D01*
X10327934Y-5412003D01*
X10488875Y-5023457D01*
X10570922Y-4610980D01*
X10570922Y-4190422D01*
X10488875Y-3777945D01*
X10327934Y-3389399D01*
X10094285Y-3039718D01*
X9796905Y-2742338D01*
X9447224Y-2508689D01*
X9058678Y-2347748D01*
X8646201Y-2265701D01*
X8225643Y-2265701D01*
X7813166Y-2347748D01*
X7424620Y-2508689D01*
X7074939Y-2742338D01*
X6777559Y-3039718D01*
X6543910Y-3389399D01*
X6382969Y-3777945D01*
X6300922Y-4190422D01*
X6300922Y-4610980D01*
X6382969Y-5023457D01*
X6543910Y-5412003D01*
X6777559Y-5761684D01*
X7074939Y-6059064D01*
X7424620Y-6292713D01*
X7575923Y-6355385D01*
X7575923Y-6742674D01*
X7571762Y-6784922D01*
X7588366Y-6953511D01*
X7598813Y-6987949D01*
X7637542Y-7115622D01*
X7717399Y-7265024D01*
X7824869Y-7395976D01*
X7857682Y-7422905D01*
X12189017Y-11754241D01*
X12215946Y-11787054D01*
X12346898Y-11894524D01*
X12496300Y-11974381D01*
X12609235Y-12008639D01*
X12658410Y-12023556D01*
X12675558Y-12025245D01*
X12784754Y-12036000D01*
X12784760Y-12036000D01*
X12826999Y-12040160D01*
X12869238Y-12036000D01*
X13237000Y-12036000D01*
X13237001Y-27643751D01*
X13232840Y-27686000D01*
X13249444Y-27854589D01*
X13298620Y-28016700D01*
X13378477Y-28166102D01*
X13401697Y-28194395D01*
X13485947Y-28297054D01*
X13518760Y-28323983D01*
X16347747Y-31152971D01*
X16347747Y-31714500D01*
X16168101Y-31567068D01*
X15918808Y-31433818D01*
X15648309Y-31351764D01*
X15437492Y-31331000D01*
X15296508Y-31331000D01*
X15085691Y-31351764D01*
X14815192Y-31433818D01*
X14565899Y-31567068D01*
X14347392Y-31746392D01*
X14168068Y-31964899D01*
X14034818Y-32214192D01*
X13952764Y-32484691D01*
X13925057Y-32766000D01*
X13952764Y-33047309D01*
X14034818Y-33317808D01*
X14168068Y-33567101D01*
X14347392Y-33785608D01*
X14507001Y-33916596D01*
X14507000Y-38759776D01*
X13518760Y-39748017D01*
X13485947Y-39774946D01*
X13459018Y-39807759D01*
X13459016Y-39807761D01*
X13378477Y-39905898D01*
X13298620Y-40055300D01*
X13249444Y-40217411D01*
X13244469Y-40267928D01*
X12417000Y-40267928D01*
X12417000Y-38202223D01*
X12621072Y-37998151D01*
X12685665Y-38011000D01*
X12968335Y-38011000D01*
X13245574Y-37955853D01*
X13506727Y-37847680D01*
X13741759Y-37690637D01*
X13941637Y-37490759D01*
X14098680Y-37255727D01*
X14206853Y-36994574D01*
X14262000Y-36717335D01*
X14262000Y-36434665D01*
X14206853Y-36157426D01*
X14098680Y-35896273D01*
X13941637Y-35661241D01*
X13741759Y-35461363D01*
X13506727Y-35304320D01*
X13245574Y-35196147D01*
X12968335Y-35141000D01*
X12685665Y-35141000D01*
X12408426Y-35196147D01*
X12147273Y-35304320D01*
X11912241Y-35461363D01*
X11712363Y-35661241D01*
X11555320Y-35896273D01*
X11447147Y-36157426D01*
X11392000Y-36434665D01*
X11392000Y-36717335D01*
X11404849Y-36781928D01*
X10978765Y-37208012D01*
X10945946Y-37234946D01*
X10838476Y-37365899D01*
X10758619Y-37515301D01*
X10747309Y-37552587D01*
X10709445Y-37677410D01*
X10709444Y-37677412D01*
X10697000Y-37803755D01*
X10697000Y-37803761D01*
X10692840Y-37846000D01*
X10697000Y-37888239D01*
X10697001Y-40343176D01*
X10514400Y-40287785D01*
X10287000Y-40265388D01*
X10059601Y-40287785D01*
X9840941Y-40354115D01*
X9639422Y-40461829D01*
X9462789Y-40606788D01*
X9382000Y-40705230D01*
X9382000Y-19473238D01*
X10961167Y-17894072D01*
X11287000Y-17894072D01*
X11411482Y-17881812D01*
X11531180Y-17845502D01*
X11641494Y-17786537D01*
X11738185Y-17707185D01*
X11817537Y-17610494D01*
X11876502Y-17500180D01*
X11912812Y-17380482D01*
X11925072Y-17256000D01*
X11925072Y-16305131D01*
X11929911Y-16256000D01*
X11925072Y-16206869D01*
X11925072Y-15256000D01*
X11912812Y-15131518D01*
X11876502Y-15011820D01*
X11817537Y-14901506D01*
X11738185Y-14804815D01*
X11641494Y-14725463D01*
X11531180Y-14666498D01*
X11411482Y-14630188D01*
X11287000Y-14617928D01*
X10336129Y-14617928D01*
X10286999Y-14613089D01*
X10237869Y-14617928D01*
X9691167Y-14617928D01*
X9382000Y-14308762D01*
X9382000Y-11256322D01*
X9389911Y-11176000D01*
X9358343Y-10855484D01*
X9264852Y-10547285D01*
X9113031Y-10263248D01*
X8908714Y-10014286D01*
X8659752Y-9809969D01*
X8375715Y-9658148D01*
X8067516Y-9564657D01*
X7827322Y-9541000D01*
X7747000Y-9533089D01*
X7666678Y-9541000D01*
X7308460Y-9541000D01*
X4990922Y-7223463D01*
X4990922Y-6523322D01*
X5100102Y-6490203D01*
X5210416Y-6431238D01*
X5307107Y-6351886D01*
X5386459Y-6255195D01*
X5445424Y-6144881D01*
X5481734Y-6025183D01*
X5493994Y-5900701D01*
X5493994Y-2900701D01*
X5481734Y-2776219D01*
X5445424Y-2656521D01*
X5386459Y-2546207D01*
X5307107Y-2449516D01*
X5210416Y-2370164D01*
X5100102Y-2311199D01*
X4980404Y-2274889D01*
X4855922Y-2262629D01*
X1855922Y-2262629D01*
X1731440Y-2274889D01*
X1611742Y-2311199D01*
X1501428Y-2370164D01*
X1404737Y-2449516D01*
X1325385Y-2546207D01*
X1266420Y-2656521D01*
X1230110Y-2776219D01*
X1217850Y-2900701D01*
X1217850Y-5900701D01*
X1230110Y-6025183D01*
X1266420Y-6144881D01*
X1325385Y-6255195D01*
X1404737Y-6351886D01*
X1501428Y-6431238D01*
X1611742Y-6490203D01*
X1720922Y-6523323D01*
X1720922Y-7820381D01*
X1713011Y-7900701D01*
X1720922Y-7981020D01*
X1720922Y-7981022D01*
X1744579Y-8221216D01*
X1838070Y-8529415D01*
X1989891Y-8813452D01*
X2194208Y-9062415D01*
X2256609Y-9113626D01*
X2988984Y-9846001D01*
X2636873Y-9846001D01*
X2205076Y-9931891D01*
X1798332Y-10100370D01*
X1432272Y-10344963D01*
X1120963Y-10656272D01*
X876370Y-11022332D01*
X707891Y-11429076D01*
X660000Y-11669840D01*
X660000Y-660000D01*
X19185460Y-660000D01*
X19028958Y-894222D01*
G36*
X5418301Y-12275319D02*
G01*
X5469507Y-12337714D01*
X5718469Y-12542031D01*
X6002506Y-12693852D01*
X6112001Y-12727067D01*
X6112000Y-14905678D01*
X6104089Y-14986000D01*
X6112000Y-15066319D01*
X6112000Y-15066321D01*
X6112001Y-15066331D01*
X6112000Y-18715678D01*
X6104089Y-18796000D01*
X6112000Y-18876319D01*
X6112000Y-18876321D01*
X6112001Y-18876331D01*
X6112000Y-32846321D01*
X6112001Y-32846331D01*
X6112000Y-49868761D01*
X5724760Y-50256001D01*
X3455340Y-50256001D01*
X3511470Y-50187607D01*
X3650626Y-49927265D01*
X3736317Y-49644778D01*
X3765252Y-49351001D01*
X3736317Y-49057224D01*
X3650626Y-48774737D01*
X3511470Y-48514395D01*
X3324198Y-48286204D01*
X3096007Y-48098932D01*
X3062461Y-48081001D01*
X3096007Y-48063070D01*
X3324198Y-47875798D01*
X3511470Y-47647607D01*
X3650626Y-47387265D01*
X3736317Y-47104778D01*
X3765252Y-46811001D01*
X3736317Y-46517224D01*
X3650626Y-46234737D01*
X3511470Y-45974395D01*
X3324198Y-45746204D01*
X3096007Y-45558932D01*
X3062461Y-45541001D01*
X3096007Y-45523070D01*
X3324198Y-45335798D01*
X3511470Y-45107607D01*
X3650626Y-44847265D01*
X3736317Y-44564778D01*
X3765252Y-44271001D01*
X3736317Y-43977224D01*
X3650626Y-43694737D01*
X3511470Y-43434395D01*
X3324198Y-43206204D01*
X3096007Y-43018932D01*
X3062461Y-43001001D01*
X3096007Y-42983070D01*
X3324198Y-42795798D01*
X3511470Y-42567607D01*
X3650626Y-42307265D01*
X3736317Y-42024778D01*
X3765252Y-41731001D01*
X3736317Y-41437224D01*
X3650626Y-41154737D01*
X3511470Y-40894395D01*
X3324198Y-40666204D01*
X3096007Y-40478932D01*
X3062461Y-40461001D01*
X3096007Y-40443070D01*
X3324198Y-40255798D01*
X3511470Y-40027607D01*
X3650626Y-39767265D01*
X3736317Y-39484778D01*
X3765252Y-39191001D01*
X3736317Y-38897224D01*
X3650626Y-38614737D01*
X3511470Y-38354395D01*
X3324198Y-38126204D01*
X3096007Y-37938932D01*
X3062461Y-37921001D01*
X3096007Y-37903070D01*
X3324198Y-37715798D01*
X3511470Y-37487607D01*
X3650626Y-37227265D01*
X3736317Y-36944778D01*
X3765252Y-36651001D01*
X3736317Y-36357224D01*
X3650626Y-36074737D01*
X3511470Y-35814395D01*
X3324198Y-35586204D01*
X3096007Y-35398932D01*
X3062461Y-35381001D01*
X3096007Y-35363070D01*
X3324198Y-35175798D01*
X3511470Y-34947607D01*
X3650626Y-34687265D01*
X3736317Y-34404778D01*
X3765252Y-34111001D01*
X3736317Y-33817224D01*
X3650626Y-33534737D01*
X3511470Y-33274395D01*
X3324198Y-33046204D01*
X3096007Y-32858932D01*
X3062461Y-32841001D01*
X3096007Y-32823070D01*
X3324198Y-32635798D01*
X3511470Y-32407607D01*
X3650626Y-32147265D01*
X3736317Y-31864778D01*
X3765252Y-31571001D01*
X3736317Y-31277224D01*
X3650626Y-30994737D01*
X3511470Y-30734395D01*
X3324198Y-30506204D01*
X3096007Y-30318932D01*
X3062461Y-30301001D01*
X3096007Y-30283070D01*
X3324198Y-30095798D01*
X3511470Y-29867607D01*
X3650626Y-29607265D01*
X3736317Y-29324778D01*
X3765252Y-29031001D01*
X3736317Y-28737224D01*
X3650626Y-28454737D01*
X3511470Y-28194395D01*
X3324198Y-27966204D01*
X3096007Y-27778932D01*
X3062461Y-27761001D01*
X3096007Y-27743070D01*
X3324198Y-27555798D01*
X3511470Y-27327607D01*
X3650626Y-27067265D01*
X3736317Y-26784778D01*
X3765252Y-26491001D01*
X3736317Y-26197224D01*
X3650626Y-25914737D01*
X3511470Y-25654395D01*
X3324198Y-25426204D01*
X3096007Y-25238932D01*
X3062461Y-25221001D01*
X3096007Y-25203070D01*
X3324198Y-25015798D01*
X3511470Y-24787607D01*
X3650626Y-24527265D01*
X3736317Y-24244778D01*
X3765252Y-23951001D01*
X3736317Y-23657224D01*
X3650626Y-23374737D01*
X3511470Y-23114395D01*
X3324198Y-22886204D01*
X3096007Y-22698932D01*
X3062461Y-22681001D01*
X3096007Y-22663070D01*
X3324198Y-22475798D01*
X3511470Y-22247607D01*
X3650626Y-21987265D01*
X3736317Y-21704778D01*
X3765252Y-21411001D01*
X3736317Y-21117224D01*
X3650626Y-20834737D01*
X3511470Y-20574395D01*
X3324198Y-20346204D01*
X3096007Y-20158932D01*
X3062461Y-20141001D01*
X3096007Y-20123070D01*
X3324198Y-19935798D01*
X3511470Y-19707607D01*
X3650626Y-19447265D01*
X3736317Y-19164778D01*
X3765252Y-18871001D01*
X3736317Y-18577224D01*
X3650626Y-18294737D01*
X3511470Y-18034395D01*
X3324198Y-17806204D01*
X3096007Y-17618932D01*
X3062461Y-17601001D01*
X3096007Y-17583070D01*
X3324198Y-17395798D01*
X3511470Y-17167607D01*
X3650626Y-16907265D01*
X3736317Y-16624778D01*
X3765252Y-16331001D01*
X3736317Y-16037224D01*
X3650626Y-15754737D01*
X3511470Y-15494395D01*
X3324198Y-15266204D01*
X3096007Y-15078932D01*
X2835665Y-14939776D01*
X2553178Y-14854085D01*
X2333020Y-14832401D01*
X1880982Y-14832401D01*
X1660824Y-14854085D01*
X1378337Y-14939776D01*
X1117995Y-15078932D01*
X889804Y-15266204D01*
X702532Y-15494395D01*
X660000Y-15573967D01*
X660000Y-12492162D01*
X707891Y-12732926D01*
X876370Y-13139670D01*
X1120963Y-13505730D01*
X1432272Y-13817039D01*
X1798332Y-14061632D01*
X2205076Y-14230111D01*
X2636873Y-14316001D01*
X3077129Y-14316001D01*
X3508926Y-14230111D01*
X3915670Y-14061632D01*
X4281730Y-13817039D01*
X4593039Y-13505730D01*
X4837632Y-13139670D01*
X5006111Y-12732926D01*
X5092001Y-12301129D01*
X5092001Y-11949019D01*
X5418301Y-12275319D01*
X5418301Y-12275319D01*
G37*
X5418301Y-12275319D02*
X5469507Y-12337714D01*
X5718469Y-12542031D01*
X6002506Y-12693852D01*
X6112001Y-12727067D01*
X6112000Y-14905678D01*
X6104089Y-14986000D01*
X6112000Y-15066319D01*
X6112000Y-15066321D01*
X6112001Y-15066331D01*
X6112000Y-18715678D01*
X6104089Y-18796000D01*
X6112000Y-18876319D01*
X6112000Y-18876321D01*
X6112001Y-18876331D01*
X6112000Y-32846321D01*
X6112001Y-32846331D01*
X6112000Y-49868761D01*
X5724760Y-50256001D01*
X3455340Y-50256001D01*
X3511470Y-50187607D01*
X3650626Y-49927265D01*
X3736317Y-49644778D01*
X3765252Y-49351001D01*
X3736317Y-49057224D01*
X3650626Y-48774737D01*
X3511470Y-48514395D01*
X3324198Y-48286204D01*
X3096007Y-48098932D01*
X3062461Y-48081001D01*
X3096007Y-48063070D01*
X3324198Y-47875798D01*
X3511470Y-47647607D01*
X3650626Y-47387265D01*
X3736317Y-47104778D01*
X3765252Y-46811001D01*
X3736317Y-46517224D01*
X3650626Y-46234737D01*
X3511470Y-45974395D01*
X3324198Y-45746204D01*
X3096007Y-45558932D01*
X3062461Y-45541001D01*
X3096007Y-45523070D01*
X3324198Y-45335798D01*
X3511470Y-45107607D01*
X3650626Y-44847265D01*
X3736317Y-44564778D01*
X3765252Y-44271001D01*
X3736317Y-43977224D01*
X3650626Y-43694737D01*
X3511470Y-43434395D01*
X3324198Y-43206204D01*
X3096007Y-43018932D01*
X3062461Y-43001001D01*
X3096007Y-42983070D01*
X3324198Y-42795798D01*
X3511470Y-42567607D01*
X3650626Y-42307265D01*
X3736317Y-42024778D01*
X3765252Y-41731001D01*
X3736317Y-41437224D01*
X3650626Y-41154737D01*
X3511470Y-40894395D01*
X3324198Y-40666204D01*
X3096007Y-40478932D01*
X3062461Y-40461001D01*
X3096007Y-40443070D01*
X3324198Y-40255798D01*
X3511470Y-40027607D01*
X3650626Y-39767265D01*
X3736317Y-39484778D01*
X3765252Y-39191001D01*
X3736317Y-38897224D01*
X3650626Y-38614737D01*
X3511470Y-38354395D01*
X3324198Y-38126204D01*
X3096007Y-37938932D01*
X3062461Y-37921001D01*
X3096007Y-37903070D01*
X3324198Y-37715798D01*
X3511470Y-37487607D01*
X3650626Y-37227265D01*
X3736317Y-36944778D01*
X3765252Y-36651001D01*
X3736317Y-36357224D01*
X3650626Y-36074737D01*
X3511470Y-35814395D01*
X3324198Y-35586204D01*
X3096007Y-35398932D01*
X3062461Y-35381001D01*
X3096007Y-35363070D01*
X3324198Y-35175798D01*
X3511470Y-34947607D01*
X3650626Y-34687265D01*
X3736317Y-34404778D01*
X3765252Y-34111001D01*
X3736317Y-33817224D01*
X3650626Y-33534737D01*
X3511470Y-33274395D01*
X3324198Y-33046204D01*
X3096007Y-32858932D01*
X3062461Y-32841001D01*
X3096007Y-32823070D01*
X3324198Y-32635798D01*
X3511470Y-32407607D01*
X3650626Y-32147265D01*
X3736317Y-31864778D01*
X3765252Y-31571001D01*
X3736317Y-31277224D01*
X3650626Y-30994737D01*
X3511470Y-30734395D01*
X3324198Y-30506204D01*
X3096007Y-30318932D01*
X3062461Y-30301001D01*
X3096007Y-30283070D01*
X3324198Y-30095798D01*
X3511470Y-29867607D01*
X3650626Y-29607265D01*
X3736317Y-29324778D01*
X3765252Y-29031001D01*
X3736317Y-28737224D01*
X3650626Y-28454737D01*
X3511470Y-28194395D01*
X3324198Y-27966204D01*
X3096007Y-27778932D01*
X3062461Y-27761001D01*
X3096007Y-27743070D01*
X3324198Y-27555798D01*
X3511470Y-27327607D01*
X3650626Y-27067265D01*
X3736317Y-26784778D01*
X3765252Y-26491001D01*
X3736317Y-26197224D01*
X3650626Y-25914737D01*
X3511470Y-25654395D01*
X3324198Y-25426204D01*
X3096007Y-25238932D01*
X3062461Y-25221001D01*
X3096007Y-25203070D01*
X3324198Y-25015798D01*
X3511470Y-24787607D01*
X3650626Y-24527265D01*
X3736317Y-24244778D01*
X3765252Y-23951001D01*
X3736317Y-23657224D01*
X3650626Y-23374737D01*
X3511470Y-23114395D01*
X3324198Y-22886204D01*
X3096007Y-22698932D01*
X3062461Y-22681001D01*
X3096007Y-22663070D01*
X3324198Y-22475798D01*
X3511470Y-22247607D01*
X3650626Y-21987265D01*
X3736317Y-21704778D01*
X3765252Y-21411001D01*
X3736317Y-21117224D01*
X3650626Y-20834737D01*
X3511470Y-20574395D01*
X3324198Y-20346204D01*
X3096007Y-20158932D01*
X3062461Y-20141001D01*
X3096007Y-20123070D01*
X3324198Y-19935798D01*
X3511470Y-19707607D01*
X3650626Y-19447265D01*
X3736317Y-19164778D01*
X3765252Y-18871001D01*
X3736317Y-18577224D01*
X3650626Y-18294737D01*
X3511470Y-18034395D01*
X3324198Y-17806204D01*
X3096007Y-17618932D01*
X3062461Y-17601001D01*
X3096007Y-17583070D01*
X3324198Y-17395798D01*
X3511470Y-17167607D01*
X3650626Y-16907265D01*
X3736317Y-16624778D01*
X3765252Y-16331001D01*
X3736317Y-16037224D01*
X3650626Y-15754737D01*
X3511470Y-15494395D01*
X3324198Y-15266204D01*
X3096007Y-15078932D01*
X2835665Y-14939776D01*
X2553178Y-14854085D01*
X2333020Y-14832401D01*
X1880982Y-14832401D01*
X1660824Y-14854085D01*
X1378337Y-14939776D01*
X1117995Y-15078932D01*
X889804Y-15266204D01*
X702532Y-15494395D01*
X660000Y-15573967D01*
X660000Y-12492162D01*
X707891Y-12732926D01*
X876370Y-13139670D01*
X1120963Y-13505730D01*
X1432272Y-13817039D01*
X1798332Y-14061632D01*
X2205076Y-14230111D01*
X2636873Y-14316001D01*
X3077129Y-14316001D01*
X3508926Y-14230111D01*
X3915670Y-14061632D01*
X4281730Y-13817039D01*
X4593039Y-13505730D01*
X4837632Y-13139670D01*
X5006111Y-12732926D01*
X5092001Y-12301129D01*
X5092001Y-11949019D01*
X5418301Y-12275319D01*
G36*
X702532Y-47647607D02*
G01*
X889804Y-47875798D01*
X1117995Y-48063070D01*
X1151541Y-48081001D01*
X1117995Y-48098932D01*
X889804Y-48286204D01*
X702532Y-48514395D01*
X660000Y-48593967D01*
X660000Y-47568035D01*
X702532Y-47647607D01*
X702532Y-47647607D01*
G37*
X702532Y-47647607D02*
X889804Y-47875798D01*
X1117995Y-48063070D01*
X1151541Y-48081001D01*
X1117995Y-48098932D01*
X889804Y-48286204D01*
X702532Y-48514395D01*
X660000Y-48593967D01*
X660000Y-47568035D01*
X702532Y-47647607D01*
G36*
X26391000Y-48550933D02*
G01*
X26371470Y-48514395D01*
X26184198Y-48286204D01*
X25956007Y-48098932D01*
X25922461Y-48081001D01*
X25956007Y-48063070D01*
X26184198Y-47875798D01*
X26371470Y-47647607D01*
X26391000Y-47611069D01*
X26391000Y-48550933D01*
X26391000Y-48550933D01*
G37*
X26391000Y-48550933D02*
X26371470Y-48514395D01*
X26184198Y-48286204D01*
X25956007Y-48098932D01*
X25922461Y-48081001D01*
X25956007Y-48063070D01*
X26184198Y-47875798D01*
X26371470Y-47647607D01*
X26391000Y-47611069D01*
X26391000Y-48550933D01*
G36*
X702532Y-45107607D02*
G01*
X889804Y-45335798D01*
X1117995Y-45523070D01*
X1151541Y-45541001D01*
X1117995Y-45558932D01*
X889804Y-45746204D01*
X702532Y-45974395D01*
X660000Y-46053967D01*
X660000Y-45028035D01*
X702532Y-45107607D01*
X702532Y-45107607D01*
G37*
X702532Y-45107607D02*
X889804Y-45335798D01*
X1117995Y-45523070D01*
X1151541Y-45541001D01*
X1117995Y-45558932D01*
X889804Y-45746204D01*
X702532Y-45974395D01*
X660000Y-46053967D01*
X660000Y-45028035D01*
X702532Y-45107607D01*
G36*
X26391000Y-46010933D02*
G01*
X26371470Y-45974395D01*
X26184198Y-45746204D01*
X25956007Y-45558932D01*
X25922461Y-45541001D01*
X25956007Y-45523070D01*
X26184198Y-45335798D01*
X26371470Y-45107607D01*
X26391000Y-45071069D01*
X26391000Y-46010933D01*
X26391000Y-46010933D01*
G37*
X26391000Y-46010933D02*
X26371470Y-45974395D01*
X26184198Y-45746204D01*
X25956007Y-45558932D01*
X25922461Y-45541001D01*
X25956007Y-45523070D01*
X26184198Y-45335798D01*
X26371470Y-45107607D01*
X26391000Y-45071069D01*
X26391000Y-46010933D01*
G36*
X702532Y-42567607D02*
G01*
X889804Y-42795798D01*
X1117995Y-42983070D01*
X1151541Y-43001001D01*
X1117995Y-43018932D01*
X889804Y-43206204D01*
X702532Y-43434395D01*
X660000Y-43513967D01*
X660000Y-42488035D01*
X702532Y-42567607D01*
X702532Y-42567607D01*
G37*
X702532Y-42567607D02*
X889804Y-42795798D01*
X1117995Y-42983070D01*
X1151541Y-43001001D01*
X1117995Y-43018932D01*
X889804Y-43206204D01*
X702532Y-43434395D01*
X660000Y-43513967D01*
X660000Y-42488035D01*
X702532Y-42567607D01*
G36*
X26391000Y-43470933D02*
G01*
X26371470Y-43434395D01*
X26184198Y-43206204D01*
X25956007Y-43018932D01*
X25922461Y-43001001D01*
X25956007Y-42983070D01*
X26184198Y-42795798D01*
X26371470Y-42567607D01*
X26391000Y-42531068D01*
X26391000Y-43470933D01*
X26391000Y-43470933D01*
G37*
X26391000Y-43470933D02*
X26371470Y-43434395D01*
X26184198Y-43206204D01*
X25956007Y-43018932D01*
X25922461Y-43001001D01*
X25956007Y-42983070D01*
X26184198Y-42795798D01*
X26371470Y-42567607D01*
X26391000Y-42531068D01*
X26391000Y-43470933D01*
G36*
X702532Y-40027607D02*
G01*
X889804Y-40255798D01*
X1117995Y-40443070D01*
X1151541Y-40461001D01*
X1117995Y-40478932D01*
X889804Y-40666204D01*
X702532Y-40894395D01*
X660000Y-40973967D01*
X660000Y-39948035D01*
X702532Y-40027607D01*
X702532Y-40027607D01*
G37*
X702532Y-40027607D02*
X889804Y-40255798D01*
X1117995Y-40443070D01*
X1151541Y-40461001D01*
X1117995Y-40478932D01*
X889804Y-40666204D01*
X702532Y-40894395D01*
X660000Y-40973967D01*
X660000Y-39948035D01*
X702532Y-40027607D01*
G36*
X26391000Y-40930934D02*
G01*
X26371470Y-40894395D01*
X26184198Y-40666204D01*
X25956007Y-40478932D01*
X25922461Y-40461001D01*
X25956007Y-40443070D01*
X26184198Y-40255798D01*
X26371470Y-40027607D01*
X26391000Y-39991068D01*
X26391000Y-40930934D01*
X26391000Y-40930934D01*
G37*
X26391000Y-40930934D02*
X26371470Y-40894395D01*
X26184198Y-40666204D01*
X25956007Y-40478932D01*
X25922461Y-40461001D01*
X25956007Y-40443070D01*
X26184198Y-40255798D01*
X26371470Y-40027607D01*
X26391000Y-39991068D01*
X26391000Y-40930934D01*
G36*
X23977995Y-40443070D02*
G01*
X24011541Y-40461001D01*
X23977995Y-40478932D01*
X23847000Y-40586437D01*
X23847000Y-40335565D01*
X23977995Y-40443070D01*
X23977995Y-40443070D01*
G37*
X23977995Y-40443070D02*
X24011541Y-40461001D01*
X23977995Y-40478932D01*
X23847000Y-40586437D01*
X23847000Y-40335565D01*
X23977995Y-40443070D01*
G36*
X702532Y-37487607D02*
G01*
X889804Y-37715798D01*
X1117995Y-37903070D01*
X1151541Y-37921001D01*
X1117995Y-37938932D01*
X889804Y-38126204D01*
X702532Y-38354395D01*
X660000Y-38433967D01*
X660000Y-37408035D01*
X702532Y-37487607D01*
X702532Y-37487607D01*
G37*
X702532Y-37487607D02*
X889804Y-37715798D01*
X1117995Y-37903070D01*
X1151541Y-37921001D01*
X1117995Y-37938932D01*
X889804Y-38126204D01*
X702532Y-38354395D01*
X660000Y-38433967D01*
X660000Y-37408035D01*
X702532Y-37487607D01*
G36*
X26391000Y-38390934D02*
G01*
X26371470Y-38354395D01*
X26184198Y-38126204D01*
X25956007Y-37938932D01*
X25922461Y-37921001D01*
X25956007Y-37903070D01*
X26184198Y-37715798D01*
X26371470Y-37487607D01*
X26391000Y-37451068D01*
X26391000Y-38390934D01*
X26391000Y-38390934D01*
G37*
X26391000Y-38390934D02*
X26371470Y-38354395D01*
X26184198Y-38126204D01*
X25956007Y-37938932D01*
X25922461Y-37921001D01*
X25956007Y-37903070D01*
X26184198Y-37715798D01*
X26371470Y-37487607D01*
X26391000Y-37451068D01*
X26391000Y-38390934D01*
G36*
X23977995Y-37903070D02*
G01*
X24011541Y-37921001D01*
X23977995Y-37938932D01*
X23847000Y-38046437D01*
X23847000Y-37888238D01*
X23851160Y-37845999D01*
X23847000Y-37803760D01*
X23847000Y-37803754D01*
X23846122Y-37794845D01*
X23977995Y-37903070D01*
X23977995Y-37903070D01*
G37*
X23977995Y-37903070D02*
X24011541Y-37921001D01*
X23977995Y-37938932D01*
X23847000Y-38046437D01*
X23847000Y-37888238D01*
X23851160Y-37845999D01*
X23847000Y-37803760D01*
X23847000Y-37803754D01*
X23846122Y-37794845D01*
X23977995Y-37903070D01*
G36*
X702532Y-34947607D02*
G01*
X889804Y-35175798D01*
X1117995Y-35363070D01*
X1151541Y-35381001D01*
X1117995Y-35398932D01*
X889804Y-35586204D01*
X702532Y-35814395D01*
X660000Y-35893967D01*
X660000Y-34868035D01*
X702532Y-34947607D01*
X702532Y-34947607D01*
G37*
X702532Y-34947607D02*
X889804Y-35175798D01*
X1117995Y-35363070D01*
X1151541Y-35381001D01*
X1117995Y-35398932D01*
X889804Y-35586204D01*
X702532Y-35814395D01*
X660000Y-35893967D01*
X660000Y-34868035D01*
X702532Y-34947607D01*
G36*
X26391000Y-35850934D02*
G01*
X26371470Y-35814395D01*
X26184198Y-35586204D01*
X25956007Y-35398932D01*
X25922461Y-35381001D01*
X25956007Y-35363070D01*
X26184198Y-35175798D01*
X26371470Y-34947607D01*
X26391000Y-34911068D01*
X26391000Y-35850934D01*
X26391000Y-35850934D01*
G37*
X26391000Y-35850934D02*
X26371470Y-35814395D01*
X26184198Y-35586204D01*
X25956007Y-35398932D01*
X25922461Y-35381001D01*
X25956007Y-35363070D01*
X26184198Y-35175798D01*
X26371470Y-34947607D01*
X26391000Y-34911068D01*
X26391000Y-35850934D01*
G36*
X702532Y-32407607D02*
G01*
X889804Y-32635798D01*
X1117995Y-32823070D01*
X1151541Y-32841001D01*
X1117995Y-32858932D01*
X889804Y-33046204D01*
X702532Y-33274395D01*
X660000Y-33353967D01*
X660000Y-32328035D01*
X702532Y-32407607D01*
X702532Y-32407607D01*
G37*
X702532Y-32407607D02*
X889804Y-32635798D01*
X1117995Y-32823070D01*
X1151541Y-32841001D01*
X1117995Y-32858932D01*
X889804Y-33046204D01*
X702532Y-33274395D01*
X660000Y-33353967D01*
X660000Y-32328035D01*
X702532Y-32407607D01*
G36*
X26391000Y-33310934D02*
G01*
X26371470Y-33274395D01*
X26184198Y-33046204D01*
X25956007Y-32858932D01*
X25922461Y-32841001D01*
X25956007Y-32823070D01*
X26184198Y-32635798D01*
X26371470Y-32407607D01*
X26391000Y-32371068D01*
X26391000Y-33310934D01*
X26391000Y-33310934D01*
G37*
X26391000Y-33310934D02*
X26371470Y-33274395D01*
X26184198Y-33046204D01*
X25956007Y-32858932D01*
X25922461Y-32841001D01*
X25956007Y-32823070D01*
X26184198Y-32635798D01*
X26371470Y-32407607D01*
X26391000Y-32371068D01*
X26391000Y-33310934D01*
G36*
X702532Y-29867607D02*
G01*
X889804Y-30095798D01*
X1117995Y-30283070D01*
X1151541Y-30301001D01*
X1117995Y-30318932D01*
X889804Y-30506204D01*
X702532Y-30734395D01*
X660000Y-30813967D01*
X660000Y-29788035D01*
X702532Y-29867607D01*
X702532Y-29867607D01*
G37*
X702532Y-29867607D02*
X889804Y-30095798D01*
X1117995Y-30283070D01*
X1151541Y-30301001D01*
X1117995Y-30318932D01*
X889804Y-30506204D01*
X702532Y-30734395D01*
X660000Y-30813967D01*
X660000Y-29788035D01*
X702532Y-29867607D01*
G36*
X26391000Y-30770934D02*
G01*
X26371470Y-30734395D01*
X26184198Y-30506204D01*
X25956007Y-30318932D01*
X25922461Y-30301001D01*
X25956007Y-30283070D01*
X26184198Y-30095798D01*
X26371470Y-29867607D01*
X26391000Y-29831068D01*
X26391000Y-30770934D01*
X26391000Y-30770934D01*
G37*
X26391000Y-30770934D02*
X26371470Y-30734395D01*
X26184198Y-30506204D01*
X25956007Y-30318932D01*
X25922461Y-30301001D01*
X25956007Y-30283070D01*
X26184198Y-30095798D01*
X26371470Y-29867607D01*
X26391000Y-29831068D01*
X26391000Y-30770934D01*
G36*
X21222001Y-22928751D02*
G01*
X21217840Y-22971000D01*
X21234444Y-23139589D01*
X21283620Y-23301700D01*
X21363477Y-23451102D01*
X21470947Y-23582054D01*
X21503760Y-23608983D01*
X22424017Y-24529241D01*
X22450947Y-24562055D01*
X22581899Y-24669525D01*
X22679260Y-24721565D01*
X22731300Y-24749382D01*
X22893411Y-24798557D01*
X23062001Y-24815162D01*
X23104247Y-24811001D01*
X23581731Y-24811001D01*
X23749804Y-25015798D01*
X23977995Y-25203070D01*
X24011541Y-25221001D01*
X23977995Y-25238932D01*
X23749804Y-25426204D01*
X23562532Y-25654395D01*
X23423376Y-25914737D01*
X23337685Y-26197224D01*
X23308750Y-26491001D01*
X23337685Y-26784778D01*
X23423376Y-27067265D01*
X23562532Y-27327607D01*
X23749804Y-27555798D01*
X23977995Y-27743070D01*
X24011541Y-27761001D01*
X23977995Y-27778932D01*
X23749804Y-27966204D01*
X23562532Y-28194395D01*
X23423376Y-28454737D01*
X23337685Y-28737224D01*
X23308750Y-29031001D01*
X23337685Y-29324778D01*
X23423376Y-29607265D01*
X23562532Y-29867607D01*
X23749804Y-30095798D01*
X23977995Y-30283070D01*
X24011541Y-30301001D01*
X23977995Y-30318932D01*
X23749804Y-30506204D01*
X23581731Y-30711001D01*
X22148225Y-30711001D01*
X18647000Y-27209777D01*
X18647000Y-17647764D01*
X18829252Y-17525987D01*
X19056987Y-17298252D01*
X19235918Y-17030463D01*
X19359168Y-16732912D01*
X19422000Y-16417033D01*
X19422000Y-16094967D01*
X19359168Y-15779088D01*
X19235918Y-15481537D01*
X19056987Y-15213748D01*
X18829252Y-14986013D01*
X18647000Y-14864236D01*
X18647000Y-14192223D01*
X21056118Y-11783106D01*
X21088930Y-11756178D01*
X21196400Y-11625226D01*
X21222000Y-11577331D01*
X21222001Y-22928751D01*
X21222001Y-22928751D01*
G37*
X21222001Y-22928751D02*
X21217840Y-22971000D01*
X21234444Y-23139589D01*
X21283620Y-23301700D01*
X21363477Y-23451102D01*
X21470947Y-23582054D01*
X21503760Y-23608983D01*
X22424017Y-24529241D01*
X22450947Y-24562055D01*
X22581899Y-24669525D01*
X22679260Y-24721565D01*
X22731300Y-24749382D01*
X22893411Y-24798557D01*
X23062001Y-24815162D01*
X23104247Y-24811001D01*
X23581731Y-24811001D01*
X23749804Y-25015798D01*
X23977995Y-25203070D01*
X24011541Y-25221001D01*
X23977995Y-25238932D01*
X23749804Y-25426204D01*
X23562532Y-25654395D01*
X23423376Y-25914737D01*
X23337685Y-26197224D01*
X23308750Y-26491001D01*
X23337685Y-26784778D01*
X23423376Y-27067265D01*
X23562532Y-27327607D01*
X23749804Y-27555798D01*
X23977995Y-27743070D01*
X24011541Y-27761001D01*
X23977995Y-27778932D01*
X23749804Y-27966204D01*
X23562532Y-28194395D01*
X23423376Y-28454737D01*
X23337685Y-28737224D01*
X23308750Y-29031001D01*
X23337685Y-29324778D01*
X23423376Y-29607265D01*
X23562532Y-29867607D01*
X23749804Y-30095798D01*
X23977995Y-30283070D01*
X24011541Y-30301001D01*
X23977995Y-30318932D01*
X23749804Y-30506204D01*
X23581731Y-30711001D01*
X22148225Y-30711001D01*
X18647000Y-27209777D01*
X18647000Y-17647764D01*
X18829252Y-17525987D01*
X19056987Y-17298252D01*
X19235918Y-17030463D01*
X19359168Y-16732912D01*
X19422000Y-16417033D01*
X19422000Y-16094967D01*
X19359168Y-15779088D01*
X19235918Y-15481537D01*
X19056987Y-15213748D01*
X18829252Y-14986013D01*
X18647000Y-14864236D01*
X18647000Y-14192223D01*
X21056118Y-11783106D01*
X21088930Y-11756178D01*
X21196400Y-11625226D01*
X21222000Y-11577331D01*
X21222001Y-22928751D01*
G36*
X702532Y-27327607D02*
G01*
X889804Y-27555798D01*
X1117995Y-27743070D01*
X1151541Y-27761001D01*
X1117995Y-27778932D01*
X889804Y-27966204D01*
X702532Y-28194395D01*
X660000Y-28273967D01*
X660000Y-27248035D01*
X702532Y-27327607D01*
X702532Y-27327607D01*
G37*
X702532Y-27327607D02*
X889804Y-27555798D01*
X1117995Y-27743070D01*
X1151541Y-27761001D01*
X1117995Y-27778932D01*
X889804Y-27966204D01*
X702532Y-28194395D01*
X660000Y-28273967D01*
X660000Y-27248035D01*
X702532Y-27327607D01*
G36*
X26391001Y-28230934D02*
G01*
X26371470Y-28194395D01*
X26184198Y-27966204D01*
X25956007Y-27778932D01*
X25922461Y-27761001D01*
X25956007Y-27743070D01*
X26184198Y-27555798D01*
X26371470Y-27327607D01*
X26391001Y-27291068D01*
X26391001Y-28230934D01*
X26391001Y-28230934D01*
G37*
X26391001Y-28230934D02*
X26371470Y-28194395D01*
X26184198Y-27966204D01*
X25956007Y-27778932D01*
X25922461Y-27761001D01*
X25956007Y-27743070D01*
X26184198Y-27555798D01*
X26371470Y-27327607D01*
X26391001Y-27291068D01*
X26391001Y-28230934D01*
G36*
X702532Y-24787607D02*
G01*
X889804Y-25015798D01*
X1117995Y-25203070D01*
X1151541Y-25221001D01*
X1117995Y-25238932D01*
X889804Y-25426204D01*
X702532Y-25654395D01*
X660000Y-25733967D01*
X660000Y-24708035D01*
X702532Y-24787607D01*
X702532Y-24787607D01*
G37*
X702532Y-24787607D02*
X889804Y-25015798D01*
X1117995Y-25203070D01*
X1151541Y-25221001D01*
X1117995Y-25238932D01*
X889804Y-25426204D01*
X702532Y-25654395D01*
X660000Y-25733967D01*
X660000Y-24708035D01*
X702532Y-24787607D01*
G36*
X26391001Y-25690934D02*
G01*
X26371470Y-25654395D01*
X26184198Y-25426204D01*
X25956007Y-25238932D01*
X25922461Y-25221001D01*
X25956007Y-25203070D01*
X26184198Y-25015798D01*
X26371470Y-24787607D01*
X26391001Y-24751068D01*
X26391001Y-25690934D01*
X26391001Y-25690934D01*
G37*
X26391001Y-25690934D02*
X26371470Y-25654395D01*
X26184198Y-25426204D01*
X25956007Y-25238932D01*
X25922461Y-25221001D01*
X25956007Y-25203070D01*
X26184198Y-25015798D01*
X26371470Y-24787607D01*
X26391001Y-24751068D01*
X26391001Y-25690934D01*
G36*
X702532Y-22247607D02*
G01*
X889804Y-22475798D01*
X1117995Y-22663070D01*
X1151541Y-22681001D01*
X1117995Y-22698932D01*
X889804Y-22886204D01*
X702532Y-23114395D01*
X660000Y-23193967D01*
X660000Y-22168035D01*
X702532Y-22247607D01*
X702532Y-22247607D01*
G37*
X702532Y-22247607D02*
X889804Y-22475798D01*
X1117995Y-22663070D01*
X1151541Y-22681001D01*
X1117995Y-22698932D01*
X889804Y-22886204D01*
X702532Y-23114395D01*
X660000Y-23193967D01*
X660000Y-22168035D01*
X702532Y-22247607D01*
G36*
X26391001Y-23150934D02*
G01*
X26371470Y-23114395D01*
X26184198Y-22886204D01*
X25956007Y-22698932D01*
X25922461Y-22681001D01*
X25956007Y-22663070D01*
X26184198Y-22475798D01*
X26371470Y-22247607D01*
X26391001Y-22211068D01*
X26391001Y-23150934D01*
X26391001Y-23150934D01*
G37*
X26391001Y-23150934D02*
X26371470Y-23114395D01*
X26184198Y-22886204D01*
X25956007Y-22698932D01*
X25922461Y-22681001D01*
X25956007Y-22663070D01*
X26184198Y-22475798D01*
X26371470Y-22247607D01*
X26391001Y-22211068D01*
X26391001Y-23150934D01*
G36*
X26391001Y-15530934D02*
G01*
X26371470Y-15494395D01*
X26184198Y-15266204D01*
X25956007Y-15078932D01*
X25695665Y-14939776D01*
X25413178Y-14854085D01*
X25193020Y-14832401D01*
X24740982Y-14832401D01*
X24520824Y-14854085D01*
X24238337Y-14939776D01*
X23977995Y-15078932D01*
X23749804Y-15266204D01*
X23562532Y-15494395D01*
X23423376Y-15754737D01*
X23337685Y-16037224D01*
X23308750Y-16331001D01*
X23337685Y-16624778D01*
X23423376Y-16907265D01*
X23562532Y-17167607D01*
X23749804Y-17395798D01*
X23977995Y-17583070D01*
X24011541Y-17601001D01*
X23977995Y-17618932D01*
X23749804Y-17806204D01*
X23562532Y-18034395D01*
X23423376Y-18294737D01*
X23337685Y-18577224D01*
X23308750Y-18871001D01*
X23337685Y-19164778D01*
X23423376Y-19447265D01*
X23562532Y-19707607D01*
X23749804Y-19935798D01*
X23977995Y-20123070D01*
X24011541Y-20141001D01*
X23977995Y-20158932D01*
X23749804Y-20346204D01*
X23562532Y-20574395D01*
X23423376Y-20834737D01*
X23337685Y-21117224D01*
X23308750Y-21411001D01*
X23337685Y-21704778D01*
X23423376Y-21987265D01*
X23562532Y-22247607D01*
X23749804Y-22475798D01*
X23977995Y-22663070D01*
X24011541Y-22681001D01*
X23977995Y-22698932D01*
X23749804Y-22886204D01*
X23581731Y-23091001D01*
X23418225Y-23091001D01*
X22942000Y-22614777D01*
X22942000Y-13990583D01*
X23048332Y-14061632D01*
X23455076Y-14230111D01*
X23886873Y-14316001D01*
X24327129Y-14316001D01*
X24758926Y-14230111D01*
X25165670Y-14061632D01*
X25531730Y-13817039D01*
X25843039Y-13505730D01*
X26087632Y-13139670D01*
X26256111Y-12732926D01*
X26342001Y-12301129D01*
X26342001Y-11860873D01*
X26256111Y-11429076D01*
X26087632Y-11022332D01*
X25843039Y-10656272D01*
X25531730Y-10344963D01*
X25165670Y-10100370D01*
X24758926Y-9931891D01*
X24327129Y-9846001D01*
X23886873Y-9846001D01*
X23455076Y-9931891D01*
X23048332Y-10100370D01*
X22942000Y-10171419D01*
X22942000Y-9897223D01*
X23676004Y-9163219D01*
X23707889Y-9210937D01*
X23935624Y-9438672D01*
X24203413Y-9617603D01*
X24500964Y-9740853D01*
X24816843Y-9803685D01*
X25138909Y-9803685D01*
X25454788Y-9740853D01*
X25752339Y-9617603D01*
X26020128Y-9438672D01*
X26247863Y-9210937D01*
X26391001Y-8996716D01*
X26391001Y-15530934D01*
X26391001Y-15530934D01*
G37*
X26391001Y-15530934D02*
X26371470Y-15494395D01*
X26184198Y-15266204D01*
X25956007Y-15078932D01*
X25695665Y-14939776D01*
X25413178Y-14854085D01*
X25193020Y-14832401D01*
X24740982Y-14832401D01*
X24520824Y-14854085D01*
X24238337Y-14939776D01*
X23977995Y-15078932D01*
X23749804Y-15266204D01*
X23562532Y-15494395D01*
X23423376Y-15754737D01*
X23337685Y-16037224D01*
X23308750Y-16331001D01*
X23337685Y-16624778D01*
X23423376Y-16907265D01*
X23562532Y-17167607D01*
X23749804Y-17395798D01*
X23977995Y-17583070D01*
X24011541Y-17601001D01*
X23977995Y-17618932D01*
X23749804Y-17806204D01*
X23562532Y-18034395D01*
X23423376Y-18294737D01*
X23337685Y-18577224D01*
X23308750Y-18871001D01*
X23337685Y-19164778D01*
X23423376Y-19447265D01*
X23562532Y-19707607D01*
X23749804Y-19935798D01*
X23977995Y-20123070D01*
X24011541Y-20141001D01*
X23977995Y-20158932D01*
X23749804Y-20346204D01*
X23562532Y-20574395D01*
X23423376Y-20834737D01*
X23337685Y-21117224D01*
X23308750Y-21411001D01*
X23337685Y-21704778D01*
X23423376Y-21987265D01*
X23562532Y-22247607D01*
X23749804Y-22475798D01*
X23977995Y-22663070D01*
X24011541Y-22681001D01*
X23977995Y-22698932D01*
X23749804Y-22886204D01*
X23581731Y-23091001D01*
X23418225Y-23091001D01*
X22942000Y-22614777D01*
X22942000Y-13990583D01*
X23048332Y-14061632D01*
X23455076Y-14230111D01*
X23886873Y-14316001D01*
X24327129Y-14316001D01*
X24758926Y-14230111D01*
X25165670Y-14061632D01*
X25531730Y-13817039D01*
X25843039Y-13505730D01*
X26087632Y-13139670D01*
X26256111Y-12732926D01*
X26342001Y-12301129D01*
X26342001Y-11860873D01*
X26256111Y-11429076D01*
X26087632Y-11022332D01*
X25843039Y-10656272D01*
X25531730Y-10344963D01*
X25165670Y-10100370D01*
X24758926Y-9931891D01*
X24327129Y-9846001D01*
X23886873Y-9846001D01*
X23455076Y-9931891D01*
X23048332Y-10100370D01*
X22942000Y-10171419D01*
X22942000Y-9897223D01*
X23676004Y-9163219D01*
X23707889Y-9210937D01*
X23935624Y-9438672D01*
X24203413Y-9617603D01*
X24500964Y-9740853D01*
X24816843Y-9803685D01*
X25138909Y-9803685D01*
X25454788Y-9740853D01*
X25752339Y-9617603D01*
X26020128Y-9438672D01*
X26247863Y-9210937D01*
X26391001Y-8996716D01*
X26391001Y-15530934D01*
G36*
X702532Y-19707607D02*
G01*
X889804Y-19935798D01*
X1117995Y-20123070D01*
X1151541Y-20141001D01*
X1117995Y-20158932D01*
X889804Y-20346204D01*
X702532Y-20574395D01*
X660000Y-20653967D01*
X660000Y-19628035D01*
X702532Y-19707607D01*
X702532Y-19707607D01*
G37*
X702532Y-19707607D02*
X889804Y-19935798D01*
X1117995Y-20123070D01*
X1151541Y-20141001D01*
X1117995Y-20158932D01*
X889804Y-20346204D01*
X702532Y-20574395D01*
X660000Y-20653967D01*
X660000Y-19628035D01*
X702532Y-19707607D01*
G36*
X26391001Y-20610934D02*
G01*
X26371470Y-20574395D01*
X26184198Y-20346204D01*
X25956007Y-20158932D01*
X25922461Y-20141001D01*
X25956007Y-20123070D01*
X26184198Y-19935798D01*
X26371470Y-19707607D01*
X26391001Y-19671068D01*
X26391001Y-20610934D01*
X26391001Y-20610934D01*
G37*
X26391001Y-20610934D02*
X26371470Y-20574395D01*
X26184198Y-20346204D01*
X25956007Y-20158932D01*
X25922461Y-20141001D01*
X25956007Y-20123070D01*
X26184198Y-19935798D01*
X26371470Y-19707607D01*
X26391001Y-19671068D01*
X26391001Y-20610934D01*
G36*
X702532Y-17167607D02*
G01*
X889804Y-17395798D01*
X1117995Y-17583070D01*
X1151541Y-17601001D01*
X1117995Y-17618932D01*
X889804Y-17806204D01*
X702532Y-18034395D01*
X660000Y-18113967D01*
X660000Y-17088035D01*
X702532Y-17167607D01*
X702532Y-17167607D01*
G37*
X702532Y-17167607D02*
X889804Y-17395798D01*
X1117995Y-17583070D01*
X1151541Y-17601001D01*
X1117995Y-17618932D01*
X889804Y-17806204D01*
X702532Y-18034395D01*
X660000Y-18113967D01*
X660000Y-17088035D01*
X702532Y-17167607D01*
G36*
X26391001Y-18070934D02*
G01*
X26371470Y-18034395D01*
X26184198Y-17806204D01*
X25956007Y-17618932D01*
X25922461Y-17601001D01*
X25956007Y-17583070D01*
X26184198Y-17395798D01*
X26371470Y-17167607D01*
X26391001Y-17131068D01*
X26391001Y-18070934D01*
X26391001Y-18070934D01*
G37*
X26391001Y-18070934D02*
X26371470Y-18034395D01*
X26184198Y-17806204D01*
X25956007Y-17618932D01*
X25922461Y-17601001D01*
X25956007Y-17583070D01*
X26184198Y-17395798D01*
X26371470Y-17167607D01*
X26391001Y-17131068D01*
X26391001Y-18070934D01*
G36*
X23528958Y-894222D02*
G01*
X23405708Y-1191773D01*
X23342876Y-1507652D01*
X23342876Y-1829718D01*
X23405708Y-2145597D01*
X23528958Y-2443148D01*
X23707889Y-2710937D01*
X23935624Y-2938672D01*
X24117876Y-3060449D01*
X24117877Y-6776921D01*
X23935624Y-6898698D01*
X23707889Y-7126433D01*
X23586112Y-7308685D01*
X23496553Y-7308685D01*
X23454314Y-7304525D01*
X23412075Y-7308685D01*
X23412069Y-7308685D01*
X23316853Y-7318063D01*
X23285724Y-7321129D01*
X23210265Y-7344020D01*
X23123615Y-7370304D01*
X22974213Y-7450161D01*
X22843261Y-7557631D01*
X22816327Y-7590450D01*
X22112876Y-8293901D01*
X22112876Y-8007652D01*
X22050044Y-7691773D01*
X21926794Y-7394222D01*
X21747863Y-7126433D01*
X21520128Y-6898698D01*
X21337876Y-6776921D01*
X21337876Y-3060449D01*
X21520128Y-2938672D01*
X21747863Y-2710937D01*
X21926794Y-2443148D01*
X22050044Y-2145597D01*
X22112876Y-1829718D01*
X22112876Y-1507652D01*
X22050044Y-1191773D01*
X21926794Y-894222D01*
X21770292Y-660000D01*
X23685460Y-660000D01*
X23528958Y-894222D01*
X23528958Y-894222D01*
G37*
X23528958Y-894222D02*
X23405708Y-1191773D01*
X23342876Y-1507652D01*
X23342876Y-1829718D01*
X23405708Y-2145597D01*
X23528958Y-2443148D01*
X23707889Y-2710937D01*
X23935624Y-2938672D01*
X24117876Y-3060449D01*
X24117877Y-6776921D01*
X23935624Y-6898698D01*
X23707889Y-7126433D01*
X23586112Y-7308685D01*
X23496553Y-7308685D01*
X23454314Y-7304525D01*
X23412075Y-7308685D01*
X23412069Y-7308685D01*
X23316853Y-7318063D01*
X23285724Y-7321129D01*
X23210265Y-7344020D01*
X23123615Y-7370304D01*
X22974213Y-7450161D01*
X22843261Y-7557631D01*
X22816327Y-7590450D01*
X22112876Y-8293901D01*
X22112876Y-8007652D01*
X22050044Y-7691773D01*
X21926794Y-7394222D01*
X21747863Y-7126433D01*
X21520128Y-6898698D01*
X21337876Y-6776921D01*
X21337876Y-3060449D01*
X21520128Y-2938672D01*
X21747863Y-2710937D01*
X21926794Y-2443148D01*
X22050044Y-2145597D01*
X22112876Y-1829718D01*
X22112876Y-1507652D01*
X22050044Y-1191773D01*
X21926794Y-894222D01*
X21770292Y-660000D01*
X23685460Y-660000D01*
X23528958Y-894222D01*
G36*
X26391001Y-7340654D02*
G01*
X26247863Y-7126433D01*
X26020128Y-6898698D01*
X25837876Y-6776921D01*
X25837876Y-3060449D01*
X26020128Y-2938672D01*
X26247863Y-2710937D01*
X26391001Y-2496716D01*
X26391001Y-7340654D01*
X26391001Y-7340654D01*
G37*
X26391001Y-7340654D02*
X26247863Y-7126433D01*
X26020128Y-6898698D01*
X25837876Y-6776921D01*
X25837876Y-3060449D01*
X26020128Y-2938672D01*
X26247863Y-2710937D01*
X26391001Y-2496716D01*
X26391001Y-7340654D01*
G36*
X26391001Y-840654D02*
G01*
X26270292Y-660000D01*
X26391001Y-660000D01*
X26391001Y-840654D01*
X26391001Y-840654D01*
G37*
X26391001Y-840654D02*
X26270292Y-660000D01*
X26391001Y-660000D01*
X26391001Y-840654D01*
M02*
