G04 #@! TF.GenerationSoftware,KiCad,Pcbnew,(5.1.4-0-10_14)*
G04 #@! TF.CreationDate,2020-02-21T17:32:28+01:00*
G04 #@! TF.ProjectId,mood_lamp,6d6f6f64-5f6c-4616-9d70-2e6b69636164,rev?*
G04 #@! TF.SameCoordinates,PX2436c08PY18772f0*
G04 #@! TF.FileFunction,Copper,L1,Top*
G04 #@! TF.FilePolarity,Positive*
%FSLAX46Y46*%
G04 Gerber Fmt 4.6, Leading zero omitted, Abs format (unit mm)*
G04 Created by KiCad (PCBNEW (5.1.4-0-10_14)) date 2020-02-21 17:32:28*
%MOMM*%
%LPD*%
G04 APERTURE LIST*
%ADD10O,2.032000X1.727200*%
%ADD11R,2.000000X2.000000*%
%ADD12C,2.000000*%
%ADD13R,3.000000X3.000000*%
%ADD14C,3.000000*%
%ADD15C,1.600000*%
%ADD16O,1.600000X1.600000*%
%ADD17O,1.050000X1.500000*%
%ADD18R,1.050000X1.500000*%
%ADD19C,0.250000*%
G04 APERTURE END LIST*
D10*
X2107001Y-16331001D03*
X2107001Y-18871001D03*
X2107001Y-21411001D03*
X2107001Y-23951001D03*
X2107001Y-26491001D03*
X2107001Y-29031001D03*
X2107001Y-31571001D03*
X2107001Y-34111001D03*
X2107001Y-36651001D03*
X2107001Y-39191001D03*
X2107001Y-41731001D03*
X2107001Y-44271001D03*
X2107001Y-46811001D03*
X2107001Y-49351001D03*
X2107001Y-51891001D03*
X24967001Y-16331001D03*
X24967001Y-46811001D03*
X24967001Y-49351001D03*
X24967001Y-44271001D03*
X24967001Y-29031001D03*
X24967001Y-26491001D03*
X24967001Y-31571001D03*
X24967001Y-51891001D03*
X24967001Y-36651001D03*
X24967001Y-34111001D03*
X24967001Y-39191001D03*
X24967001Y-41731001D03*
X24967001Y-21411001D03*
X24967001Y-23951001D03*
X24967001Y-18871001D03*
D11*
X10287000Y-16256000D03*
D12*
X17787000Y-16256000D03*
D13*
X3355922Y-4400701D03*
D14*
X8435922Y-4400701D03*
X13515922Y-4400701D03*
D15*
X12827000Y-36576000D03*
D16*
X20447000Y-36576000D03*
X15367000Y-32766000D03*
D15*
X7747000Y-32766000D03*
X19177000Y-40386000D03*
D16*
X19177000Y-48006000D03*
D12*
X20477876Y-1668685D03*
X24977876Y-1668685D03*
X20477876Y-8168685D03*
X24977876Y-8168685D03*
D17*
X11557000Y-41656000D03*
X10287000Y-41656000D03*
D18*
X12827000Y-41656000D03*
D19*
X2259401Y-51891001D02*
X2334402Y-51816000D01*
X2107001Y-51891001D02*
X2259401Y-51891001D01*
M02*
