G04 #@! TF.GenerationSoftware,KiCad,Pcbnew,(5.1.4-0-10_14)*
G04 #@! TF.CreationDate,2020-02-21T17:32:28+01:00*
G04 #@! TF.ProjectId,mood_lamp,6d6f6f64-5f6c-4616-9d70-2e6b69636164,rev?*
G04 #@! TF.SameCoordinates,PX2436c08PY18772f0*
G04 #@! TF.FileFunction,Legend,Bot*
G04 #@! TF.FilePolarity,Positive*
%FSLAX46Y46*%
G04 Gerber Fmt 4.6, Leading zero omitted, Abs format (unit mm)*
G04 Created by KiCad (PCBNEW (5.1.4-0-10_14)) date 2020-02-21 17:32:28*
%MOMM*%
%LPD*%
G04 APERTURE LIST*
%ADD10O,2.134000X1.829200*%
%ADD11C,3.302000*%
%ADD12R,2.102000X2.102000*%
%ADD13C,2.102000*%
%ADD14R,3.102000X3.102000*%
%ADD15C,3.102000*%
%ADD16C,1.702000*%
%ADD17O,1.702000X1.702000*%
%ADD18O,1.152000X1.602000*%
%ADD19R,1.152000X1.602000*%
G04 APERTURE END LIST*
%LPC*%
D10*
X2107001Y-16331001D03*
X2107001Y-18871001D03*
X2107001Y-21411001D03*
X2107001Y-23951001D03*
X2107001Y-26491001D03*
X2107001Y-29031001D03*
X2107001Y-31571001D03*
X2107001Y-34111001D03*
X2107001Y-36651001D03*
X2107001Y-39191001D03*
X2107001Y-41731001D03*
X2107001Y-44271001D03*
X2107001Y-46811001D03*
X2107001Y-49351001D03*
X2107001Y-51891001D03*
X24967001Y-16331001D03*
X24967001Y-46811001D03*
X24967001Y-49351001D03*
X24967001Y-44271001D03*
X24967001Y-29031001D03*
X24967001Y-26491001D03*
X24967001Y-31571001D03*
X24967001Y-51891001D03*
X24967001Y-36651001D03*
X24967001Y-34111001D03*
X24967001Y-39191001D03*
X24967001Y-41731001D03*
X24967001Y-21411001D03*
X24967001Y-23951001D03*
X24967001Y-18871001D03*
D11*
X2907001Y-55711001D03*
X24107001Y-55711001D03*
X24107001Y-12081001D03*
X2857001Y-12081001D03*
D12*
X10287000Y-16256000D03*
D13*
X17787000Y-16256000D03*
D14*
X3355922Y-4400701D03*
D15*
X8435922Y-4400701D03*
X13515922Y-4400701D03*
D16*
X12827000Y-36576000D03*
D17*
X20447000Y-36576000D03*
X15367000Y-32766000D03*
D16*
X7747000Y-32766000D03*
X19177000Y-40386000D03*
D17*
X19177000Y-48006000D03*
D13*
X20477876Y-1668685D03*
X24977876Y-1668685D03*
X20477876Y-8168685D03*
X24977876Y-8168685D03*
D18*
X11557000Y-41656000D03*
X10287000Y-41656000D03*
D19*
X12827000Y-41656000D03*
M02*
