M48
; DRILL file {KiCad (5.1.4-0-10_14)} date 2020 February 21, Friday 16:53:24
; FORMAT={-:-/ absolute / metric / decimal}
; #@! TF.CreationDate,2020-02-21T16:53:24+01:00
; #@! TF.GenerationSoftware,Kicad,Pcbnew,(5.1.4-0-10_14)
; #@! TF.FileFunction,Plated,1,2,PTH
FMAT,2
METRIC
T1C0.750
T2C0.800
T3C1.000
T4C1.016
T5C1.100
T6C1.520
%
G90
G05
T1
X10.287Y-41.656
X11.557Y-41.656
X12.827Y-41.656
T2
X12.827Y-36.576
X20.447Y-36.576
X19.177Y-40.386
X19.177Y-48.006
X7.747Y-32.766
X15.367Y-32.766
T3
X10.287Y-16.256
X17.787Y-16.256
T4
X2.107Y-16.331
X2.107Y-18.871
X2.107Y-21.411
X2.107Y-23.951
X2.107Y-26.491
X2.107Y-29.031
X2.107Y-31.571
X2.107Y-34.111
X2.107Y-36.651
X2.107Y-39.191
X2.107Y-41.731
X2.107Y-44.271
X2.107Y-46.811
X2.107Y-49.351
X2.107Y-51.891
X24.967Y-16.331
X24.967Y-18.871
X24.967Y-21.411
X24.967Y-23.951
X24.967Y-26.491
X24.967Y-29.031
X24.967Y-31.571
X24.967Y-34.111
X24.967Y-36.651
X24.967Y-39.191
X24.967Y-41.731
X24.967Y-44.271
X24.967Y-46.811
X24.967Y-49.351
X24.967Y-51.891
T5
X20.478Y-1.669
X20.478Y-8.169
X24.978Y-1.669
X24.978Y-8.169
T6
X3.356Y-4.401
X8.436Y-4.401
X13.516Y-4.401
T0
M30
