G04 #@! TF.GenerationSoftware,KiCad,Pcbnew,(5.1.4-0-10_14)*
G04 #@! TF.CreationDate,2020-02-21T17:32:28+01:00*
G04 #@! TF.ProjectId,mood_lamp,6d6f6f64-5f6c-4616-9d70-2e6b69636164,rev?*
G04 #@! TF.SameCoordinates,PX2436c08PY18772f0*
G04 #@! TF.FileFunction,Legend,Top*
G04 #@! TF.FilePolarity,Positive*
%FSLAX46Y46*%
G04 Gerber Fmt 4.6, Leading zero omitted, Abs format (unit mm)*
G04 Created by KiCad (PCBNEW (5.1.4-0-10_14)) date 2020-02-21 17:32:28*
%MOMM*%
%LPD*%
G04 APERTURE LIST*
%ADD10C,0.250000*%
%ADD11C,0.150000*%
%ADD12C,0.120000*%
%ADD13O,2.134000X1.829200*%
%ADD14C,3.302000*%
%ADD15R,2.102000X2.102000*%
%ADD16C,2.102000*%
%ADD17R,3.102000X3.102000*%
%ADD18C,3.102000*%
%ADD19C,1.702000*%
%ADD20O,1.702000X1.702000*%
%ADD21O,1.152000X1.602000*%
%ADD22R,1.152000X1.602000*%
G04 APERTURE END LIST*
D10*
X3803285Y-25626380D02*
X3803285Y-24626380D01*
X4041380Y-24626380D01*
X4184238Y-24674000D01*
X4279476Y-24769238D01*
X4327095Y-24864476D01*
X4374714Y-25054952D01*
X4374714Y-25197809D01*
X4327095Y-25388285D01*
X4279476Y-25483523D01*
X4184238Y-25578761D01*
X4041380Y-25626380D01*
X3803285Y-25626380D01*
X5184238Y-25578761D02*
X5089000Y-25626380D01*
X4898523Y-25626380D01*
X4803285Y-25578761D01*
X4755666Y-25483523D01*
X4755666Y-25102571D01*
X4803285Y-25007333D01*
X4898523Y-24959714D01*
X5089000Y-24959714D01*
X5184238Y-25007333D01*
X5231857Y-25102571D01*
X5231857Y-25197809D01*
X4755666Y-25293047D01*
X5612809Y-25578761D02*
X5708047Y-25626380D01*
X5898523Y-25626380D01*
X5993761Y-25578761D01*
X6041380Y-25483523D01*
X6041380Y-25435904D01*
X5993761Y-25340666D01*
X5898523Y-25293047D01*
X5755666Y-25293047D01*
X5660428Y-25245428D01*
X5612809Y-25150190D01*
X5612809Y-25102571D01*
X5660428Y-25007333D01*
X5755666Y-24959714D01*
X5898523Y-24959714D01*
X5993761Y-25007333D01*
X6469952Y-25626380D02*
X6469952Y-24959714D01*
X6469952Y-24626380D02*
X6422333Y-24674000D01*
X6469952Y-24721619D01*
X6517571Y-24674000D01*
X6469952Y-24626380D01*
X6469952Y-24721619D01*
X7374714Y-24959714D02*
X7374714Y-25769238D01*
X7327095Y-25864476D01*
X7279476Y-25912095D01*
X7184238Y-25959714D01*
X7041380Y-25959714D01*
X6946142Y-25912095D01*
X7374714Y-25578761D02*
X7279476Y-25626380D01*
X7089000Y-25626380D01*
X6993761Y-25578761D01*
X6946142Y-25531142D01*
X6898523Y-25435904D01*
X6898523Y-25150190D01*
X6946142Y-25054952D01*
X6993761Y-25007333D01*
X7089000Y-24959714D01*
X7279476Y-24959714D01*
X7374714Y-25007333D01*
X7850904Y-24959714D02*
X7850904Y-25626380D01*
X7850904Y-25054952D02*
X7898523Y-25007333D01*
X7993761Y-24959714D01*
X8136619Y-24959714D01*
X8231857Y-25007333D01*
X8279476Y-25102571D01*
X8279476Y-25626380D01*
X9136619Y-25578761D02*
X9041380Y-25626380D01*
X8850904Y-25626380D01*
X8755666Y-25578761D01*
X8708047Y-25483523D01*
X8708047Y-25102571D01*
X8755666Y-25007333D01*
X8850904Y-24959714D01*
X9041380Y-24959714D01*
X9136619Y-25007333D01*
X9184238Y-25102571D01*
X9184238Y-25197809D01*
X8708047Y-25293047D01*
X10041380Y-25626380D02*
X10041380Y-24626380D01*
X10041380Y-25578761D02*
X9946142Y-25626380D01*
X9755666Y-25626380D01*
X9660428Y-25578761D01*
X9612809Y-25531142D01*
X9565190Y-25435904D01*
X9565190Y-25150190D01*
X9612809Y-25054952D01*
X9660428Y-25007333D01*
X9755666Y-24959714D01*
X9946142Y-24959714D01*
X10041380Y-25007333D01*
X11279476Y-25626380D02*
X11279476Y-24626380D01*
X11279476Y-25007333D02*
X11374714Y-24959714D01*
X11565190Y-24959714D01*
X11660428Y-25007333D01*
X11708047Y-25054952D01*
X11755666Y-25150190D01*
X11755666Y-25435904D01*
X11708047Y-25531142D01*
X11660428Y-25578761D01*
X11565190Y-25626380D01*
X11374714Y-25626380D01*
X11279476Y-25578761D01*
X12089000Y-24959714D02*
X12327095Y-25626380D01*
X12565190Y-24959714D02*
X12327095Y-25626380D01*
X12231857Y-25864476D01*
X12184238Y-25912095D01*
X12089000Y-25959714D01*
X12946142Y-25531142D02*
X12993761Y-25578761D01*
X12946142Y-25626380D01*
X12898523Y-25578761D01*
X12946142Y-25531142D01*
X12946142Y-25626380D01*
X12946142Y-25007333D02*
X12993761Y-25054952D01*
X12946142Y-25102571D01*
X12898523Y-25054952D01*
X12946142Y-25007333D01*
X12946142Y-25102571D01*
X14184238Y-25626380D02*
X14184238Y-24626380D01*
X14517571Y-25340666D01*
X14850904Y-24626380D01*
X14850904Y-25626380D01*
X15327095Y-25626380D02*
X15327095Y-24959714D01*
X15327095Y-24626380D02*
X15279476Y-24674000D01*
X15327095Y-24721619D01*
X15374714Y-24674000D01*
X15327095Y-24626380D01*
X15327095Y-24721619D01*
X16231857Y-25578761D02*
X16136619Y-25626380D01*
X15946142Y-25626380D01*
X15850904Y-25578761D01*
X15803285Y-25531142D01*
X15755666Y-25435904D01*
X15755666Y-25150190D01*
X15803285Y-25054952D01*
X15850904Y-25007333D01*
X15946142Y-24959714D01*
X16136619Y-24959714D01*
X16231857Y-25007333D01*
X16660428Y-25626380D02*
X16660428Y-24626380D01*
X17089000Y-25626380D02*
X17089000Y-25102571D01*
X17041380Y-25007333D01*
X16946142Y-24959714D01*
X16803285Y-24959714D01*
X16708047Y-25007333D01*
X16660428Y-25054952D01*
X17993761Y-25626380D02*
X17993761Y-25102571D01*
X17946142Y-25007333D01*
X17850904Y-24959714D01*
X17660428Y-24959714D01*
X17565190Y-25007333D01*
X17993761Y-25578761D02*
X17898523Y-25626380D01*
X17660428Y-25626380D01*
X17565190Y-25578761D01*
X17517571Y-25483523D01*
X17517571Y-25388285D01*
X17565190Y-25293047D01*
X17660428Y-25245428D01*
X17898523Y-25245428D01*
X17993761Y-25197809D01*
X18612809Y-25626380D02*
X18517571Y-25578761D01*
X18469952Y-25483523D01*
X18469952Y-24626380D01*
X19660428Y-24626380D02*
X20327095Y-24626380D01*
X19660428Y-25626380D01*
X20327095Y-25626380D01*
X20708047Y-25626380D02*
X20708047Y-24959714D01*
X20708047Y-24626380D02*
X20660428Y-24674000D01*
X20708047Y-24721619D01*
X20755666Y-24674000D01*
X20708047Y-24626380D01*
X20708047Y-24721619D01*
X21565190Y-25578761D02*
X21469952Y-25626380D01*
X21279476Y-25626380D01*
X21184238Y-25578761D01*
X21136619Y-25483523D01*
X21136619Y-25102571D01*
X21184238Y-25007333D01*
X21279476Y-24959714D01*
X21469952Y-24959714D01*
X21565190Y-25007333D01*
X21612809Y-25102571D01*
X21612809Y-25197809D01*
X21136619Y-25293047D01*
X22041380Y-25626380D02*
X22041380Y-24626380D01*
X22041380Y-25007333D02*
X22136619Y-24959714D01*
X22327095Y-24959714D01*
X22422333Y-25007333D01*
X22469952Y-25054952D01*
X22517571Y-25150190D01*
X22517571Y-25435904D01*
X22469952Y-25531142D01*
X22422333Y-25578761D01*
X22327095Y-25626380D01*
X22136619Y-25626380D01*
X22041380Y-25578761D01*
X23374714Y-25626380D02*
X23374714Y-25102571D01*
X23327095Y-25007333D01*
X23231857Y-24959714D01*
X23041380Y-24959714D01*
X22946142Y-25007333D01*
X23374714Y-25578761D02*
X23279476Y-25626380D01*
X23041380Y-25626380D01*
X22946142Y-25578761D01*
X22898523Y-25483523D01*
X22898523Y-25388285D01*
X22946142Y-25293047D01*
X23041380Y-25245428D01*
X23279476Y-25245428D01*
X23374714Y-25197809D01*
X4874714Y-26709714D02*
X5065190Y-27376380D01*
X5255666Y-26900190D01*
X5446142Y-27376380D01*
X5636619Y-26709714D01*
X5922333Y-26709714D02*
X6112809Y-27376380D01*
X6303285Y-26900190D01*
X6493761Y-27376380D01*
X6684238Y-26709714D01*
X6969952Y-26709714D02*
X7160428Y-27376380D01*
X7350904Y-26900190D01*
X7541380Y-27376380D01*
X7731857Y-26709714D01*
X8112809Y-27281142D02*
X8160428Y-27328761D01*
X8112809Y-27376380D01*
X8065190Y-27328761D01*
X8112809Y-27281142D01*
X8112809Y-27376380D01*
X8589000Y-26709714D02*
X8589000Y-27709714D01*
X8589000Y-26757333D02*
X8684238Y-26709714D01*
X8874714Y-26709714D01*
X8969952Y-26757333D01*
X9017571Y-26804952D01*
X9065190Y-26900190D01*
X9065190Y-27185904D01*
X9017571Y-27281142D01*
X8969952Y-27328761D01*
X8874714Y-27376380D01*
X8684238Y-27376380D01*
X8589000Y-27328761D01*
X9493761Y-27376380D02*
X9493761Y-26709714D01*
X9493761Y-26900190D02*
X9541380Y-26804952D01*
X9589000Y-26757333D01*
X9684238Y-26709714D01*
X9779476Y-26709714D01*
X10017571Y-26709714D02*
X10541380Y-26709714D01*
X10017571Y-27376380D01*
X10541380Y-27376380D01*
X10827095Y-26709714D02*
X11065190Y-27376380D01*
X11303285Y-26709714D02*
X11065190Y-27376380D01*
X10969952Y-27614476D01*
X10922333Y-27662095D01*
X10827095Y-27709714D01*
X12112809Y-26709714D02*
X12112809Y-27519238D01*
X12065190Y-27614476D01*
X12017571Y-27662095D01*
X11922333Y-27709714D01*
X11779476Y-27709714D01*
X11684238Y-27662095D01*
X12112809Y-27328761D02*
X12017571Y-27376380D01*
X11827095Y-27376380D01*
X11731857Y-27328761D01*
X11684238Y-27281142D01*
X11636619Y-27185904D01*
X11636619Y-26900190D01*
X11684238Y-26804952D01*
X11731857Y-26757333D01*
X11827095Y-26709714D01*
X12017571Y-26709714D01*
X12112809Y-26757333D01*
X12731857Y-27376380D02*
X12636619Y-27328761D01*
X12589000Y-27281142D01*
X12541380Y-27185904D01*
X12541380Y-26900190D01*
X12589000Y-26804952D01*
X12636619Y-26757333D01*
X12731857Y-26709714D01*
X12874714Y-26709714D01*
X12969952Y-26757333D01*
X13017571Y-26804952D01*
X13065190Y-26900190D01*
X13065190Y-27185904D01*
X13017571Y-27281142D01*
X12969952Y-27328761D01*
X12874714Y-27376380D01*
X12731857Y-27376380D01*
X13922333Y-27376380D02*
X13922333Y-26376380D01*
X13922333Y-27328761D02*
X13827095Y-27376380D01*
X13636619Y-27376380D01*
X13541380Y-27328761D01*
X13493761Y-27281142D01*
X13446142Y-27185904D01*
X13446142Y-26900190D01*
X13493761Y-26804952D01*
X13541380Y-26757333D01*
X13636619Y-26709714D01*
X13827095Y-26709714D01*
X13922333Y-26757333D01*
X14303285Y-26709714D02*
X14541380Y-27376380D01*
X14779476Y-26709714D02*
X14541380Y-27376380D01*
X14446142Y-27614476D01*
X14398523Y-27662095D01*
X14303285Y-27709714D01*
X15065190Y-26709714D02*
X15589000Y-26709714D01*
X15065190Y-27376380D01*
X15589000Y-27376380D01*
X15969952Y-27376380D02*
X15969952Y-26376380D01*
X16065190Y-26995428D02*
X16350904Y-27376380D01*
X16350904Y-26709714D02*
X15969952Y-27090666D01*
X16922333Y-27376380D02*
X16827095Y-27328761D01*
X16779476Y-27281142D01*
X16731857Y-27185904D01*
X16731857Y-26900190D01*
X16779476Y-26804952D01*
X16827095Y-26757333D01*
X16922333Y-26709714D01*
X17065190Y-26709714D01*
X17160428Y-26757333D01*
X17208047Y-26804952D01*
X17255666Y-26900190D01*
X17255666Y-27185904D01*
X17208047Y-27281142D01*
X17160428Y-27328761D01*
X17065190Y-27376380D01*
X16922333Y-27376380D01*
X18112809Y-27376380D02*
X18112809Y-26376380D01*
X18112809Y-27328761D02*
X18017571Y-27376380D01*
X17827095Y-27376380D01*
X17731857Y-27328761D01*
X17684238Y-27281142D01*
X17636619Y-27185904D01*
X17636619Y-26900190D01*
X17684238Y-26804952D01*
X17731857Y-26757333D01*
X17827095Y-26709714D01*
X18017571Y-26709714D01*
X18112809Y-26757333D01*
X18969952Y-27328761D02*
X18874714Y-27376380D01*
X18684238Y-27376380D01*
X18589000Y-27328761D01*
X18541380Y-27233523D01*
X18541380Y-26852571D01*
X18589000Y-26757333D01*
X18684238Y-26709714D01*
X18874714Y-26709714D01*
X18969952Y-26757333D01*
X19017571Y-26852571D01*
X19017571Y-26947809D01*
X18541380Y-27043047D01*
X19446142Y-27376380D02*
X19446142Y-26709714D01*
X19446142Y-26804952D02*
X19493761Y-26757333D01*
X19589000Y-26709714D01*
X19731857Y-26709714D01*
X19827095Y-26757333D01*
X19874714Y-26852571D01*
X19874714Y-27376380D01*
X19874714Y-26852571D02*
X19922333Y-26757333D01*
X20017571Y-26709714D01*
X20160428Y-26709714D01*
X20255666Y-26757333D01*
X20303285Y-26852571D01*
X20303285Y-27376380D01*
X20779476Y-27281142D02*
X20827095Y-27328761D01*
X20779476Y-27376380D01*
X20731857Y-27328761D01*
X20779476Y-27281142D01*
X20779476Y-27376380D01*
X21255666Y-26709714D02*
X21255666Y-27709714D01*
X21255666Y-26757333D02*
X21350904Y-26709714D01*
X21541380Y-26709714D01*
X21636619Y-26757333D01*
X21684238Y-26804952D01*
X21731857Y-26900190D01*
X21731857Y-27185904D01*
X21684238Y-27281142D01*
X21636619Y-27328761D01*
X21541380Y-27376380D01*
X21350904Y-27376380D01*
X21255666Y-27328761D01*
X22303285Y-27376380D02*
X22208047Y-27328761D01*
X22160428Y-27233523D01*
X22160428Y-26376380D01*
X8993761Y-29031142D02*
X8946142Y-29078761D01*
X8803285Y-29126380D01*
X8708047Y-29126380D01*
X8565190Y-29078761D01*
X8469952Y-28983523D01*
X8422333Y-28888285D01*
X8374714Y-28697809D01*
X8374714Y-28554952D01*
X8422333Y-28364476D01*
X8469952Y-28269238D01*
X8565190Y-28174000D01*
X8708047Y-28126380D01*
X8803285Y-28126380D01*
X8946142Y-28174000D01*
X8993761Y-28221619D01*
X9993761Y-29031142D02*
X9946142Y-29078761D01*
X9803285Y-29126380D01*
X9708047Y-29126380D01*
X9565190Y-29078761D01*
X9469952Y-28983523D01*
X9422333Y-28888285D01*
X9374714Y-28697809D01*
X9374714Y-28554952D01*
X9422333Y-28364476D01*
X9469952Y-28269238D01*
X9565190Y-28174000D01*
X9708047Y-28126380D01*
X9803285Y-28126380D01*
X9946142Y-28174000D01*
X9993761Y-28221619D01*
X11517571Y-28602571D02*
X11660428Y-28650190D01*
X11708047Y-28697809D01*
X11755666Y-28793047D01*
X11755666Y-28935904D01*
X11708047Y-29031142D01*
X11660428Y-29078761D01*
X11565190Y-29126380D01*
X11184238Y-29126380D01*
X11184238Y-28126380D01*
X11517571Y-28126380D01*
X11612809Y-28174000D01*
X11660428Y-28221619D01*
X11708047Y-28316857D01*
X11708047Y-28412095D01*
X11660428Y-28507333D01*
X11612809Y-28554952D01*
X11517571Y-28602571D01*
X11184238Y-28602571D01*
X12374714Y-28650190D02*
X12374714Y-29126380D01*
X12041380Y-28126380D02*
X12374714Y-28650190D01*
X12708047Y-28126380D01*
X13041380Y-28745428D02*
X13803285Y-28745428D01*
X14231857Y-29078761D02*
X14374714Y-29126380D01*
X14612809Y-29126380D01*
X14708047Y-29078761D01*
X14755666Y-29031142D01*
X14803285Y-28935904D01*
X14803285Y-28840666D01*
X14755666Y-28745428D01*
X14708047Y-28697809D01*
X14612809Y-28650190D01*
X14422333Y-28602571D01*
X14327095Y-28554952D01*
X14279476Y-28507333D01*
X14231857Y-28412095D01*
X14231857Y-28316857D01*
X14279476Y-28221619D01*
X14327095Y-28174000D01*
X14422333Y-28126380D01*
X14660428Y-28126380D01*
X14803285Y-28174000D01*
X15184238Y-28840666D02*
X15660428Y-28840666D01*
X15089000Y-29126380D02*
X15422333Y-28126380D01*
X15755666Y-29126380D01*
X17279476Y-28459714D02*
X17279476Y-29126380D01*
X17041380Y-28078761D02*
X16803285Y-28793047D01*
X17422333Y-28793047D01*
X17803285Y-29031142D02*
X17850904Y-29078761D01*
X17803285Y-29126380D01*
X17755666Y-29078761D01*
X17803285Y-29031142D01*
X17803285Y-29126380D01*
X18469952Y-28126380D02*
X18565190Y-28126380D01*
X18660428Y-28174000D01*
X18708047Y-28221619D01*
X18755666Y-28316857D01*
X18803285Y-28507333D01*
X18803285Y-28745428D01*
X18755666Y-28935904D01*
X18708047Y-29031142D01*
X18660428Y-29078761D01*
X18565190Y-29126380D01*
X18469952Y-29126380D01*
X18374714Y-29078761D01*
X18327095Y-29031142D01*
X18279476Y-28935904D01*
X18231857Y-28745428D01*
X18231857Y-28507333D01*
X18279476Y-28316857D01*
X18327095Y-28221619D01*
X18374714Y-28174000D01*
X18469952Y-28126380D01*
D11*
X837001Y-17601001D02*
X837001Y-53161001D01*
X837001Y-53161001D02*
X3377001Y-53161001D01*
X3377001Y-53161001D02*
X3377001Y-17601001D01*
X3657001Y-14781001D02*
X3657001Y-16331001D01*
X3377001Y-17601001D02*
X837001Y-17601001D01*
X557001Y-16331001D02*
X557001Y-14781001D01*
X557001Y-14781001D02*
X3657001Y-14781001D01*
X23697001Y-53161001D02*
X26237001Y-53161001D01*
X23697001Y-15061001D02*
X23697001Y-53161001D01*
X26237001Y-15061001D02*
X23697001Y-15061001D01*
X26237001Y-53161001D02*
X26237001Y-15061001D01*
D12*
X9074460Y-17516000D02*
G75*
G03X9074460Y-14996000I4962540J1260000D01*
G01*
X14037000Y-11176000D02*
X14037000Y-21336000D01*
X14077000Y-11176000D02*
X14077000Y-21336000D01*
X14117000Y-11176000D02*
X14117000Y-21336000D01*
X14157000Y-11177000D02*
X14157000Y-21335000D01*
X14197000Y-11178000D02*
X14197000Y-21334000D01*
X14237000Y-11179000D02*
X14237000Y-21333000D01*
X14277000Y-11181000D02*
X14277000Y-21331000D01*
X14317000Y-11183000D02*
X14317000Y-21329000D01*
X14357000Y-11186000D02*
X14357000Y-21326000D01*
X14397000Y-11188000D02*
X14397000Y-21324000D01*
X14437000Y-11191000D02*
X14437000Y-21321000D01*
X14477000Y-11194000D02*
X14477000Y-21318000D01*
X14517000Y-11198000D02*
X14517000Y-21314000D01*
X14557000Y-11202000D02*
X14557000Y-21310000D01*
X14597000Y-11206000D02*
X14597000Y-21306000D01*
X14637000Y-11211000D02*
X14637000Y-21301000D01*
X14677000Y-11216000D02*
X14677000Y-21296000D01*
X14717000Y-11221000D02*
X14717000Y-21291000D01*
X14758000Y-11226000D02*
X14758000Y-21286000D01*
X14798000Y-11232000D02*
X14798000Y-21280000D01*
X14838000Y-11238000D02*
X14838000Y-21274000D01*
X14878000Y-11245000D02*
X14878000Y-21267000D01*
X14918000Y-11252000D02*
X14918000Y-21260000D01*
X14958000Y-11259000D02*
X14958000Y-21253000D01*
X14998000Y-11266000D02*
X14998000Y-21246000D01*
X15038000Y-11274000D02*
X15038000Y-21238000D01*
X15078000Y-11282000D02*
X15078000Y-21230000D01*
X15118000Y-11291000D02*
X15118000Y-21221000D01*
X15158000Y-11300000D02*
X15158000Y-21212000D01*
X15198000Y-11309000D02*
X15198000Y-21203000D01*
X15238000Y-11318000D02*
X15238000Y-21194000D01*
X15278000Y-11328000D02*
X15278000Y-21184000D01*
X15318000Y-11338000D02*
X15318000Y-21174000D01*
X15358000Y-11349000D02*
X15358000Y-21163000D01*
X15398000Y-11359000D02*
X15398000Y-21153000D01*
X15438000Y-11371000D02*
X15438000Y-21141000D01*
X15478000Y-11382000D02*
X15478000Y-21130000D01*
X15518000Y-11394000D02*
X15518000Y-21118000D01*
X15558000Y-11406000D02*
X15558000Y-21106000D01*
X15598000Y-11419000D02*
X15598000Y-21093000D01*
X15638000Y-11432000D02*
X15638000Y-21080000D01*
X15678000Y-11445000D02*
X15678000Y-21067000D01*
X15718000Y-11459000D02*
X15718000Y-21053000D01*
X15758000Y-11473000D02*
X15758000Y-21039000D01*
X15798000Y-11488000D02*
X15798000Y-21024000D01*
X15838000Y-11502000D02*
X15838000Y-21010000D01*
X15878000Y-11518000D02*
X15878000Y-20994000D01*
X15918000Y-11533000D02*
X15918000Y-20979000D01*
X15958000Y-11549000D02*
X15958000Y-20963000D01*
X15998000Y-11566000D02*
X15998000Y-20946000D01*
X16038000Y-11582000D02*
X16038000Y-20930000D01*
X16078000Y-11599000D02*
X16078000Y-20913000D01*
X16118000Y-11617000D02*
X16118000Y-20895000D01*
X16158000Y-11635000D02*
X16158000Y-20877000D01*
X16198000Y-11653000D02*
X16198000Y-20859000D01*
X16238000Y-11672000D02*
X16238000Y-20840000D01*
X16278000Y-11692000D02*
X16278000Y-20820000D01*
X16318000Y-11711000D02*
X16318000Y-20801000D01*
X16358000Y-11731000D02*
X16358000Y-20781000D01*
X16398000Y-11752000D02*
X16398000Y-20760000D01*
X16438000Y-11773000D02*
X16438000Y-20739000D01*
X16478000Y-11794000D02*
X16478000Y-20718000D01*
X16518000Y-11816000D02*
X16518000Y-20696000D01*
X16558000Y-11839000D02*
X16558000Y-15015000D01*
X16558000Y-17497000D02*
X16558000Y-20673000D01*
X16598000Y-11861000D02*
X16598000Y-15015000D01*
X16598000Y-17497000D02*
X16598000Y-20651000D01*
X16638000Y-11885000D02*
X16638000Y-15015000D01*
X16638000Y-17497000D02*
X16638000Y-20627000D01*
X16678000Y-11909000D02*
X16678000Y-15015000D01*
X16678000Y-17497000D02*
X16678000Y-20603000D01*
X16718000Y-11933000D02*
X16718000Y-15015000D01*
X16718000Y-17497000D02*
X16718000Y-20579000D01*
X16758000Y-11958000D02*
X16758000Y-15015000D01*
X16758000Y-17497000D02*
X16758000Y-20554000D01*
X16798000Y-11983000D02*
X16798000Y-15015000D01*
X16798000Y-17497000D02*
X16798000Y-20529000D01*
X16838000Y-12009000D02*
X16838000Y-15015000D01*
X16838000Y-17497000D02*
X16838000Y-20503000D01*
X16878000Y-12035000D02*
X16878000Y-15015000D01*
X16878000Y-17497000D02*
X16878000Y-20477000D01*
X16918000Y-12062000D02*
X16918000Y-15015000D01*
X16918000Y-17497000D02*
X16918000Y-20450000D01*
X16958000Y-12090000D02*
X16958000Y-15015000D01*
X16958000Y-17497000D02*
X16958000Y-20422000D01*
X16998000Y-12118000D02*
X16998000Y-15015000D01*
X16998000Y-17497000D02*
X16998000Y-20394000D01*
X17038000Y-12146000D02*
X17038000Y-15015000D01*
X17038000Y-17497000D02*
X17038000Y-20366000D01*
X17078000Y-12176000D02*
X17078000Y-15015000D01*
X17078000Y-17497000D02*
X17078000Y-20336000D01*
X17118000Y-12206000D02*
X17118000Y-15015000D01*
X17118000Y-17497000D02*
X17118000Y-20306000D01*
X17158000Y-12236000D02*
X17158000Y-15015000D01*
X17158000Y-17497000D02*
X17158000Y-20276000D01*
X17198000Y-12267000D02*
X17198000Y-15015000D01*
X17198000Y-17497000D02*
X17198000Y-20245000D01*
X17238000Y-12299000D02*
X17238000Y-15015000D01*
X17238000Y-17497000D02*
X17238000Y-20213000D01*
X17278000Y-12331000D02*
X17278000Y-15015000D01*
X17278000Y-17497000D02*
X17278000Y-20181000D01*
X17318000Y-12364000D02*
X17318000Y-15015000D01*
X17318000Y-17497000D02*
X17318000Y-20148000D01*
X17358000Y-12398000D02*
X17358000Y-15015000D01*
X17358000Y-17497000D02*
X17358000Y-20114000D01*
X17398000Y-12432000D02*
X17398000Y-15015000D01*
X17398000Y-17497000D02*
X17398000Y-20080000D01*
X17438000Y-12467000D02*
X17438000Y-15015000D01*
X17438000Y-17497000D02*
X17438000Y-20045000D01*
X17478000Y-12503000D02*
X17478000Y-15015000D01*
X17478000Y-17497000D02*
X17478000Y-20009000D01*
X17518000Y-12540000D02*
X17518000Y-15015000D01*
X17518000Y-17497000D02*
X17518000Y-19972000D01*
X17558000Y-12577000D02*
X17558000Y-15015000D01*
X17558000Y-17497000D02*
X17558000Y-19935000D01*
X17598000Y-12616000D02*
X17598000Y-15015000D01*
X17598000Y-17497000D02*
X17598000Y-19896000D01*
X17638000Y-12655000D02*
X17638000Y-15015000D01*
X17638000Y-17497000D02*
X17638000Y-19857000D01*
X17678000Y-12695000D02*
X17678000Y-15015000D01*
X17678000Y-17497000D02*
X17678000Y-19817000D01*
X17718000Y-12736000D02*
X17718000Y-15015000D01*
X17718000Y-17497000D02*
X17718000Y-19776000D01*
X17758000Y-12778000D02*
X17758000Y-15015000D01*
X17758000Y-17497000D02*
X17758000Y-19734000D01*
X17798000Y-12820000D02*
X17798000Y-15015000D01*
X17798000Y-17497000D02*
X17798000Y-19692000D01*
X17838000Y-12864000D02*
X17838000Y-15015000D01*
X17838000Y-17497000D02*
X17838000Y-19648000D01*
X17878000Y-12909000D02*
X17878000Y-15015000D01*
X17878000Y-17497000D02*
X17878000Y-19603000D01*
X17918000Y-12955000D02*
X17918000Y-15015000D01*
X17918000Y-17497000D02*
X17918000Y-19557000D01*
X17958000Y-13002000D02*
X17958000Y-15015000D01*
X17958000Y-17497000D02*
X17958000Y-19510000D01*
X17998000Y-13050000D02*
X17998000Y-15015000D01*
X17998000Y-17497000D02*
X17998000Y-19462000D01*
X18038000Y-13100000D02*
X18038000Y-15015000D01*
X18038000Y-17497000D02*
X18038000Y-19412000D01*
X18078000Y-13150000D02*
X18078000Y-15015000D01*
X18078000Y-17497000D02*
X18078000Y-19362000D01*
X18118000Y-13202000D02*
X18118000Y-15015000D01*
X18118000Y-17497000D02*
X18118000Y-19310000D01*
X18158000Y-13256000D02*
X18158000Y-15015000D01*
X18158000Y-17497000D02*
X18158000Y-19256000D01*
X18198000Y-13311000D02*
X18198000Y-15015000D01*
X18198000Y-17497000D02*
X18198000Y-19201000D01*
X18238000Y-13367000D02*
X18238000Y-15015000D01*
X18238000Y-17497000D02*
X18238000Y-19145000D01*
X18278000Y-13426000D02*
X18278000Y-15015000D01*
X18278000Y-17497000D02*
X18278000Y-19086000D01*
X18318000Y-13486000D02*
X18318000Y-15015000D01*
X18318000Y-17497000D02*
X18318000Y-19026000D01*
X18358000Y-13547000D02*
X18358000Y-15015000D01*
X18358000Y-17497000D02*
X18358000Y-18965000D01*
X18398000Y-13611000D02*
X18398000Y-15015000D01*
X18398000Y-17497000D02*
X18398000Y-18901000D01*
X18438000Y-13677000D02*
X18438000Y-15015000D01*
X18438000Y-17497000D02*
X18438000Y-18835000D01*
X18478000Y-13746000D02*
X18478000Y-15015000D01*
X18478000Y-17497000D02*
X18478000Y-18766000D01*
X18518000Y-13817000D02*
X18518000Y-15015000D01*
X18518000Y-17497000D02*
X18518000Y-18695000D01*
X18558000Y-13891000D02*
X18558000Y-15015000D01*
X18558000Y-17497000D02*
X18558000Y-18621000D01*
X18598000Y-13967000D02*
X18598000Y-15015000D01*
X18598000Y-17497000D02*
X18598000Y-18545000D01*
X18638000Y-14047000D02*
X18638000Y-15015000D01*
X18638000Y-17497000D02*
X18638000Y-18465000D01*
X18678000Y-14131000D02*
X18678000Y-15015000D01*
X18678000Y-17497000D02*
X18678000Y-18381000D01*
X18718000Y-14219000D02*
X18718000Y-15015000D01*
X18718000Y-17497000D02*
X18718000Y-18293000D01*
X18758000Y-14312000D02*
X18758000Y-15015000D01*
X18758000Y-17497000D02*
X18758000Y-18200000D01*
X18798000Y-14410000D02*
X18798000Y-15015000D01*
X18798000Y-17497000D02*
X18798000Y-18102000D01*
X18838000Y-14514000D02*
X18838000Y-15015000D01*
X18838000Y-17497000D02*
X18838000Y-17998000D01*
X18878000Y-14626000D02*
X18878000Y-15015000D01*
X18878000Y-17497000D02*
X18878000Y-17886000D01*
X18918000Y-14746000D02*
X18918000Y-15015000D01*
X18918000Y-17497000D02*
X18918000Y-17766000D01*
X18958000Y-14878000D02*
X18958000Y-15015000D01*
X18958000Y-17497000D02*
X18958000Y-17634000D01*
X19038000Y-15194000D02*
X19038000Y-17318000D01*
X19078000Y-15394000D02*
X19078000Y-17118000D01*
X19118000Y-15657000D02*
X19118000Y-16855000D01*
X8557354Y-13381000D02*
X9557354Y-13381000D01*
X9057354Y-12881000D02*
X9057354Y-13881000D01*
X815922Y-8210701D02*
X815922Y-590701D01*
X16055922Y-8210701D02*
X16055922Y-590701D01*
X815922Y-6940701D02*
X16055922Y-6940701D01*
X815922Y-590701D02*
X16055922Y-590701D01*
X815922Y-8210701D02*
X16055922Y-8210701D01*
X13367000Y-35536000D02*
X13367000Y-35206000D01*
X13367000Y-35206000D02*
X19907000Y-35206000D01*
X19907000Y-35206000D02*
X19907000Y-35536000D01*
X13367000Y-37616000D02*
X13367000Y-37946000D01*
X13367000Y-37946000D02*
X19907000Y-37946000D01*
X19907000Y-37946000D02*
X19907000Y-37616000D01*
X14827000Y-34136000D02*
X14827000Y-33806000D01*
X8287000Y-34136000D02*
X14827000Y-34136000D01*
X8287000Y-33806000D02*
X8287000Y-34136000D01*
X14827000Y-31396000D02*
X14827000Y-31726000D01*
X8287000Y-31396000D02*
X14827000Y-31396000D01*
X8287000Y-31726000D02*
X8287000Y-31396000D01*
X20217000Y-40926000D02*
X20547000Y-40926000D01*
X20547000Y-40926000D02*
X20547000Y-47466000D01*
X20547000Y-47466000D02*
X20217000Y-47466000D01*
X18137000Y-40926000D02*
X17807000Y-40926000D01*
X17807000Y-40926000D02*
X17807000Y-47466000D01*
X17807000Y-47466000D02*
X18137000Y-47466000D01*
X19477876Y-2668685D02*
X19477876Y-7168685D01*
X23477876Y-1418685D02*
X21977876Y-1418685D01*
X25977876Y-7168685D02*
X25977876Y-2668685D01*
X21977876Y-8418685D02*
X23477876Y-8418685D01*
X13357000Y-39806000D02*
X9757000Y-39806000D01*
X13395478Y-39817522D02*
G75*
G02X11557000Y-44256000I-1838478J-1838478D01*
G01*
X9718522Y-39817522D02*
G75*
G03X11557000Y-44256000I1838478J-1838478D01*
G01*
D11*
X13870333Y-10363142D02*
X13822714Y-10410761D01*
X13679857Y-10458380D01*
X13584619Y-10458380D01*
X13441761Y-10410761D01*
X13346523Y-10315523D01*
X13298904Y-10220285D01*
X13251285Y-10029809D01*
X13251285Y-9886952D01*
X13298904Y-9696476D01*
X13346523Y-9601238D01*
X13441761Y-9506000D01*
X13584619Y-9458380D01*
X13679857Y-9458380D01*
X13822714Y-9506000D01*
X13870333Y-9553619D01*
X14822714Y-10458380D02*
X14251285Y-10458380D01*
X14537000Y-10458380D02*
X14537000Y-9458380D01*
X14441761Y-9601238D01*
X14346523Y-9696476D01*
X14251285Y-9744095D01*
X8175666Y-8596380D02*
X8175666Y-9310666D01*
X8128047Y-9453523D01*
X8032809Y-9548761D01*
X7889952Y-9596380D01*
X7794714Y-9596380D01*
X9175666Y-9596380D02*
X8604238Y-9596380D01*
X8889952Y-9596380D02*
X8889952Y-8596380D01*
X8794714Y-8739238D01*
X8699476Y-8834476D01*
X8604238Y-8882095D01*
X16470333Y-34658380D02*
X16137000Y-34182190D01*
X15898904Y-34658380D02*
X15898904Y-33658380D01*
X16279857Y-33658380D01*
X16375095Y-33706000D01*
X16422714Y-33753619D01*
X16470333Y-33848857D01*
X16470333Y-33991714D01*
X16422714Y-34086952D01*
X16375095Y-34134571D01*
X16279857Y-34182190D01*
X15898904Y-34182190D01*
X17422714Y-34658380D02*
X16851285Y-34658380D01*
X17137000Y-34658380D02*
X17137000Y-33658380D01*
X17041761Y-33801238D01*
X16946523Y-33896476D01*
X16851285Y-33944095D01*
X11390333Y-30848380D02*
X11057000Y-30372190D01*
X10818904Y-30848380D02*
X10818904Y-29848380D01*
X11199857Y-29848380D01*
X11295095Y-29896000D01*
X11342714Y-29943619D01*
X11390333Y-30038857D01*
X11390333Y-30181714D01*
X11342714Y-30276952D01*
X11295095Y-30324571D01*
X11199857Y-30372190D01*
X10818904Y-30372190D01*
X11771285Y-29943619D02*
X11818904Y-29896000D01*
X11914142Y-29848380D01*
X12152238Y-29848380D01*
X12247476Y-29896000D01*
X12295095Y-29943619D01*
X12342714Y-30038857D01*
X12342714Y-30134095D01*
X12295095Y-30276952D01*
X11723666Y-30848380D01*
X12342714Y-30848380D01*
X21999380Y-44362666D02*
X21523190Y-44696000D01*
X21999380Y-44934095D02*
X20999380Y-44934095D01*
X20999380Y-44553142D01*
X21047000Y-44457904D01*
X21094619Y-44410285D01*
X21189857Y-44362666D01*
X21332714Y-44362666D01*
X21427952Y-44410285D01*
X21475571Y-44457904D01*
X21523190Y-44553142D01*
X21523190Y-44934095D01*
X20999380Y-44029333D02*
X20999380Y-43410285D01*
X21380333Y-43743619D01*
X21380333Y-43600761D01*
X21427952Y-43505523D01*
X21475571Y-43457904D01*
X21570809Y-43410285D01*
X21808904Y-43410285D01*
X21904142Y-43457904D01*
X21951761Y-43505523D01*
X21999380Y-43600761D01*
X21999380Y-43886476D01*
X21951761Y-43981714D01*
X21904142Y-44029333D01*
X24153761Y-6667333D02*
X24201380Y-6524476D01*
X24201380Y-6286380D01*
X24153761Y-6191142D01*
X24106142Y-6143523D01*
X24010904Y-6095904D01*
X23915666Y-6095904D01*
X23820428Y-6143523D01*
X23772809Y-6191142D01*
X23725190Y-6286380D01*
X23677571Y-6476857D01*
X23629952Y-6572095D01*
X23582333Y-6619714D01*
X23487095Y-6667333D01*
X23391857Y-6667333D01*
X23296619Y-6619714D01*
X23249000Y-6572095D01*
X23201380Y-6476857D01*
X23201380Y-6238761D01*
X23249000Y-6095904D01*
X23201380Y-5762571D02*
X24201380Y-5524476D01*
X23487095Y-5334000D01*
X24201380Y-5143523D01*
X23201380Y-4905428D01*
X24201380Y-4000666D02*
X24201380Y-4572095D01*
X24201380Y-4286380D02*
X23201380Y-4286380D01*
X23344238Y-4381619D01*
X23439476Y-4476857D01*
X23487095Y-4572095D01*
X10795095Y-44668380D02*
X11366523Y-44668380D01*
X11080809Y-45668380D02*
X11080809Y-44668380D01*
X12223666Y-45668380D02*
X11652238Y-45668380D01*
X11937952Y-45668380D02*
X11937952Y-44668380D01*
X11842714Y-44811238D01*
X11747476Y-44906476D01*
X11652238Y-44954095D01*
%LPC*%
D13*
X2107001Y-16331001D03*
X2107001Y-18871001D03*
X2107001Y-21411001D03*
X2107001Y-23951001D03*
X2107001Y-26491001D03*
X2107001Y-29031001D03*
X2107001Y-31571001D03*
X2107001Y-34111001D03*
X2107001Y-36651001D03*
X2107001Y-39191001D03*
X2107001Y-41731001D03*
X2107001Y-44271001D03*
X2107001Y-46811001D03*
X2107001Y-49351001D03*
X2107001Y-51891001D03*
X24967001Y-16331001D03*
X24967001Y-46811001D03*
X24967001Y-49351001D03*
X24967001Y-44271001D03*
X24967001Y-29031001D03*
X24967001Y-26491001D03*
X24967001Y-31571001D03*
X24967001Y-51891001D03*
X24967001Y-36651001D03*
X24967001Y-34111001D03*
X24967001Y-39191001D03*
X24967001Y-41731001D03*
X24967001Y-21411001D03*
X24967001Y-23951001D03*
X24967001Y-18871001D03*
D14*
X2907001Y-55711001D03*
X24107001Y-55711001D03*
X24107001Y-12081001D03*
X2857001Y-12081001D03*
D15*
X10287000Y-16256000D03*
D16*
X17787000Y-16256000D03*
D17*
X3355922Y-4400701D03*
D18*
X8435922Y-4400701D03*
X13515922Y-4400701D03*
D19*
X12827000Y-36576000D03*
D20*
X20447000Y-36576000D03*
X15367000Y-32766000D03*
D19*
X7747000Y-32766000D03*
X19177000Y-40386000D03*
D20*
X19177000Y-48006000D03*
D16*
X20477876Y-1668685D03*
X24977876Y-1668685D03*
X20477876Y-8168685D03*
X24977876Y-8168685D03*
D21*
X11557000Y-41656000D03*
X10287000Y-41656000D03*
D22*
X12827000Y-41656000D03*
M02*
