%FSLAX45Y45*%
G04 Gerber Fmt 4.5, Leading zero omitted, Abs format (unit mm)*
G04 Created by KiCad (PCBNEW (5.1.4-0-10_14)) date 2020-02-21 16:53:22*
%MOMM*%
%LPD*%
G04 APERTURE LIST*
%ADD10C,0.050000*%
%ADD11C,0.200000*%
%ADD12C,0.300000*%
G04 APERTURE END LIST*
D10*
X0Y-5905500D02*
X12700Y-5905500D01*
X0Y0D02*
X0Y-5905500D01*
X12700Y0D02*
X0Y0D01*
X2705100Y0D02*
X12700Y0D01*
X2705100Y-5905500D02*
X2705100Y0D01*
X12700Y-5905500D02*
X2705100Y-5905500D01*
D11*
X125700Y-1048100D02*
X445700Y-1368100D01*
X445700Y-1048100D02*
X125700Y-1368100D01*
X130700Y-5411100D02*
X450700Y-5731100D01*
X450700Y-5411100D02*
X130700Y-5731100D01*
X2250700Y-1048100D02*
X2570700Y-1368100D01*
X2570700Y-1048100D02*
X2250700Y-1368100D01*
X2250700Y-5411100D02*
X2570700Y-5731100D01*
X2570700Y-5411100D02*
X2250700Y-5731100D01*
D12*
X283928Y-6373714D02*
X283928Y-6073714D01*
X355357Y-6073714D01*
X398214Y-6088000D01*
X426786Y-6116571D01*
X441071Y-6145143D01*
X455357Y-6202286D01*
X455357Y-6245143D01*
X441071Y-6302286D01*
X426786Y-6330857D01*
X398214Y-6359429D01*
X355357Y-6373714D01*
X283928Y-6373714D01*
X583928Y-6373714D02*
X583928Y-6173714D01*
X583928Y-6230857D02*
X598214Y-6202286D01*
X612500Y-6188000D01*
X641071Y-6173714D01*
X669643Y-6173714D01*
X769643Y-6373714D02*
X769643Y-6173714D01*
X769643Y-6073714D02*
X755357Y-6088000D01*
X769643Y-6102286D01*
X783928Y-6088000D01*
X769643Y-6073714D01*
X769643Y-6102286D01*
X955357Y-6373714D02*
X926786Y-6359429D01*
X912500Y-6330857D01*
X912500Y-6073714D01*
X1112500Y-6373714D02*
X1083928Y-6359429D01*
X1069643Y-6330857D01*
X1069643Y-6073714D01*
X1455357Y-6373714D02*
X1455357Y-6073714D01*
X1555357Y-6288000D01*
X1655357Y-6073714D01*
X1655357Y-6373714D01*
X1926786Y-6373714D02*
X1926786Y-6216571D01*
X1912500Y-6188000D01*
X1883928Y-6173714D01*
X1826786Y-6173714D01*
X1798214Y-6188000D01*
X1926786Y-6359429D02*
X1898214Y-6373714D01*
X1826786Y-6373714D01*
X1798214Y-6359429D01*
X1783928Y-6330857D01*
X1783928Y-6302286D01*
X1798214Y-6273714D01*
X1826786Y-6259429D01*
X1898214Y-6259429D01*
X1926786Y-6245143D01*
X2069643Y-6173714D02*
X2069643Y-6473714D01*
X2069643Y-6188000D02*
X2098214Y-6173714D01*
X2155357Y-6173714D01*
X2183928Y-6188000D01*
X2198214Y-6202286D01*
X2212500Y-6230857D01*
X2212500Y-6316571D01*
X2198214Y-6345143D01*
X2183928Y-6359429D01*
X2155357Y-6373714D01*
X2098214Y-6373714D01*
X2069643Y-6359429D01*
X2341071Y-6345143D02*
X2355357Y-6359429D01*
X2341071Y-6373714D01*
X2326786Y-6359429D01*
X2341071Y-6345143D01*
X2341071Y-6373714D01*
X2341071Y-6188000D02*
X2355357Y-6202286D01*
X2341071Y-6216571D01*
X2326786Y-6202286D01*
X2341071Y-6188000D01*
X2341071Y-6216571D01*
X-322500Y-6708000D02*
X-2500Y-7028000D01*
X-2500Y-6708000D02*
X-322500Y-7028000D01*
X255357Y-6703714D02*
X441071Y-6703714D01*
X341071Y-6818000D01*
X383928Y-6818000D01*
X412500Y-6832286D01*
X426786Y-6846571D01*
X441071Y-6875143D01*
X441071Y-6946571D01*
X426786Y-6975143D01*
X412500Y-6989429D01*
X383928Y-7003714D01*
X298214Y-7003714D01*
X269643Y-6989429D01*
X255357Y-6975143D01*
X569643Y-6975143D02*
X583928Y-6989429D01*
X569643Y-7003714D01*
X555357Y-6989429D01*
X569643Y-6975143D01*
X569643Y-7003714D01*
X698214Y-6732286D02*
X712500Y-6718000D01*
X741071Y-6703714D01*
X812500Y-6703714D01*
X841071Y-6718000D01*
X855357Y-6732286D01*
X869643Y-6760857D01*
X869643Y-6789429D01*
X855357Y-6832286D01*
X683928Y-7003714D01*
X869643Y-7003714D01*
X1055357Y-6703714D02*
X1083928Y-6703714D01*
X1112500Y-6718000D01*
X1126786Y-6732286D01*
X1141071Y-6760857D01*
X1155357Y-6818000D01*
X1155357Y-6889429D01*
X1141071Y-6946571D01*
X1126786Y-6975143D01*
X1112500Y-6989429D01*
X1083928Y-7003714D01*
X1055357Y-7003714D01*
X1026786Y-6989429D01*
X1012500Y-6975143D01*
X998214Y-6946571D01*
X983928Y-6889429D01*
X983928Y-6818000D01*
X998214Y-6760857D01*
X1012500Y-6732286D01*
X1026786Y-6718000D01*
X1055357Y-6703714D01*
X1283928Y-7003714D02*
X1283928Y-6803714D01*
X1283928Y-6832286D02*
X1298214Y-6818000D01*
X1326786Y-6803714D01*
X1369643Y-6803714D01*
X1398214Y-6818000D01*
X1412500Y-6846571D01*
X1412500Y-7003714D01*
X1412500Y-6846571D02*
X1426786Y-6818000D01*
X1455357Y-6803714D01*
X1498214Y-6803714D01*
X1526786Y-6818000D01*
X1541071Y-6846571D01*
X1541071Y-7003714D01*
X1683928Y-7003714D02*
X1683928Y-6803714D01*
X1683928Y-6832286D02*
X1698214Y-6818000D01*
X1726786Y-6803714D01*
X1769643Y-6803714D01*
X1798214Y-6818000D01*
X1812500Y-6846571D01*
X1812500Y-7003714D01*
X1812500Y-6846571D02*
X1826786Y-6818000D01*
X1855357Y-6803714D01*
X1898214Y-6803714D01*
X1926786Y-6818000D01*
X1941071Y-6846571D01*
X1941071Y-7003714D01*
X2526786Y-6689429D02*
X2269643Y-7075143D01*
X2912500Y-6703714D02*
X2941071Y-6703714D01*
X2969643Y-6718000D01*
X2983928Y-6732286D01*
X2998214Y-6760857D01*
X3012500Y-6818000D01*
X3012500Y-6889429D01*
X2998214Y-6946571D01*
X2983928Y-6975143D01*
X2969643Y-6989429D01*
X2941071Y-7003714D01*
X2912500Y-7003714D01*
X2883928Y-6989429D01*
X2869643Y-6975143D01*
X2855357Y-6946571D01*
X2841071Y-6889429D01*
X2841071Y-6818000D01*
X2855357Y-6760857D01*
X2869643Y-6732286D01*
X2883928Y-6718000D01*
X2912500Y-6703714D01*
X3141071Y-6975143D02*
X3155357Y-6989429D01*
X3141071Y-7003714D01*
X3126786Y-6989429D01*
X3141071Y-6975143D01*
X3141071Y-7003714D01*
X3441071Y-7003714D02*
X3269643Y-7003714D01*
X3355357Y-7003714D02*
X3355357Y-6703714D01*
X3326786Y-6746571D01*
X3298214Y-6775143D01*
X3269643Y-6789429D01*
X3555357Y-6732286D02*
X3569643Y-6718000D01*
X3598214Y-6703714D01*
X3669643Y-6703714D01*
X3698214Y-6718000D01*
X3712500Y-6732286D01*
X3726786Y-6760857D01*
X3726786Y-6789429D01*
X3712500Y-6832286D01*
X3541071Y-7003714D01*
X3726786Y-7003714D01*
X3983928Y-6703714D02*
X3926786Y-6703714D01*
X3898214Y-6718000D01*
X3883928Y-6732286D01*
X3855357Y-6775143D01*
X3841071Y-6832286D01*
X3841071Y-6946571D01*
X3855357Y-6975143D01*
X3869643Y-6989429D01*
X3898214Y-7003714D01*
X3955357Y-7003714D01*
X3983928Y-6989429D01*
X3998214Y-6975143D01*
X4012500Y-6946571D01*
X4012500Y-6875143D01*
X3998214Y-6846571D01*
X3983928Y-6832286D01*
X3955357Y-6818000D01*
X3898214Y-6818000D01*
X3869643Y-6832286D01*
X3855357Y-6846571D01*
X3841071Y-6875143D01*
X4126786Y-6703714D02*
X4126786Y-6760857D01*
X4241071Y-6703714D02*
X4241071Y-6760857D01*
X4683928Y-7118000D02*
X4669643Y-7103714D01*
X4641071Y-7060857D01*
X4626786Y-7032286D01*
X4612500Y-6989429D01*
X4598214Y-6918000D01*
X4598214Y-6860857D01*
X4612500Y-6789429D01*
X4626786Y-6746571D01*
X4641071Y-6718000D01*
X4669643Y-6675143D01*
X4683928Y-6660857D01*
X4926786Y-6803714D02*
X4926786Y-7003714D01*
X4855357Y-6689429D02*
X4783928Y-6903714D01*
X4969643Y-6903714D01*
X5312500Y-7003714D02*
X5312500Y-6703714D01*
X5441071Y-7003714D02*
X5441071Y-6846571D01*
X5426786Y-6818000D01*
X5398214Y-6803714D01*
X5355357Y-6803714D01*
X5326786Y-6818000D01*
X5312500Y-6832286D01*
X5626786Y-7003714D02*
X5598214Y-6989429D01*
X5583928Y-6975143D01*
X5569643Y-6946571D01*
X5569643Y-6860857D01*
X5583928Y-6832286D01*
X5598214Y-6818000D01*
X5626786Y-6803714D01*
X5669643Y-6803714D01*
X5698214Y-6818000D01*
X5712500Y-6832286D01*
X5726786Y-6860857D01*
X5726786Y-6946571D01*
X5712500Y-6975143D01*
X5698214Y-6989429D01*
X5669643Y-7003714D01*
X5626786Y-7003714D01*
X5898214Y-7003714D02*
X5869643Y-6989429D01*
X5855357Y-6960857D01*
X5855357Y-6703714D01*
X6126786Y-6989429D02*
X6098214Y-7003714D01*
X6041071Y-7003714D01*
X6012500Y-6989429D01*
X5998214Y-6960857D01*
X5998214Y-6846571D01*
X6012500Y-6818000D01*
X6041071Y-6803714D01*
X6098214Y-6803714D01*
X6126786Y-6818000D01*
X6141071Y-6846571D01*
X6141071Y-6875143D01*
X5998214Y-6903714D01*
X6255357Y-6989429D02*
X6283928Y-7003714D01*
X6341071Y-7003714D01*
X6369643Y-6989429D01*
X6383928Y-6960857D01*
X6383928Y-6946571D01*
X6369643Y-6918000D01*
X6341071Y-6903714D01*
X6298214Y-6903714D01*
X6269643Y-6889429D01*
X6255357Y-6860857D01*
X6255357Y-6846571D01*
X6269643Y-6818000D01*
X6298214Y-6803714D01*
X6341071Y-6803714D01*
X6369643Y-6818000D01*
X6483928Y-7118000D02*
X6498214Y-7103714D01*
X6526786Y-7060857D01*
X6541071Y-7032286D01*
X6555357Y-6989429D01*
X6569643Y-6918000D01*
X6569643Y-6860857D01*
X6555357Y-6789429D01*
X6541071Y-6746571D01*
X6526786Y-6718000D01*
X6498214Y-6675143D01*
X6483928Y-6660857D01*
X7026786Y-7118000D02*
X7012500Y-7103714D01*
X6983928Y-7060857D01*
X6969643Y-7032286D01*
X6955357Y-6989429D01*
X6941071Y-6918000D01*
X6941071Y-6860857D01*
X6955357Y-6789429D01*
X6969643Y-6746571D01*
X6983928Y-6718000D01*
X7012500Y-6675143D01*
X7026786Y-6660857D01*
X7141071Y-6803714D02*
X7141071Y-7003714D01*
X7141071Y-6832286D02*
X7155357Y-6818000D01*
X7183928Y-6803714D01*
X7226786Y-6803714D01*
X7255357Y-6818000D01*
X7269643Y-6846571D01*
X7269643Y-7003714D01*
X7455357Y-7003714D02*
X7426786Y-6989429D01*
X7412500Y-6975143D01*
X7398214Y-6946571D01*
X7398214Y-6860857D01*
X7412500Y-6832286D01*
X7426786Y-6818000D01*
X7455357Y-6803714D01*
X7498214Y-6803714D01*
X7526786Y-6818000D01*
X7541071Y-6832286D01*
X7555357Y-6860857D01*
X7555357Y-6946571D01*
X7541071Y-6975143D01*
X7526786Y-6989429D01*
X7498214Y-7003714D01*
X7455357Y-7003714D01*
X7641071Y-6803714D02*
X7755357Y-6803714D01*
X7683928Y-6703714D02*
X7683928Y-6960857D01*
X7698214Y-6989429D01*
X7726786Y-7003714D01*
X7755357Y-7003714D01*
X8083928Y-6803714D02*
X8083928Y-7103714D01*
X8083928Y-6818000D02*
X8112500Y-6803714D01*
X8169643Y-6803714D01*
X8198214Y-6818000D01*
X8212500Y-6832286D01*
X8226786Y-6860857D01*
X8226786Y-6946571D01*
X8212500Y-6975143D01*
X8198214Y-6989429D01*
X8169643Y-7003714D01*
X8112500Y-7003714D01*
X8083928Y-6989429D01*
X8398214Y-7003714D02*
X8369643Y-6989429D01*
X8355357Y-6960857D01*
X8355357Y-6703714D01*
X8641071Y-7003714D02*
X8641071Y-6846571D01*
X8626786Y-6818000D01*
X8598214Y-6803714D01*
X8541071Y-6803714D01*
X8512500Y-6818000D01*
X8641071Y-6989429D02*
X8612500Y-7003714D01*
X8541071Y-7003714D01*
X8512500Y-6989429D01*
X8498214Y-6960857D01*
X8498214Y-6932286D01*
X8512500Y-6903714D01*
X8541071Y-6889429D01*
X8612500Y-6889429D01*
X8641071Y-6875143D01*
X8741071Y-6803714D02*
X8855357Y-6803714D01*
X8783928Y-6703714D02*
X8783928Y-6960857D01*
X8798214Y-6989429D01*
X8826786Y-7003714D01*
X8855357Y-7003714D01*
X9069643Y-6989429D02*
X9041071Y-7003714D01*
X8983928Y-7003714D01*
X8955357Y-6989429D01*
X8941071Y-6960857D01*
X8941071Y-6846571D01*
X8955357Y-6818000D01*
X8983928Y-6803714D01*
X9041071Y-6803714D01*
X9069643Y-6818000D01*
X9083928Y-6846571D01*
X9083928Y-6875143D01*
X8941071Y-6903714D01*
X9341071Y-7003714D02*
X9341071Y-6703714D01*
X9341071Y-6989429D02*
X9312500Y-7003714D01*
X9255357Y-7003714D01*
X9226786Y-6989429D01*
X9212500Y-6975143D01*
X9198214Y-6946571D01*
X9198214Y-6860857D01*
X9212500Y-6832286D01*
X9226786Y-6818000D01*
X9255357Y-6803714D01*
X9312500Y-6803714D01*
X9341071Y-6818000D01*
X9455357Y-7118000D02*
X9469643Y-7103714D01*
X9498214Y-7060857D01*
X9512500Y-7032286D01*
X9526786Y-6989429D01*
X9541071Y-6918000D01*
X9541071Y-6860857D01*
X9526786Y-6789429D01*
X9512500Y-6746571D01*
X9498214Y-6718000D01*
X9469643Y-6675143D01*
X9455357Y-6660857D01*
M02*
